<svg id="Capa_1" data-name="Capa 1" xmlns="http://www.w3.org/2000/svg" xmlns:xlink="http://www.w3.org/1999/xlink" viewBox="0 0 224.43 224.43"><defs><style>.cls-1{fill:none;}.cls-2{clip-path:url(#clip-path);}.cls-3{fill:#fff;}</style><clipPath id="clip-path" transform="translate(-131.57 -10.13)"><rect class="cls-1" x="131.57" y="10.13" width="224.43" height="224.43"/></clipPath></defs><title>aascb</title><g class="cls-2"><path class="cls-3" d="M165.7,44.27a110.41,110.41,0,1,0,78.08-32.34A110.07,110.07,0,0,0,165.7,44.27m-34.14,78.08A112.21,112.21,0,1,1,243.78,234.56,112.21,112.21,0,0,1,131.57,122.34" transform="translate(-131.57 -10.13)"/><path class="cls-3" d="M155.38,122a88.31,88.31,0,1,0,25.87-62.36A87.92,87.92,0,0,0,155.38,122M154,122a89.57,89.57,0,1,1,89.57,89.56A89.66,89.66,0,0,1,154,122" transform="translate(-131.57 -10.13)"/><path class="cls-3" d="M149.61,122a94.1,94.1,0,1,0,27.56-66.43A93.69,93.69,0,0,0,149.61,122M146,122a97.59,97.59,0,1,1,97.59,97.59A97.7,97.7,0,0,1,146,122" transform="translate(-131.57 -10.13)"/><path class="cls-3" d="M218.69,120l8.17-16L235,120H218.69Zm-10.27,13.6h3.35l5.37-10.53h19.42l5.35,10.53h3.34L226.86,96.94ZM179.85,120L188,104l8.14,16h-16.3Zm-10.28,13.6h3.34l5.37-10.53H197.7l5.35,10.53h3.35L188,96.94Zm90-36.12a18.1,18.1,0,1,0-.05,36.21,17.5,17.5,0,0,0,10.57-3.64l0.2-.15v-4.15l-0.86.82a14.36,14.36,0,0,1-20.53-.53,14.45,14.45,0,0,1-4.38-10.22c0-8.13,6.77-15.25,14.91-15.27a15.07,15.07,0,0,1,10,4.14l0.86,0.84v-4.21l-0.2-.15a17.2,17.2,0,0,0-10.52-3.69m30,18.49-0.27.44,0.23-.46-6.55-3.41c-2.84-1.35-5.94-2.77-5.9-6a5.92,5.92,0,0,1,5.94-6,9.41,9.41,0,0,1,4.94,1.68,6.92,6.92,0,0,1,2.33,2.16l1-.11v-3l-0.12-.14a9.53,9.53,0,0,0-2.87-2.25l-0.13-.08-0.42-.22-0.3-.15a1.75,1.75,0,0,1-.21-0.09l-0.39-.17h0a10.29,10.29,0,0,0-3.7-.7,9.32,9.32,0,0,0-6.67,2.58,9.09,9.09,0,0,0-2.61,6.61,7.39,7.39,0,0,0,3.78,6.58l6.21,3.29c3,1.48,6.69,3.08,6.64,6.51a7.84,7.84,0,0,1-7.94,7.58c-2.93,0-4.33-.54-7.91-4.07l-0.87-.87v4.16l0.12,0.15a10.46,10.46,0,0,0,8.55,3.7h0c5.79,0,11.22-4.45,11.24-10.46A8,8,0,0,0,289.5,116m23.22,13.37c-1.68,1.14-3.71,1.23-5.83,1.23H300V101.73h4.59c2,0,4,0,5.53,1a5.88,5.88,0,0,1,2.55,5.15c0,3.47-3.48,6.94-6.1,8.28l0.23,1a14,14,0,0,1,5.75,1,6.15,6.15,0,0,1,3.23,5.62,6.65,6.65,0,0,1-3.11,5.6m0.52-14.19a10.63,10.63,0,0,0,2.87-7.18,9.15,9.15,0,0,0-3.23-7.2c-2.17-1.93-4.78-2.1-7.35-2.1h-8.66v34.94h10.62c3,0,5.69-.44,8.18-2.55a9.5,9.5,0,0,0,3.32-7.41,8.77,8.77,0,0,0-5.75-8.5" transform="translate(-131.57 -10.13)"/><path class="cls-3" d="M184.47,149.91c-0.53,1.59-1,2.92-1.42,4l-0.52,1.35h3.92l-0.52-1.35c-0.42-1.07-.89-2.4-1.42-4h-0.05Zm2.89,7.66h-5.72l-1.49,3.88h-3l6-15.2h2.55l6,15.2h-2.94Z" transform="translate(-131.57 -10.13)"/><path class="cls-3" d="M201.11,148.32a5.73,5.73,0,0,0-2.09.37,4.5,4.5,0,0,0-1.65,1.09,4.89,4.89,0,0,0-1.07,1.76,7,7,0,0,0-.38,2.4,7.19,7.19,0,0,0,.35,2.35,4.62,4.62,0,0,0,1,1.7,4.25,4.25,0,0,0,1.61,1,6.33,6.33,0,0,0,2.16.35,12,12,0,0,0,1.76-.14,10.06,10.06,0,0,0,1.68-.4v2.39a14,14,0,0,1-1.72.37,14.67,14.67,0,0,1-1.91.13,9.56,9.56,0,0,1-3.39-.56,6.33,6.33,0,0,1-3.92-4,9.11,9.11,0,0,1-.5-3.1,9.82,9.82,0,0,1,.53-3.23,7.66,7.66,0,0,1,1.52-2.57,6.83,6.83,0,0,1,2.48-1.72,8.75,8.75,0,0,1,3.38-.63,12,12,0,0,1,1.83.13,8.74,8.74,0,0,1,1.55.37v2.36a11.89,11.89,0,0,0-1.7-.4,10.74,10.74,0,0,0-1.53-.11" transform="translate(-131.57 -10.13)"/><path class="cls-3" d="M214.47,148.32a5.77,5.77,0,0,0-2.1.37,4.52,4.52,0,0,0-1.65,1.09,5,5,0,0,0-1.07,1.76,7,7,0,0,0-.38,2.4,7.19,7.19,0,0,0,.35,2.35,4.7,4.7,0,0,0,1,1.7,4.23,4.23,0,0,0,1.6,1,6.33,6.33,0,0,0,2.16.35,11.94,11.94,0,0,0,1.76-.14,10.07,10.07,0,0,0,1.68-.4v2.39a14.28,14.28,0,0,1-1.72.37,14.69,14.69,0,0,1-1.91.13,9.58,9.58,0,0,1-3.4-.56,6.29,6.29,0,0,1-3.92-4,9.4,9.4,0,0,1-.49-3.1,9.58,9.58,0,0,1,.53-3.23,7.54,7.54,0,0,1,1.52-2.57,6.79,6.79,0,0,1,2.48-1.72,8.74,8.74,0,0,1,3.38-.63,11.88,11.88,0,0,1,1.83.13,8.6,8.6,0,0,1,1.56.37v2.36a11.69,11.69,0,0,0-1.69-.4,10.84,10.84,0,0,0-1.54-.11" transform="translate(-131.57 -10.13)"/><path class="cls-3" d="M224.83,153.24a13.38,13.38,0,0,0,1.62-.08,5.15,5.15,0,0,0,1.12-.26,2.12,2.12,0,0,0,1.16-.86,2.42,2.42,0,0,0,.32-1.27,2.23,2.23,0,0,0-.25-1.08,1.76,1.76,0,0,0-.87-0.75,3.63,3.63,0,0,0-1-.26,11,11,0,0,0-1.49-.08h-2v4.66h1.38Zm7.09-2.42a4.19,4.19,0,0,1-.88,2.7,5.23,5.23,0,0,1-2.73,1.64v0l4.52,6.25H229.5l-4.14-5.88h-1.91v5.88h-2.78v-15.2h4.62a16.87,16.87,0,0,1,2.14.13,7.71,7.71,0,0,1,1.69.39,4.4,4.4,0,0,1,2.06,1.52,4.2,4.2,0,0,1,.73,2.53" transform="translate(-131.57 -10.13)"/></g><polygon class="cls-3" points="106.49 148.99 113.96 148.99 113.96 151.32 103.71 151.32 103.71 136.13 113.55 136.13 113.55 138.45 106.49 138.45 106.49 142.38 112.55 142.38 112.55 144.71 106.49 144.71 106.49 148.99"/><g class="cls-2"><path class="cls-3" d="M252.41,159.12a8.73,8.73,0,0,0,3.82-.67,4.08,4.08,0,0,0,1.83-1.74,6.06,6.06,0,0,0,.63-2.93,6.22,6.22,0,0,0-.21-1.68,4.53,4.53,0,0,0-.59-1.34,4,4,0,0,0-.94-1,5.05,5.05,0,0,0-1.24-.69,6.23,6.23,0,0,0-1.44-.37,12.86,12.86,0,0,0-1.78-.12h-1.23v10.54h1.14Zm-3.93,2.33v-15.2h4c0.36,0,.72,0,1.08,0s0.72,0.06,1.07.1,0.69,0.1,1,.17a8.13,8.13,0,0,1,.9.23,7.74,7.74,0,0,1,2.14,1,6.38,6.38,0,0,1,1.57,1.55,6.72,6.72,0,0,1,.95,2,8.64,8.64,0,0,1,.33,2.41,9.45,9.45,0,0,1-.27,2.3,6.76,6.76,0,0,1-.83,2,6,6,0,0,1-1.4,1.57,7.14,7.14,0,0,1-2,1.1,11.24,11.24,0,0,1-2.19.55,19.61,19.61,0,0,1-2.76.18h-3.61Z" transform="translate(-131.57 -10.13)"/></g><rect class="cls-3" x="133.54" y="136.12" width="2.78" height="15.2"/><polygon class="cls-3" points="146.17 151.32 143.38 151.32 143.38 138.45 138.48 138.45 138.48 136.13 151.06 136.13 151.06 138.45 146.17 138.45 146.17 151.32"/><polygon class="cls-3" points="156 148.99 163.47 148.99 163.47 151.32 153.22 151.32 153.22 136.13 163.06 136.13 163.06 138.45 156 138.45 156 142.38 162.06 142.38 162.06 144.71 156 144.71 156 148.99"/><g class="cls-2"><path class="cls-3" d="M301.92,159.12a8.75,8.75,0,0,0,3.82-.67,4.09,4.09,0,0,0,1.84-1.74,7.16,7.16,0,0,0,.41-4.61,4.21,4.21,0,0,0-.59-1.34,4.1,4.1,0,0,0-.94-1,5.28,5.28,0,0,0-1.24-.69,6.2,6.2,0,0,0-1.44-.37,12.92,12.92,0,0,0-1.78-.12h-1.23v10.54h1.14ZM298,161.45v-15.2h4c0.36,0,.72,0,1.09,0s0.72,0.06,1.08.1,0.68,0.1,1,.17a8.53,8.53,0,0,1,.9.23,8.07,8.07,0,0,1,2.15,1,6.33,6.33,0,0,1,1.56,1.55,6.46,6.46,0,0,1,.94,2,8.31,8.31,0,0,1,.33,2.41,9,9,0,0,1-.27,2.3,6.5,6.5,0,0,1-.83,2,6.25,6.25,0,0,1-1.39,1.57,7.4,7.4,0,0,1-2,1.1,11.5,11.5,0,0,1-2.2.55,19.55,19.55,0,0,1-2.75.18H298Z" transform="translate(-131.57 -10.13)"/></g><rect class="cls-3" x="39.46" y="130.62" width="143.35" height="1.59"/><g class="cls-2"><path class="cls-3" d="M223.53,47.81a2.68,2.68,0,0,0-.79,5.25l0.46,0.14-0.09-.5-0.1-.61a2.11,2.11,0,0,1,2.1-2.11h46l1.08,0.18-0.1-.44a2.68,2.68,0,0,0-2.57-1.91h-46Z" transform="translate(-131.57 -10.13)"/><path class="cls-3" d="M229.21,55.45a2.68,2.68,0,0,0-.79,5.25l0.46,0.14-0.09-.5-0.11-.61a2.11,2.11,0,0,1,2.11-2.11h34.67l1.08,0.18-0.1-.44a2.67,2.67,0,0,0-2.56-1.91H229.21Z" transform="translate(-131.57 -10.13)"/><path class="cls-3" d="M234,66.85V90.1h2.17V68.44a2.11,2.11,0,0,1,2.11-2.11l1.08,0.18-0.1-.44a2.68,2.68,0,0,0-5.26.78" transform="translate(-131.57 -10.13)"/><path class="cls-3" d="M244.36,66.85V90.1h2.17V68.44a2.11,2.11,0,0,1,2.11-2.11l1.08,0.18-0.1-.44a2.69,2.69,0,0,0-5.26.79" transform="translate(-131.57 -10.13)"/><path class="cls-3" d="M254.71,66.85V90.1h2.18V68.44a2.11,2.11,0,0,1,2.1-2.11l1.09,0.18-0.1-.44a2.69,2.69,0,0,0-5.26.79" transform="translate(-131.57 -10.13)"/></g></svg>