<svg id="Capa_4" data-name="Capa 4" xmlns="http://www.w3.org/2000/svg" xmlns:xlink="http://www.w3.org/1999/xlink" viewBox="0 0 454.75 128.08"><defs><style>.cls-1,.cls-5{fill:none;}.cls-2,.cls-4{fill:#fff;}.cls-3{clip-path:url(#clip-path);}.cls-4{font-size:16.35px;font-family:Arial;}.cls-5{stroke:#fff;stroke-width:0.38px;}</style><clipPath id="clip-path" transform="translate(-19.71 -56.92)"><rect class="cls-1" x="19.71" y="56.92" width="454.14" height="128.08"/></clipPath></defs><title>acreditacion</title><polygon class="cls-2" points="35.4 60.13 53.62 11.37 66.38 11.37 79.14 42.4 69.75 49.97 60.18 23.93 45.97 60.13 35.4 60.13"/><polygon class="cls-2" points="79.14 42.4 99.23 25.07 85.7 60.13 79.14 42.4"/><polygon class="cls-2" points="60.1 60.13 73.83 60.13 70.03 50.6 60.1 60.13"/><g class="cls-3"><path class="cls-2" d="M27.49,131.53a4.25,4.25,0,0,1-.67.25c-0.26.06-.56,0.13-0.88,0.19a5.71,5.71,0,0,1-1,.09,6.56,6.56,0,0,1-2.09-.32,4.35,4.35,0,0,1-1.65-1,4.68,4.68,0,0,1-1.09-1.63,5.86,5.86,0,0,1-.39-2.2,5.8,5.8,0,0,1,.39-2.19,4.6,4.6,0,0,1,1.1-1.63,4.72,4.72,0,0,1,1.69-1,6.49,6.49,0,0,1,2.17-.35,7.11,7.11,0,0,1,1.72.2,8.25,8.25,0,0,1,1.38.47,1.76,1.76,0,0,0-.18.55c-0.05.24-.09,0.43-0.12,0.58l-0.08,0a3.32,3.32,0,0,0-.4-0.4,4.44,4.44,0,0,0-.6-0.42,4.2,4.2,0,0,0-.77-0.34,3,3,0,0,0-.95-0.14,4.27,4.27,0,0,0-1.56.28,3.3,3.3,0,0,0-1.26.85,4.08,4.08,0,0,0-.83,1.45,7.37,7.37,0,0,0,0,4.15,4,4,0,0,0,.83,1.45,3.4,3.4,0,0,0,1.26.85,4.37,4.37,0,0,0,1.56.28,3.21,3.21,0,0,0,1-.13,4.64,4.64,0,0,0,.8-0.32,4.27,4.27,0,0,0,.66-0.39l0.49-.36L28,130.42l-0.13.86a2.24,2.24,0,0,1-.41.25" transform="translate(-19.71 -56.92)"/><path class="cls-2" d="M30.5,129.62a3,3,0,0,0,.37,1,1.92,1.92,0,0,0,.68.7,2,2,0,0,0,1.06.26,1.89,1.89,0,0,0,1.74-1,3,3,0,0,0,.36-1,5.92,5.92,0,0,0,.11-1.17,6,6,0,0,0-.11-1.18,3.06,3.06,0,0,0-.36-1,1.88,1.88,0,0,0-.69-0.7,1.94,1.94,0,0,0-1.05-.26,2,2,0,0,0-1.06.26,1.88,1.88,0,0,0-.68.7,3.05,3.05,0,0,0-.37,1,6,6,0,0,0-.11,1.18,6,6,0,0,0,.11,1.17m-1.05-2.84a3,3,0,0,1,.8-1.11,3.13,3.13,0,0,1,1.12-.63,4,4,0,0,1,1.24-.2,3.94,3.94,0,0,1,1.24.2,3.11,3.11,0,0,1,1.12.63,3,3,0,0,1,.81,1.11,4.68,4.68,0,0,1,0,3.34,3.14,3.14,0,0,1-.81,1.12,3.06,3.06,0,0,1-1.12.6,4.52,4.52,0,0,1-1.24.17,4.59,4.59,0,0,1-1.24-.17,3.08,3.08,0,0,1-1.12-.6,3.13,3.13,0,0,1-.8-1.12,4.63,4.63,0,0,1,0-3.34" transform="translate(-19.71 -56.92)"/><path class="cls-2" d="M37.68,126.33c0-.47,0-0.92-0.1-1.34a4.5,4.5,0,0,0,.65.07l0.25,0L38.8,125c0,0.39,0,.77,0,1.16h0a2.35,2.35,0,0,1,2.12-1.3,2.22,2.22,0,0,1,.7.11,2.28,2.28,0,0,1,.62.3,2,2,0,0,1,.48.45,1.61,1.61,0,0,1,.27.57h0a2.47,2.47,0,0,1,2.31-1.43,2.47,2.47,0,0,1,.87.14,1.7,1.7,0,0,1,.7.4,1.73,1.73,0,0,1,.46.71,2.83,2.83,0,0,1,.17,1c0,0.17,0,.34,0,0.54s0,0.42,0,.67,0,0.54,0,.87,0,0.69,0,1.12c0,0.26,0,.52,0,0.76s0,0.5,0,.78a1.64,1.64,0,0,0-.31,0H46.52a1.58,1.58,0,0,0-.31,0c0-.24.05-0.72,0.09-1.46s0.05-1.76.05-3.07a2.7,2.7,0,0,0-.08-0.69,1.51,1.51,0,0,0-.25-0.55,1.17,1.17,0,0,0-.46-0.37,1.63,1.63,0,0,0-.72-0.14,1.87,1.87,0,0,0-.88.2,1.91,1.91,0,0,0-.56.48,1.47,1.47,0,0,0-.28.8c0,0.22,0,.53-0.05.91s0,0.94,0,1.62c0,0.41,0,.8,0,1.14s0,0.72,0,1.12c-0.21,0-.42,0-0.62,0s-0.4,0-.62,0c0-.53.07-1.07,0.09-1.62s0-1.09,0-1.62,0-.81,0-1.07,0-.46,0-0.61a2,2,0,0,0-.08-0.37,2.53,2.53,0,0,0-.13-0.31,1.3,1.3,0,0,0-.5-0.48,1.43,1.43,0,0,0-.69-0.19,1.56,1.56,0,0,0-1.38.62,3,3,0,0,0-.44,1.75v1.24c0,0.43,0,.89,0,1.37s0,0.91.09,1.3c-0.22,0-.43,0-0.64,0s-0.42,0-.65,0c0-.38.08-0.82,0.1-1.3s0-.93,0-1.37v-1.5c0-.44,0-0.89,0-1.37" transform="translate(-19.71 -56.92)"/><path class="cls-2" d="M49.91,126.33c0-.47,0-0.93-0.09-1.34a3.69,3.69,0,0,0,.65.08,3.72,3.72,0,0,0,.64-0.08c0,0.41-.08.87-0.09,1.34s0,0.93,0,1.37v1.5c0,0.44,0,.89,0,1.37s0,0.91.09,1.3a5.87,5.87,0,0,0-.64,0,6,6,0,0,0-.65,0c0-.39.08-0.82,0.09-1.3s0-.93,0-1.37v-1.5c0-.44,0-0.89,0-1.37M50,122a0.69,0.69,0,0,1,.52-0.22A0.7,0.7,0,0,1,51,122a0.73,0.73,0,0,1,0,1,0.68,0.68,0,0,1-.51.22A0.66,0.66,0,0,1,50,123a0.74,0.74,0,0,1,0-1" transform="translate(-19.71 -56.92)"/><path class="cls-2" d="M53.69,130.85a2.79,2.79,0,0,0,.35.32,2.3,2.3,0,0,0,.47.25,1.54,1.54,0,0,0,.56.09,1.48,1.48,0,0,0,.52-0.08,1.31,1.31,0,0,0,.44-0.25,1.18,1.18,0,0,0,.31-0.4,1.34,1.34,0,0,0,.12-0.57,0.89,0.89,0,0,0-.25-0.69,2.14,2.14,0,0,0-.62-0.39,6.63,6.63,0,0,0-.81-0.27,3.64,3.64,0,0,1-.82-0.32,2,2,0,0,1-.62-0.56,1.6,1.6,0,0,1-.25-1,2.3,2.3,0,0,1,.16-0.88,1.76,1.76,0,0,1,.46-0.69,2.24,2.24,0,0,1,.74-0.46,3.1,3.1,0,0,1,1-.16,2.52,2.52,0,0,1,.89.14L57,125.25a3.34,3.34,0,0,0-.21.54,2.74,2.74,0,0,0-.12.49H56.53a1.41,1.41,0,0,0-.44-0.62,1.25,1.25,0,0,0-.82-0.28,1.46,1.46,0,0,0-.43.07,1.12,1.12,0,0,0-.38.22,1.1,1.1,0,0,0-.28.38,1.22,1.22,0,0,0-.12.55,1,1,0,0,0,.25.72,1.84,1.84,0,0,0,.62.4,7,7,0,0,0,.82.25,3.35,3.35,0,0,1,.81.31,1.74,1.74,0,0,1,.62.54,1.55,1.55,0,0,1,.25,1,2,2,0,0,1-.18.83,2.46,2.46,0,0,1-.51.73,2.49,2.49,0,0,1-.81.51,3,3,0,0,1-1.07.18,3.79,3.79,0,0,1-1.1-.14,3.86,3.86,0,0,1-.74-0.29c0.05-.13.11-0.3,0.18-0.52a2.35,2.35,0,0,0,.08-0.54h0.18a1.46,1.46,0,0,0,.22.32" transform="translate(-19.71 -56.92)"/><path class="cls-2" d="M59.44,126.33c0-.47,0-0.93-0.09-1.34a3.72,3.72,0,0,0,.64.08,3.62,3.62,0,0,0,.64-0.08c0,0.41-.08.87-0.09,1.34s0,0.93,0,1.37v1.5c0,0.44,0,.89,0,1.37s0,0.91.09,1.3a7.79,7.79,0,0,0-1.28,0c0-.39.08-0.82,0.09-1.3s0-.93,0-1.37v-1.5c0-.44,0-0.89,0-1.37m0-4.38a0.71,0.71,0,0,1,1,0,0.74,0.74,0,0,1,0,1,0.71,0.71,0,0,1-1,0,0.74,0.74,0,0,1,0-1" transform="translate(-19.71 -56.92)"/><path class="cls-2" d="M67.72,121.24a0.56,0.56,0,0,1,.31.12,0.41,0.41,0,0,1,.16.35,0.51,0.51,0,0,1-.17.41,2.6,2.6,0,0,1-.34.27l-2.1,1.36H65l2.1-2.15a1,1,0,0,1,.64-0.35m-3.88,8.38a3.08,3.08,0,0,0,.37,1,2,2,0,0,0,.69.7,2,2,0,0,0,2.8-.7,3.29,3.29,0,0,0,.36-1,6.22,6.22,0,0,0,.1-1.17,6.33,6.33,0,0,0-.1-1.18,3.31,3.31,0,0,0-.36-1,2.13,2.13,0,0,0-2.8-.7,2,2,0,0,0-.69.7,3.09,3.09,0,0,0-.37,1,6.72,6.72,0,0,0-.1,1.18,6.6,6.6,0,0,0,.1,1.17m-1.06-2.84a3,3,0,0,1,.81-1.11,3.13,3.13,0,0,1,1.12-.62,3.87,3.87,0,0,1,1.23-.2,3.81,3.81,0,0,1,1.24.2,3.06,3.06,0,0,1,1.92,1.74,4.11,4.11,0,0,1,.31,1.68,4.06,4.06,0,0,1-.31,1.66,3.17,3.17,0,0,1-.81,1.12,3.07,3.07,0,0,1-1.12.6A4.49,4.49,0,0,1,66,132a4.57,4.57,0,0,1-1.23-.17,3,3,0,0,1-1.93-1.72,4.1,4.1,0,0,1-.31-1.66,4.14,4.14,0,0,1,.31-1.68" transform="translate(-19.71 -56.92)"/><path class="cls-2" d="M75.25,126.16a1.35,1.35,0,0,0-1.14-.56,1.71,1.71,0,0,0-1.47.62,2.9,2.9,0,0,0-.46,1.75v1.23c0,0.44,0,.89,0,1.37s0,0.9.09,1.29c-0.22,0-.43,0-0.64,0s-0.43,0-.64,0c0-.39.08-0.82,0.09-1.29s0-.94,0-1.37v-1.5c0-.44,0-0.89,0-1.37s0-.92-0.09-1.34a3.64,3.64,0,0,0,.64.07l0.25,0,0.32,0c0,0.39,0,.78,0,1.16h0a2.92,2.92,0,0,1,1-1,2.5,2.5,0,0,1,1.34-.34,3.15,3.15,0,0,1,.81.11,2.11,2.11,0,0,1,.74.4,2,2,0,0,1,.53.77,3.17,3.17,0,0,1,.21,1.24c0,0.41,0,.83,0,1.28s0,0.9,0,1.39V131c0,0.16,0,.31,0,0.45s0,0.3,0,.43c-0.19,0-.4,0-0.61,0s-0.4,0-.59,0c0-.5,0-1,0.06-1.55s0-1.08,0-1.64V127.8a2.72,2.72,0,0,0-.42-1.64" transform="translate(-19.71 -56.92)"/><path class="cls-2" d="M87.78,128.11q-1.86-2-3.72-4c0,0.27,0,.63,0,1.09s0,1.07,0,1.84c0,0.21,0,.46,0,0.76s0,0.61,0,.94,0,0.67,0,1,0,0.65,0,.94,0,0.55,0,.76,0,0.36,0,.44a3.77,3.77,0,0,0-.5,0,4.31,4.31,0,0,0-.53,0,5.3,5.3,0,0,0,.06-0.53c0-.26,0-0.58.07-0.93s0-.76.07-1.19,0-.84.05-1.27,0-.84,0-1.25,0-.77,0-1.08c0-.93,0-1.72,0-2.39s0-1.16,0-1.49h0.23c0.58,0.63,1.21,1.32,1.86,2l2,2.16,1.85,2c0.59,0.64,1.1,1.18,1.54,1.62v-2c0-1,0-2,0-3s0-1.86-.1-2.72a1.77,1.77,0,0,0,.49.08,1.65,1.65,0,0,0,.46-0.08c0,0.22,0,.53-0.06,1s0,0.88-.07,1.36,0,1-.06,1.41,0,0.83,0,1.12v0.87c0,0.33,0,.67,0,1s0,0.71,0,1.08,0,0.7,0,1,0,0.59,0,.83v0.47h-0.2q-1.64-1.93-3.5-3.95" transform="translate(-19.71 -56.92)"/><path class="cls-2" d="M97.13,128.41l-0.65.12a6,6,0,0,0-.64.17,2,2,0,0,0-.57.27,1.46,1.46,0,0,0-.17,2.12,1.22,1.22,0,0,0,.86.35,1.74,1.74,0,0,0,1-.3,2.41,2.41,0,0,0,.69-0.71l0.06-2.17a3.38,3.38,0,0,1-.57.15M95.35,125a3.63,3.63,0,0,1,1.11-.17,2.67,2.67,0,0,1,.95.15,2.21,2.21,0,0,1,.74.43,2,2,0,0,1,.47.68,2.08,2.08,0,0,1,.18.88c0,0.54,0,1.09,0,1.64s0,1.13,0,1.73c0,0.12,0,.24,0,0.37a0.9,0.9,0,0,0,.06.35,0.63,0.63,0,0,0,.16.26,0.47,0.47,0,0,0,.32.1h0.15a0.37,0.37,0,0,0,.15,0v0.31a1.31,1.31,0,0,1-.38.12,2.68,2.68,0,0,1-.52,0,1,1,0,0,1-.71-0.23,1,1,0,0,1-.29-0.61,4,4,0,0,1-1,.76,2.68,2.68,0,0,1-1.23.25,2.46,2.46,0,0,1-.69-0.1,1.58,1.58,0,0,1-.61-0.34,1.65,1.65,0,0,1-.43-0.56,1.67,1.67,0,0,1-.16-0.74,1.69,1.69,0,0,1,.54-1.35,2.9,2.9,0,0,1,1.47-.65c0.52-.08.91-0.15,1.2-0.22a2.64,2.64,0,0,0,.64-0.19,0.45,0.45,0,0,0,.25-0.24,1.22,1.22,0,0,0,0-.36,2.74,2.74,0,0,0-.09-0.7,1.66,1.66,0,0,0-.27-0.58,1.4,1.4,0,0,0-.49-0.4,1.52,1.52,0,0,0-.73-0.16,2.28,2.28,0,0,0-1.06.27,1.68,1.68,0,0,0-.74.73H94.16v-0.76a4,4,0,0,1,1.19-.67" transform="translate(-19.71 -56.92)"/><path class="cls-2" d="M101,126.83a3.22,3.22,0,0,1,.82-1.12,3.15,3.15,0,0,1,1.17-.65,4.27,4.27,0,0,1,1.34-.21,4.52,4.52,0,0,1,1.41.19,2.64,2.64,0,0,1,.89.44c-0.06.15-.13,0.3-0.18,0.46s-0.09.32-.13,0.5h-0.11a1.93,1.93,0,0,0-.27-0.39,2.31,2.31,0,0,0-.41-0.36,2.27,2.27,0,0,0-.52-0.27,1.6,1.6,0,0,0-.63-0.12,2.28,2.28,0,0,0-1.1.24,2.08,2.08,0,0,0-.76.66,2.84,2.84,0,0,0-.42,1,5,5,0,0,0-.14,1.24,3.42,3.42,0,0,0,.63,2.25,2.23,2.23,0,0,0,1.84.77,2.27,2.27,0,0,0,.59-0.09,3.15,3.15,0,0,0,.58-0.22,2.9,2.9,0,0,0,.54-0.33,2.57,2.57,0,0,0,.44-0.4l0.07,0a5,5,0,0,0-.08.72,4,4,0,0,1-1.06.59,3.56,3.56,0,0,1-1.32.26,4.25,4.25,0,0,1-1.24-.19,2.92,2.92,0,0,1-1.11-.61,3,3,0,0,1-.81-1.1,4,4,0,0,1-.3-1.66,3.8,3.8,0,0,1,.31-1.63" transform="translate(-19.71 -56.92)"/><path class="cls-2" d="M108.67,126.33c0-.47,0-0.93-0.09-1.34a3.7,3.7,0,0,0,.64.08,3.66,3.66,0,0,0,.64-0.08c0,0.41-.07.87-0.09,1.34s0,0.93,0,1.37v1.5c0,0.44,0,.89,0,1.37s0,0.91.09,1.3a6,6,0,0,0-.64,0,5.92,5.92,0,0,0-.64,0c0-.39.08-0.82,0.09-1.3s0-.93,0-1.37v-1.5c0-.44,0-0.89,0-1.37m0-4.38a0.7,0.7,0,0,1,.51-0.22,0.72,0.72,0,0,1,.52.22,0.74,0.74,0,0,1,0,1,0.69,0.69,0,0,1-.52.22,0.68,0.68,0,0,1-.51-0.22,0.74,0.74,0,0,1,0-1" transform="translate(-19.71 -56.92)"/><path class="cls-2" d="M113.07,129.62a3,3,0,0,0,.36,1,2.14,2.14,0,0,0,2.8.7,1.94,1.94,0,0,0,.68-0.7,3.2,3.2,0,0,0,.37-1,6.75,6.75,0,0,0,0-2.34,3.22,3.22,0,0,0-.37-1,1.89,1.89,0,0,0-.68-0.7,2.26,2.26,0,0,0-2.12,0,1.93,1.93,0,0,0-.68.7,3,3,0,0,0-.36,1,5.8,5.8,0,0,0-.11,1.18,5.74,5.74,0,0,0,.11,1.17M112,126.78a3,3,0,0,1,.8-1.11,3.17,3.17,0,0,1,1.12-.63,4,4,0,0,1,2.48,0,3,3,0,0,1,1.11.63,2.93,2.93,0,0,1,.81,1.11,4.72,4.72,0,0,1,0,3.34,3.07,3.07,0,0,1-.81,1.12,3,3,0,0,1-1.11.6,4.58,4.58,0,0,1-2.48,0,3.13,3.13,0,0,1-1.12-.6,3.18,3.18,0,0,1-.8-1.12,4.68,4.68,0,0,1,0-3.34" transform="translate(-19.71 -56.92)"/><path class="cls-2" d="M124.48,126.16a1.37,1.37,0,0,0-1.14-.56,1.71,1.71,0,0,0-1.46.62,2.88,2.88,0,0,0-.46,1.75v1.23c0,0.44,0,.89,0,1.37a12.83,12.83,0,0,0,.1,1.29c-0.22,0-.44,0-0.64,0s-0.42,0-.64,0a12.19,12.19,0,0,0,.09-1.29c0-.49,0-0.94,0-1.37v-1.5c0-.44,0-0.89,0-1.37s0-.92-0.09-1.34a3.62,3.62,0,0,0,.64.07l0.25,0,0.32,0c0,0.39,0,.78,0,1.16h0a2.94,2.94,0,0,1,1-1,2.48,2.48,0,0,1,1.34-.34,3.11,3.11,0,0,1,.8.11,1.93,1.93,0,0,1,1.28,1.17,3.14,3.14,0,0,1,.21,1.24c0,0.41,0,.83,0,1.28s0,0.9,0,1.39V131c0,0.16,0,.31,0,0.45s0,0.3,0,.43c-0.19,0-.39,0-0.61,0s-0.4,0-.59,0c0-.5,0-1,0.06-1.55s0-1.08,0-1.64V127.8a2.73,2.73,0,0,0-.42-1.64" transform="translate(-19.71 -56.92)"/><path class="cls-2" d="M131.28,128.41l-0.65.12a5.93,5.93,0,0,0-.65.17,2.08,2.08,0,0,0-.57.27,1.45,1.45,0,0,0-.17,2.12,1.23,1.23,0,0,0,.85.35,1.75,1.75,0,0,0,1-.3,2.39,2.39,0,0,0,.69-0.71l0.06-2.17a3.37,3.37,0,0,1-.56.15M129.49,125a3.65,3.65,0,0,1,1.12-.17,2.64,2.64,0,0,1,.94.15,2.2,2.2,0,0,1,.74.43,2,2,0,0,1,.48.68,2.14,2.14,0,0,1,.17.88c0,0.54,0,1.09,0,1.64s0,1.13,0,1.73c0,0.12,0,.24,0,0.37a1,1,0,0,0,.07.35,0.68,0.68,0,0,0,.16.26,0.48,0.48,0,0,0,.32.1h0.15a0.36,0.36,0,0,0,.14,0v0.31a1.26,1.26,0,0,1-.39.12,2.59,2.59,0,0,1-.52,0,1,1,0,0,1-.71-0.23,1,1,0,0,1-.3-0.61,3.79,3.79,0,0,1-1,.76,2.64,2.64,0,0,1-1.23.25,2.52,2.52,0,0,1-.7-0.1,1.63,1.63,0,0,1-.61-0.34,1.68,1.68,0,0,1-.59-1.3,1.69,1.69,0,0,1,.54-1.35,2.9,2.9,0,0,1,1.47-.65c0.52-.08.91-0.15,1.21-0.22a2.62,2.62,0,0,0,.64-0.19,0.45,0.45,0,0,0,.25-0.24,1.59,1.59,0,0,0,0-.36,2.8,2.8,0,0,0-.09-0.7,1.65,1.65,0,0,0-.27-0.58,1.44,1.44,0,0,0-.49-0.4,1.53,1.53,0,0,0-.73-0.16,2.3,2.3,0,0,0-1.06.27,1.69,1.69,0,0,0-.73.73h-0.16v-0.76a4,4,0,0,1,1.18-.67" transform="translate(-19.71 -56.92)"/><path class="cls-2" d="M135.68,124.05c0-.39,0-0.77,0-1.15s0-.74,0-1.08,0-.63,0-0.87a3.07,3.07,0,0,0,1.29,0c0,0.24,0,.53-0.05.87s0,0.7,0,1.08,0,0.76,0,1.15,0,0.74,0,1.06v2.63c0,0.33,0,.68,0,1.07s0,0.76,0,1.14,0,0.73,0,1.07,0,0.62.05,0.84c-0.22,0-.44,0-0.65,0s-0.42,0-.64,0c0-.22,0-0.5,0-0.84s0-.7,0-1.07,0-.75,0-1.14,0-.74,0-1.07v-2.63c0-.32,0-0.68,0-1.06" transform="translate(-19.71 -56.92)"/><path class="cls-2" d="M32.13,147.38a2.49,2.49,0,0,0,.46.91,1.42,1.42,0,0,0,.64.48,2,2,0,0,0,.7.12,1.64,1.64,0,0,0,1-.28,2.32,2.32,0,0,0,.66-0.73,3.62,3.62,0,0,0,.39-1,5.61,5.61,0,0,0,.12-1.16,3.61,3.61,0,0,0-.53-2.12,1.8,1.8,0,0,0-1.56-.73,1.61,1.61,0,0,0-.89.24,1.79,1.79,0,0,0-.63.67,3.23,3.23,0,0,0-.37,1,5.68,5.68,0,0,0-.13,1.22,4.64,4.64,0,0,0,.19,1.43M36,147.87a4,4,0,0,1-.31.5,2.73,2.73,0,0,1-.48.49,2.42,2.42,0,0,1-.7.38,2.75,2.75,0,0,1-.93.15,3.19,3.19,0,0,1-1.06-.19,2.43,2.43,0,0,1-.93-0.62,3.13,3.13,0,0,1-.65-1.1,4.55,4.55,0,0,1-.25-1.62,4.38,4.38,0,0,1,.27-1.61,3.5,3.5,0,0,1,.71-1.13,2.9,2.9,0,0,1,2.09-.91,2.21,2.21,0,0,1,2.2,1.45h0v-1.41c0-.37,0-0.74,0-1.11s0-.72,0-1.06,0-.65,0-1,0-.57,0-0.8l0.33,0a1.69,1.69,0,0,0,.31,0,1.66,1.66,0,0,0,.31,0l0.34,0c0,0.31-.05.76-0.08,1.34s0,1.23-.05,1.93l0,2.18q0,1.11,0,2t0,1.8c0,0.53,0,1.07,0,1.63l-0.56,0-0.54,0,0-1.37h0Z" transform="translate(-19.71 -56.92)"/><path class="cls-2" d="M40.95,142.93a2.15,2.15,0,0,0-.6.62,2.8,2.8,0,0,0-.36.81,4.3,4.3,0,0,0-.15.83l0.92,0,0.93,0,1,0,0.94,0a6.09,6.09,0,0,0-.06-0.83,2.68,2.68,0,0,0-.26-0.82,1.8,1.8,0,0,0-.53-0.62,1.53,1.53,0,0,0-.9-0.25,1.56,1.56,0,0,0-.89.25m-1.57.3a3,3,0,0,1,2.43-1,3.32,3.32,0,0,1,1.31.24,2.66,2.66,0,0,1,.92.64,2.42,2.42,0,0,1,.55.93,3.55,3.55,0,0,1,.18,1.14c0,0.09,0,.2,0,0.29s0,0.19,0,.28l-1.52,0H40.75l-0.94,0a1.44,1.44,0,0,0,0,.22v0.19A3.42,3.42,0,0,0,40,147.2a2.4,2.4,0,0,0,.48.84,2.23,2.23,0,0,0,.77.56,2.44,2.44,0,0,0,1.06.22,2.28,2.28,0,0,0,.58-0.08,3.74,3.74,0,0,0,.59-0.22A2.82,2.82,0,0,0,44,148.2a2.94,2.94,0,0,0,.44-0.41l0.07,0-0.09.71a3.86,3.86,0,0,1-1.06.59,3.69,3.69,0,0,1-1.33.25,4.06,4.06,0,0,1-1.41-.24,3,3,0,0,1-1.09-.7,3.17,3.17,0,0,1-.72-1.08,3.61,3.61,0,0,1-.24-1.34,4.26,4.26,0,0,1,.84-2.79" transform="translate(-19.71 -56.92)"/><path class="cls-2" d="M51.58,144.74h2.35l0.79,0-1.58-3.69Zm6.33,4.5a2.45,2.45,0,0,0-.38,0H56.77a2.5,2.5,0,0,0-.38,0c-0.06-.22-0.16-0.49-0.27-0.8s-0.24-.65-0.38-1-0.27-.69-0.42-1-0.27-.68-0.4-1l-0.93,0H52.18l-0.87,0q-0.46,1.13-.83,2.15c-0.25.67-.43,1.24-0.56,1.69a4.29,4.29,0,0,0-.53,0,4.39,4.39,0,0,0-.53,0c0.77-1.69,1.53-3.37,2.26-5s1.47-3.37,2.22-5.1h0.27l0.74,1.82,0.82,2c0.27,0.67.55,1.32,0.82,2l0.77,1.83,0.66,1.52c0.2,0.44.35,0.78,0.48,1" transform="translate(-19.71 -56.92)"/><path class="cls-2" d="M59.07,144.21a3.23,3.23,0,0,1,.82-1.12,3.33,3.33,0,0,1,1.16-.65,4.36,4.36,0,0,1,1.34-.21,4.79,4.79,0,0,1,1.41.2,2.52,2.52,0,0,1,.89.44c-0.06.15-.12,0.29-0.18,0.46s-0.1.33-.14,0.5H64.27a2.59,2.59,0,0,0-.27-0.38,2.31,2.31,0,0,0-.4-0.36,2.44,2.44,0,0,0-.52-0.27,1.6,1.6,0,0,0-.63-0.11,2.36,2.36,0,0,0-1.11.24,2,2,0,0,0-.75.66,2.83,2.83,0,0,0-.43,1,5.5,5.5,0,0,0-.13,1.24,3.45,3.45,0,0,0,.63,2.25,2.5,2.5,0,0,0,2.43.68,3.57,3.57,0,0,0,.59-0.22,2.83,2.83,0,0,0,.54-0.33,2.63,2.63,0,0,0,.44-0.41l0.07,0a4.64,4.64,0,0,0-.09.71,3.91,3.91,0,0,1-1.06.59,3.7,3.7,0,0,1-1.32.24A4.38,4.38,0,0,1,61,149.2a2.93,2.93,0,0,1-1.12-.6,3.19,3.19,0,0,1-.81-1.11,4,4,0,0,1-.31-1.66,3.86,3.86,0,0,1,.31-1.62" transform="translate(-19.71 -56.92)"/><path class="cls-2" d="M69.37,143.4a1.2,1.2,0,0,0-.42-0.08,1.22,1.22,0,0,0-.62.16,1.58,1.58,0,0,0-.46.43,2.25,2.25,0,0,0-.28.64,2.94,2.94,0,0,0-.09.79v1.6c0,0.64,0,1.14,0,1.48a7.63,7.63,0,0,0,0,.83c-0.19,0-.38,0-0.58,0s-0.41,0-.6,0c0-.33,0-0.77.05-1.34s0-1.26,0-2.07v-0.46c0-.38,0-0.81,0-1.3s0-1.06-.05-1.7l0.29,0.05a1.83,1.83,0,0,0,.3,0l0.28,0,0.3-.05c0,0.35-.06.62-0.07,0.83s0,0.4,0,.58h0c0.56-1,1.19-1.57,1.88-1.57l0.23,0,0.23,0.07a1.91,1.91,0,0,0-.09.53c0,0.24,0,.45,0,0.64l-0.1.07a0.63,0.63,0,0,0-.27-0.15" transform="translate(-19.71 -56.92)"/><path class="cls-2" d="M73,142.93a2.14,2.14,0,0,0-.6.62,3.08,3.08,0,0,0-.36.81,4.68,4.68,0,0,0-.15.83l0.92,0,0.94,0,1,0,0.95,0a5.39,5.39,0,0,0-.07-0.83,2.61,2.61,0,0,0-.25-0.82,1.84,1.84,0,0,0-.54-0.62,1.52,1.52,0,0,0-.9-0.25,1.57,1.57,0,0,0-.89.25m-1.57.3a3,3,0,0,1,2.44-1,3.29,3.29,0,0,1,1.3.24,2.71,2.71,0,0,1,.93.64,2.46,2.46,0,0,1,.55.93,3.68,3.68,0,0,1,.18,1.14c0,0.09,0,.2,0,0.29s0,0.19,0,.28l-1.53,0H72.76l-0.93,0a0.76,0.76,0,0,0,0,.22v0.19A3.39,3.39,0,0,0,72,147.2a2.51,2.51,0,0,0,.49.84,2.21,2.21,0,0,0,.77.56,2.5,2.5,0,0,0,1.64.14,4.23,4.23,0,0,0,.58-0.22A3.18,3.18,0,0,0,76,148.2a2.79,2.79,0,0,0,.43-0.41l0.07,0-0.08.71a3.88,3.88,0,0,1-1.07.59,3.63,3.63,0,0,1-1.32.25,4,4,0,0,1-1.41-.24,3.09,3.09,0,0,1-1.81-1.77,3.45,3.45,0,0,1-.25-1.34,4.27,4.27,0,0,1,.83-2.79" transform="translate(-19.71 -56.92)"/><path class="cls-2" d="M79.23,147.38a2.54,2.54,0,0,0,.46.91,1.46,1.46,0,0,0,.63.48,2.06,2.06,0,0,0,.7.12,1.61,1.61,0,0,0,1-.28,2.39,2.39,0,0,0,.67-0.73,3.54,3.54,0,0,0,.38-1,5.39,5.39,0,0,0,.13-1.16,3.64,3.64,0,0,0-.52-2.12,1.81,1.81,0,0,0-1.56-.73,1.65,1.65,0,0,0-.9.24,1.82,1.82,0,0,0-.62.67,3.22,3.22,0,0,0-.38,1,6.64,6.64,0,0,0-.12,1.22,4.92,4.92,0,0,0,.18,1.43m3.88,0.49a4,4,0,0,1-.31.5,2.52,2.52,0,0,1-1.18.87,2.79,2.79,0,0,1-.93.15,3.17,3.17,0,0,1-1.07-.19,2.33,2.33,0,0,1-.93-0.62,3,3,0,0,1-.66-1.1,4.66,4.66,0,0,1-.25-1.62,4.36,4.36,0,0,1,.27-1.61,3.54,3.54,0,0,1,.7-1.13,2.87,2.87,0,0,1,1-.68,2.81,2.81,0,0,1,1.11-.23,2.21,2.21,0,0,1,2.2,1.45h0v-1.41c0-.37,0-0.74,0-1.11s0-.72,0-1.06,0-.65,0-1,0-.57,0-0.8l0.33,0a1.78,1.78,0,0,0,.32,0l0.3,0,0.34,0c0,0.31,0,.76-0.07,1.34s0,1.23-.05,1.93,0,1.43,0,2.18,0,1.42,0,2,0,1.27,0,1.8,0,1.07,0,1.63l-0.56,0-0.54,0,0-1.37h0Z" transform="translate(-19.71 -56.92)"/><path class="cls-2" d="M86.57,143.71c0-.48,0-0.92-0.09-1.34a3,3,0,0,0,1.28,0c0,0.41-.08.86-0.09,1.34s0,0.93,0,1.37v1.5c0,0.44,0,.89,0,1.37s0,0.91.09,1.29l-0.64,0-0.64,0a12.31,12.31,0,0,0,.09-1.29c0-.48,0-0.94,0-1.37v-1.5c0-.44,0-0.89,0-1.37m0-4.39a0.71,0.71,0,0,1,.51-0.21,0.7,0.7,0,0,1,.51.21,0.74,0.74,0,0,1,.22.53,0.72,0.72,0,0,1-.22.52,0.71,0.71,0,0,1-.51.22,0.75,0.75,0,0,1-.73-0.74,0.74,0.74,0,0,1,.22-0.53" transform="translate(-19.71 -56.92)"/><path class="cls-2" d="M91.5,140.43c0,0.37,0,.72-0.07,1.08s0,0.71-.05,1.06H92l0.92,0a1.18,1.18,0,0,0,0,.16V143a1.2,1.2,0,0,0,0,.14l-0.38,0H91.38s0,0.2,0,.47,0,0.59,0,1,0,0.76,0,1.16,0,0.77,0,1.09,0,0.54,0,.8a2.57,2.57,0,0,0,.13.71,1.16,1.16,0,0,0,.34.49,1,1,0,0,0,.66.19l0.31,0,0.33-.07v0.34l-0.53.11a2.5,2.5,0,0,1-.56.07,1.77,1.77,0,0,1-1.33-.45,1.85,1.85,0,0,1-.43-1.32c0-.26,0-0.54,0-0.84s0-.64,0-1,0-.77,0-1.2,0-.93,0-1.47h-0.7l-0.27,0c0-.06,0-0.11,0-0.17a1.28,1.28,0,0,0,0-.16,1,1,0,0,0,0-.15c0-.05,0-0.1,0-0.15l0.94,0c0-.19,0-0.44,0-0.72s0-.59,0-0.9l1.19-.51H91.5Z" transform="translate(-19.71 -56.92)"/><path class="cls-2" d="M97.26,145.78l-0.65.12c-0.21,0-.43.1-0.64,0.17a1.85,1.85,0,0,0-.56.28,1.24,1.24,0,0,0-.4.43,1.3,1.3,0,0,0-.15.67,1.32,1.32,0,0,0,.37,1,1.26,1.26,0,0,0,.86.35,1.69,1.69,0,0,0,1-.31,2.11,2.11,0,0,0,.69-0.71l0.06-2.16a4.87,4.87,0,0,1-.57.14m-1.78-3.39a3.73,3.73,0,0,1,1.12-.17,2.88,2.88,0,0,1,.94.15,2.08,2.08,0,0,1,.73.44,2,2,0,0,1,.48.68,2.13,2.13,0,0,1,.18.87c0,0.56,0,1.1,0,1.65s0,1.12,0,1.73c0,0.11,0,.24,0,0.37a1,1,0,0,0,.06.34,0.77,0.77,0,0,0,.16.26,0.44,0.44,0,0,0,.32.1h0.15a0.4,0.4,0,0,0,.15,0v0.32a1.51,1.51,0,0,1-.39.11,2.73,2.73,0,0,1-.52,0A1,1,0,0,1,98.1,149a1,1,0,0,1-.29-0.62,3.64,3.64,0,0,1-1,.77,2.67,2.67,0,0,1-1.23.25,2.72,2.72,0,0,1-.7-0.1,1.69,1.69,0,0,1-.6-0.34,2,2,0,0,1-.42-0.55,1.62,1.62,0,0,1-.16-0.75,1.73,1.73,0,0,1,.53-1.35,2.91,2.91,0,0,1,1.48-.63l1.2-.23a2.4,2.4,0,0,0,.64-0.2,0.42,0.42,0,0,0,.24-0.23,1.3,1.3,0,0,0,.05-0.36,2.65,2.65,0,0,0-.09-0.69,1.59,1.59,0,0,0-.27-0.58A1.47,1.47,0,0,0,97,143a1.65,1.65,0,0,0-.74-0.15,2.25,2.25,0,0,0-1.06.27,1.71,1.71,0,0,0-.74.72H94.29v-0.75a4.17,4.17,0,0,1,1.19-.67" transform="translate(-19.71 -56.92)"/><path class="cls-2" d="M101.13,144.21a3.41,3.41,0,0,1,.82-1.12,3.37,3.37,0,0,1,1.17-.65,4.35,4.35,0,0,1,1.34-.21,4.78,4.78,0,0,1,1.41.2,2.44,2.44,0,0,1,.89.44c-0.06.15-.12,0.29-0.17,0.46a3.8,3.8,0,0,0-.13.5h-0.12a2.2,2.2,0,0,0-.28-0.38,2.39,2.39,0,0,0-.4-0.36,2.31,2.31,0,0,0-.52-0.27,1.6,1.6,0,0,0-.63-0.11,2.37,2.37,0,0,0-1.11.24,1.93,1.93,0,0,0-.76.66,2.79,2.79,0,0,0-.43,1,5.54,5.54,0,0,0-.13,1.24,3.45,3.45,0,0,0,.62,2.25,2.5,2.5,0,0,0,2.43.68,3.55,3.55,0,0,0,.59-0.22,2.74,2.74,0,0,0,.54-0.33,2.33,2.33,0,0,0,.44-0.41l0.07,0a4.48,4.48,0,0,0-.08.71,4.06,4.06,0,0,1-1.07.59,3.74,3.74,0,0,1-1.32.24,4.34,4.34,0,0,1-1.24-.18,3,3,0,0,1-1.12-.6,3.06,3.06,0,0,1-.8-1.11,4,4,0,0,1-.31-1.66,3.85,3.85,0,0,1,.31-1.62" transform="translate(-19.71 -56.92)"/><path class="cls-2" d="M108.8,143.71c0-.48,0-0.92-0.1-1.34a4.7,4.7,0,0,0,.64.07,4.5,4.5,0,0,0,.64-0.07c0,0.41-.08.86-0.09,1.34s0,0.93,0,1.37v1.5c0,0.44,0,.89,0,1.37s0,0.91.09,1.29l-0.64,0-0.64,0c0.05-.39.08-0.82,0.1-1.29s0-.94,0-1.37v-1.5c0-.44,0-0.89,0-1.37m0-4.39a0.74,0.74,0,0,1,1,0,0.74,0.74,0,0,1,.21.53,0.72,0.72,0,0,1-.21.52,0.71,0.71,0,0,1-1,0,0.72,0.72,0,0,1-.22-0.52,0.74,0.74,0,0,1,.22-0.53" transform="translate(-19.71 -56.92)"/><path class="cls-2" d="M117.08,138.62a0.53,0.53,0,0,1,.31.11,0.39,0.39,0,0,1,.16.35,0.52,0.52,0,0,1-.17.41,2.56,2.56,0,0,1-.35.27l-2.1,1.36h-0.6l2.1-2.16a0.93,0.93,0,0,1,.64-0.34M113.2,147a3.29,3.29,0,0,0,.37,1,1.94,1.94,0,0,0,.68.7,2.26,2.26,0,0,0,2.12,0A2,2,0,0,0,117,148a2.92,2.92,0,0,0,.37-1,6.39,6.39,0,0,0,.11-1.17,6.32,6.32,0,0,0-.11-1.18,3,3,0,0,0-.37-1,1.87,1.87,0,0,0-1.74-1,1.87,1.87,0,0,0-1.74,1,3.34,3.34,0,0,0-.37,1,7.06,7.06,0,0,0-.11,1.18,7.15,7.15,0,0,0,.11,1.17m-1.05-2.84A3.07,3.07,0,0,1,113,143a3.22,3.22,0,0,1,1.12-.62,4,4,0,0,1,2.47,0,3.29,3.29,0,0,1,1.12.62,3.09,3.09,0,0,1,.8,1.12,4,4,0,0,1,.31,1.67,4.09,4.09,0,0,1-.31,1.67,3.16,3.16,0,0,1-.8,1.12,3,3,0,0,1-1.12.6,4.64,4.64,0,0,1-2.47,0,2.9,2.9,0,0,1-1.12-.6,3.14,3.14,0,0,1-.81-1.12,4.06,4.06,0,0,1-.31-1.67,4,4,0,0,1,.31-1.67" transform="translate(-19.71 -56.92)"/><path class="cls-2" d="M124.61,143.53a1.35,1.35,0,0,0-1.15-.55,1.71,1.71,0,0,0-1.46.62,2.89,2.89,0,0,0-.47,1.75v1.23c0,0.43,0,.89,0,1.36s0,0.91.09,1.29l-0.64,0-0.64,0c0-.39.08-0.82,0.1-1.29s0-.93,0-1.36v-1.51c0-.43,0-0.89,0-1.37s-0.05-.93-0.1-1.34a3.41,3.41,0,0,0,.64.08l0.25,0,0.32-.06c0,0.39,0,.79,0,1.17h0a2.94,2.94,0,0,1,1-1,2.49,2.49,0,0,1,1.34-.35,3.07,3.07,0,0,1,.8.11,1.93,1.93,0,0,1,1.27,1.18,3.1,3.1,0,0,1,.21,1.24c0,0.41,0,.84,0,1.28s0,0.91,0,1.4v0.94c0,0.16,0,.3,0,0.46s0,0.29,0,.42l-0.6,0-0.6,0c0-.5,0-1,0.07-1.55s0-1.07,0-1.63v-0.89a2.77,2.77,0,0,0-.42-1.64" transform="translate(-19.71 -56.92)"/><path class="cls-2" d="M53.42,166.28a4.69,4.69,0,0,1-.67.25c-0.26.07-.56,0.13-0.88,0.19a6.29,6.29,0,0,1-1,.08,6.4,6.4,0,0,1-2.09-.33,4.38,4.38,0,0,1-1.65-1A4.78,4.78,0,0,1,46,163.86a5.89,5.89,0,0,1-.39-2.2,5.83,5.83,0,0,1,.39-2.18,4.67,4.67,0,0,1,1.1-1.64,4.84,4.84,0,0,1,1.7-1,6.56,6.56,0,0,1,2.17-.35,7.14,7.14,0,0,1,1.72.2,7.43,7.43,0,0,1,1.38.47,1.64,1.64,0,0,0-.19.54c-0.05.24-.08,0.43-0.12,0.59l-0.08,0a2.75,2.75,0,0,0-.4-0.39,4.65,4.65,0,0,0-.6-0.42,4.56,4.56,0,0,0-.78-0.35A3.19,3.19,0,0,0,51,157a4.34,4.34,0,0,0-1.57.28,3.53,3.53,0,0,0-1.25.85,4,4,0,0,0-.83,1.45,7.39,7.39,0,0,0,0,4.15,3.92,3.92,0,0,0,.83,1.45,3.35,3.35,0,0,0,1.25.84,4.4,4.4,0,0,0,1.57.28,3.1,3.1,0,0,0,1-.13,4.8,4.8,0,0,0,.8-0.3,5.78,5.78,0,0,0,.65-0.39l0.5-.37L54,165.17l-0.13.85a1.64,1.64,0,0,1-.41.25" transform="translate(-19.71 -56.92)"/><path class="cls-2" d="M60.52,162.86l-3.72-4c0,0.27,0,.63,0,1.08s0,1.07,0,1.85c0,0.21,0,.46,0,0.75s0,0.61,0,.94,0,0.66,0,1,0,0.65,0,.94,0,0.54,0,.75,0,0.38,0,.44c-0.15,0-.32,0-0.5,0l-0.53,0a4.07,4.07,0,0,0,.07-0.53c0-.26,0-0.57.06-0.93s0-.76.06-1.18,0-.85.06-1.27,0-.85,0-1.25,0-.76,0-1.08c0-.93,0-1.72,0-2.39s0-1.17,0-1.5h0.23l1.86,2.06,2,2.15,1.85,2c0.59,0.64,1.1,1.18,1.54,1.61v-2q0-1.52,0-3c0-1,0-1.86-.1-2.72a1.85,1.85,0,0,0,.49.08,1.78,1.78,0,0,0,.46-0.08c0,0.21,0,.53-0.06,1s-0.05.88-.07,1.36,0,1-.06,1.42,0,0.84,0,1.12v0.86c0,0.33,0,.67,0,1s0,0.72,0,1.08,0,0.7,0,1,0,0.58,0,.82v0.47H64c-1.09-1.29-2.26-2.59-3.49-3.94" transform="translate(-19.71 -56.92)"/><path class="cls-2" d="M68.39,162.11h2.34l0.8,0-1.59-3.68Zm6.33,4.5a2.08,2.08,0,0,0-.38,0H73.58a2,2,0,0,0-.38,0c-0.07-.22-0.16-0.49-0.27-0.8s-0.23-.64-0.38-1l-0.42-1c-0.14-.35-0.28-0.69-0.4-1l-0.93,0H69l-0.87,0c-0.3.75-.58,1.47-0.82,2.15s-0.44,1.24-.56,1.68a4.45,4.45,0,0,0-1.05,0q1.15-2.54,2.25-5c0.73-1.67,1.47-3.37,2.21-5.1h0.27c0.23,0.56.47,1.17,0.74,1.82s0.53,1.31.81,2,0.55,1.33.83,2,0.54,1.27.78,1.83l0.66,1.52c0.2,0.45.35,0.78,0.48,1" transform="translate(-19.71 -56.92)"/><path class="cls-2" d="M88.09,166.28a5,5,0,0,1-.66.25c-0.27.07-.56,0.13-0.88,0.19a6.63,6.63,0,0,1-3.1-.24,4.4,4.4,0,0,1-1.65-1,4.8,4.8,0,0,1-1.09-1.63,5.79,5.79,0,0,1-.39-2.2,5.73,5.73,0,0,1,.39-2.18,4.6,4.6,0,0,1,1.1-1.64,4.81,4.81,0,0,1,1.69-1,6.5,6.5,0,0,1,2.17-.35,7.14,7.14,0,0,1,1.72.2,7.41,7.41,0,0,1,1.38.47,1.67,1.67,0,0,0-.19.54c0,0.24-.08.43-0.12,0.59l-0.08,0a3.07,3.07,0,0,0-.4-0.39,4.54,4.54,0,0,0-.6-0.42,4.66,4.66,0,0,0-.77-0.35,3.28,3.28,0,0,0-.95-0.14,4.3,4.3,0,0,0-1.56.28,3.41,3.41,0,0,0-1.25.85,3.85,3.85,0,0,0-.83,1.45,7.25,7.25,0,0,0,0,4.15,3.79,3.79,0,0,0,.83,1.45,3.24,3.24,0,0,0,1.25.84,4.36,4.36,0,0,0,1.56.28,3.08,3.08,0,0,0,1-.13,4.86,4.86,0,0,0,.8-0.3,6.29,6.29,0,0,0,.65-0.39l0.49-.37,0.06,0.06L88.5,166a1.67,1.67,0,0,1-.41.25" transform="translate(-19.71 -56.92)"/><path class="cls-2" d="M90.44,158.8c0-.39,0-0.77,0-1.14s0-.74,0-1.09,0-.62,0-0.87a3.52,3.52,0,0,0,.64.07,3.61,3.61,0,0,0,.64-0.07c0,0.25,0,.53,0,0.87s0,0.69,0,1.06,0,0.74,0,1.12,0,0.73,0,1v1.1h0a3,3,0,0,1,1-1,2.55,2.55,0,0,1,1.33-.33,3,3,0,0,1,.81.11,2.18,2.18,0,0,1,.74.4,2.16,2.16,0,0,1,.53.77,3.16,3.16,0,0,1,.21,1.24c0,0.41,0,.85,0,1.28s0,0.91,0,1.4v0.94c0,0.16,0,.32,0,0.46s0,0.3,0,.43l-0.61,0-0.59,0c0-.5,0-1,0.06-1.55s0-1.07,0-1.63v-0.88a2.77,2.77,0,0,0-.41-1.64,1.36,1.36,0,0,0-1.14-.56A1.69,1.69,0,0,0,92,161a2.84,2.84,0,0,0-.47,1.75c0,0.27,0,.58,0,0.94s0,0.72,0,1.08,0,0.72,0,1.05,0,0.62,0,.83l-0.64,0-0.64,0c0-.22,0-0.5,0-0.84s0-.7,0-1.07,0-.76,0-1.14,0-.75,0-1.07v-2.62c0-.32,0-0.68,0-1.06" transform="translate(-19.71 -56.92)"/><path class="cls-2" d="M98.62,161.08a13.24,13.24,0,0,0-.1-1.34,3.72,3.72,0,0,0,.65.07,3.49,3.49,0,0,0,.64-0.07c0,0.41-.08.86-0.09,1.34s0,0.93,0,1.37V164c0,0.43,0,.89,0,1.37s0,0.91.09,1.29l-0.64,0-0.65,0a11.81,11.81,0,0,0,.1-1.29c0-.47,0-0.93,0-1.37v-1.5c0-.44,0-0.9,0-1.37m0-4.38a0.73,0.73,0,0,1,1,0,0.75,0.75,0,0,1,0,1,0.72,0.72,0,0,1-1,0,0.74,0.74,0,0,1,0-1" transform="translate(-19.71 -56.92)"/><path class="cls-2" d="M102.61,158.8c0-.39,0-0.77,0-1.14s0-.74,0-1.09,0-.62,0-0.87a3,3,0,0,0,1.28,0c0,0.25,0,.54,0,0.87s0,0.71,0,1.09,0,0.75,0,1.14,0,0.74,0,1.06v2.62c0,0.33,0,.68,0,1.07s0,0.76,0,1.14,0,0.73,0,1.07,0,0.62,0,.84l-0.64,0-0.64,0c0-.22,0-0.5,0-0.84s0-.7,0-1.07,0-.76,0-1.14,0-.75,0-1.07v-2.62c0-.32,0-0.68,0-1.06" transform="translate(-19.71 -56.92)"/><path class="cls-2" d="M108.3,160.26a2.07,2.07,0,0,0-.65.56,3,3,0,0,0-.43.78,4.91,4.91,0,0,0-.22.82l0.91,0.11c0.32,0,.63.07,0.93,0.1l1,0.07,0.94,0.05a6.06,6.06,0,0,0,0-.83,2.56,2.56,0,0,0-.18-0.82,1.75,1.75,0,0,0-.48-0.67,1.54,1.54,0,0,0-.87-0.32,1.59,1.59,0,0,0-.91.17m-1.59.16a3,3,0,0,1,2.51-.8,3.51,3.51,0,0,1,1.28.35,2.82,2.82,0,0,1,.86.72,2.54,2.54,0,0,1,.47,1,3.55,3.55,0,0,1,.08,1.15c0,0.1,0,.19,0,0.28s0,0.19-.05.28l-1.51-.16-1.51-.15-0.93-.07-0.93,0a1.9,1.9,0,0,0,0,.21v0.18a3.62,3.62,0,0,0,.07,1.07,2.42,2.42,0,0,0,.4.89,2.32,2.32,0,0,0,.72.63,2.58,2.58,0,0,0,1,.31,2.52,2.52,0,0,0,.59,0,2.74,2.74,0,0,0,.59-0.16,3.09,3.09,0,0,0,.56-0.28,2.14,2.14,0,0,0,.46-0.37l0.07,0.05-0.14.7a4.15,4.15,0,0,1-1.11.49,3.7,3.7,0,0,1-1.34.13,4,4,0,0,1-1.37-.36,3.08,3.08,0,0,1-1-.79,3.05,3.05,0,0,1-.62-1.13,3.6,3.6,0,0,1-.13-1.36,4.24,4.24,0,0,1,1.07-2.72" transform="translate(-19.71 -56.92)"/><path class="cls-2" d="M187.67,59.45v4.43L166,109.15h-7l21.56-44V65H156.32V59.45h31.35Z" transform="translate(-19.71 -56.92)"/></g><path class="cls-2" d="M188.11,75.54l-1.34,4.05H185l4.38-12.89h2l4.4,12.89h-1.78l-1.38-4.05h-4.57Zm4.23-1.3-1.26-3.71c-0.29-.84-0.48-1.61-0.67-2.35h0c-0.19.76-.4,1.55-0.65,2.33l-1.26,3.73h3.88Z" transform="translate(-19.71 -56.92)"/><path class="cls-2" d="M197.72,79.59V66.7h1.82l4.13,6.52A36.49,36.49,0,0,1,206,77.41l0,0c-0.15-1.72-.19-3.29-0.19-5.3V66.7h1.57V79.59h-1.68l-4.09-6.54a40.8,40.8,0,0,1-2.41-4.3l-0.06,0c0.1,1.63.13,3.17,0.13,5.32v5.51h-1.57Zm2.56-13.67c0-1.17.46-2,1.3-2a2.34,2.34,0,0,1,1.13.38,2,2,0,0,0,.92.34c0.29,0,.46-0.13.52-0.75H205c0,1.21-.4,1.85-1.28,1.85a2.57,2.57,0,0,1-1.17-.36,2.21,2.21,0,0,0-.9-0.36c-0.31,0-.46.33-0.5,0.84h-0.9Z" transform="translate(-19.71 -56.92)"/><path class="cls-2" d="M221.31,73c0,4.44-2.7,6.79-6,6.79s-5.79-2.64-5.79-6.54c0-4.09,2.54-6.77,6-6.77S221.31,69.19,221.31,73Zm-10,.21c0,2.75,1.49,5.22,4.11,5.22s4.13-2.43,4.13-5.35c0-2.56-1.34-5.24-4.11-5.24S211.31,70.39,211.31,73.22Z" transform="translate(-19.71 -56.92)"/><path class="cls-2" d="M223.24,77.56a5.89,5.89,0,0,0,3,.84c1.7,0,2.7-.9,2.7-2.2s-0.69-1.89-2.43-2.56c-2.1-.75-3.4-1.83-3.4-3.65,0-2,1.66-3.5,4.17-3.5a5.85,5.85,0,0,1,2.85.63l-0.46,1.36a5.13,5.13,0,0,0-2.45-.61c-1.76,0-2.43,1.05-2.43,1.93,0,1.2.78,1.8,2.56,2.49,2.18,0.84,3.29,1.89,3.29,3.79s-1.47,3.71-4.51,3.71a6.66,6.66,0,0,1-3.29-.82Z" transform="translate(-19.71 -56.92)"/><path class="cls-2" d="M181.51,97.84l-1.78,5.4h-2.29l5.84-17.17h2.68l5.86,17.17h-2.37l-1.83-5.4h-6.09Zm5.63-1.73-1.68-4.94C185.08,90,184.83,89,184.57,88h-0.05c-0.25,1-.54,2.06-0.87,3.11l-1.68,5h5.17Z" transform="translate(-19.71 -56.92)"/><path class="cls-2" d="M206.34,102.68a11,11,0,0,1-4.54.82c-4.84,0-8.49-3.06-8.49-8.69,0-5.38,3.64-9,9-9a9.2,9.2,0,0,1,4.08.76l-0.54,1.81a8.08,8.08,0,0,0-3.47-.71c-4,0-6.7,2.57-6.7,7.08,0,4.2,2.42,6.91,6.6,6.91a8.87,8.87,0,0,0,3.62-.71Z" transform="translate(-19.71 -56.92)"/><path class="cls-2" d="M209.12,86.3a23.07,23.07,0,0,1,4.26-.36c2.37,0,3.9.43,5,1.4a4.28,4.28,0,0,1,1.35,3.26A4.51,4.51,0,0,1,216.46,95v0.08c1.33,0.46,2.12,1.68,2.52,3.47a27.31,27.31,0,0,0,1.33,4.71H218a22.26,22.26,0,0,1-1.15-4.1c-0.51-2.37-1.43-3.26-3.44-3.34h-2.09v7.44h-2.22V86.3Zm2.22,7.82h2.27c2.37,0,3.87-1.3,3.87-3.26,0-2.22-1.61-3.18-3.95-3.21a9.15,9.15,0,0,0-2.19.2v6.27Z" transform="translate(-19.71 -56.92)"/><path class="cls-2" d="M231.72,95.19H225v6.19h7.44v1.86h-9.66V86.07h9.28v1.86H225v5.43h6.68v1.83Z" transform="translate(-19.71 -56.92)"/><path class="cls-2" d="M235.37,86.3a31.72,31.72,0,0,1,4.71-.36c3.19,0,5.45.74,7,2.14a7.91,7.91,0,0,1,2.42,6.17,9.08,9.08,0,0,1-2.47,6.68c-1.61,1.61-4.26,2.47-7.59,2.47a35.89,35.89,0,0,1-4-.2V86.3Zm2.22,15.19a14,14,0,0,0,2.24.13c4.74,0,7.31-2.65,7.31-7.29,0-4.05-2.27-6.62-7-6.62a12.55,12.55,0,0,0-2.6.23v13.56Z" transform="translate(-19.71 -56.92)"/><path class="cls-2" d="M254.56,86.07v17.17h-2.22V86.07h2.22Z" transform="translate(-19.71 -56.92)"/><path class="cls-2" d="M261.7,88h-5.22V86.07h12.72V88h-5.25v15.29H261.7V88Z" transform="translate(-19.71 -56.92)"/><path class="cls-2" d="M273.88,97.84l-1.78,5.4H269.8l5.84-17.17h2.68l5.86,17.17H281.8L280,97.84h-6.09Zm5.63-1.73-1.68-4.94C277.45,90,277.19,89,276.94,88h-0.05c-0.25,1-.54,2.06-0.87,3.11l-1.68,5h5.17Z" transform="translate(-19.71 -56.92)"/><path class="cls-2" d="M286.7,86.3a31.72,31.72,0,0,1,4.71-.36c3.19,0,5.45.74,7,2.14a7.91,7.91,0,0,1,2.42,6.17,9.08,9.08,0,0,1-2.47,6.68c-1.61,1.61-4.26,2.47-7.59,2.47a35.89,35.89,0,0,1-4-.2V86.3Zm2.22,15.19a14,14,0,0,0,2.24.13c4.74,0,7.31-2.65,7.31-7.29,0-4.05-2.27-6.62-7-6.62a12.55,12.55,0,0,0-2.6.23v13.56Z" transform="translate(-19.71 -56.92)"/><path class="cls-2" d="M306.45,97.84l-1.78,5.4h-2.29l5.84-17.17h2.68l5.86,17.17h-2.37l-1.83-5.4h-6.09Zm5.63-1.73-1.68-4.94C310,90,309.76,89,309.51,88h-0.05c-0.25,1-.54,2.06-0.87,3.11l-1.68,5h5.17Z" transform="translate(-19.71 -56.92)"/><path class="cls-2" d="M162.47,122.83v-1.37h5v4.34a8.75,8.75,0,0,1-2.35,1.37,7,7,0,0,1-2.49.46,6.64,6.64,0,0,1-3.13-.74,4.88,4.88,0,0,1-2.13-2.13,6.72,6.72,0,0,1-.72-3.12,7.24,7.24,0,0,1,.71-3.19,4.75,4.75,0,0,1,2.06-2.2,6.43,6.43,0,0,1,3.09-.72,6.11,6.11,0,0,1,2.29.41,3.8,3.8,0,0,1,1.61,1.15,5.08,5.08,0,0,1,.89,1.92l-1.4.38a4.33,4.33,0,0,0-.65-1.41,2.69,2.69,0,0,0-1.12-.82,4.11,4.11,0,0,0-1.61-.31,4.74,4.74,0,0,0-1.84.32,3.42,3.42,0,0,0-1.25.85,4.07,4.07,0,0,0-.74,1.16,6.13,6.13,0,0,0-.45,2.35,5.72,5.72,0,0,0,.54,2.62,3.45,3.45,0,0,0,1.57,1.56,4.85,4.85,0,0,0,2.19.51,5.2,5.2,0,0,0,2-.39,5.1,5.1,0,0,0,1.45-.83v-2.18h-3.44Z" transform="translate(-19.71 -56.92)"/><path class="cls-2" d="M175.32,124.69l1.48,0.18a3.63,3.63,0,0,1-1.3,2,4.41,4.41,0,0,1-5.38-.43,4.47,4.47,0,0,1-1.09-3.21,4.68,4.68,0,0,1,1.1-3.32,3.73,3.73,0,0,1,2.86-1.18,3.62,3.62,0,0,1,2.78,1.16,4.6,4.6,0,0,1,1.08,3.26c0,0.08,0,.21,0,0.38h-6.32a3.25,3.25,0,0,0,.79,2.14,2.35,2.35,0,0,0,1.77.74,2.2,2.2,0,0,0,1.35-.42A2.76,2.76,0,0,0,175.32,124.69Zm-4.72-2.32h4.73a2.87,2.87,0,0,0-.54-1.6,2.2,2.2,0,0,0-1.78-.83,2.28,2.28,0,0,0-1.66.66A2.62,2.62,0,0,0,170.61,122.37Z" transform="translate(-19.71 -56.92)"/><path class="cls-2" d="M178,124.89l1.42-.22a2,2,0,0,0,.67,1.31,2.33,2.33,0,0,0,1.53.46,2.25,2.25,0,0,0,1.47-.4,1.21,1.21,0,0,0,.48-0.95,0.87,0.87,0,0,0-.42-0.77,6.24,6.24,0,0,0-1.47-.49,13.35,13.35,0,0,1-2.19-.69,2.09,2.09,0,0,1-1.24-1.94,2.19,2.19,0,0,1,.26-1,2.33,2.33,0,0,1,.71-0.8,3,3,0,0,1,.91-0.42,4.35,4.35,0,0,1,1.24-.17,4.91,4.91,0,0,1,1.75.29,2.38,2.38,0,0,1,1.11.78,3,3,0,0,1,.49,1.31l-1.4.19a1.53,1.53,0,0,0-.55-1,2,2,0,0,0-1.3-.37,2.34,2.34,0,0,0-1.41.33,1,1,0,0,0-.42.77,0.79,0.79,0,0,0,.18.5,1.27,1.27,0,0,0,.55.38q0.22,0.08,1.27.37a17.56,17.56,0,0,1,2.13.67,2.16,2.16,0,0,1,.95.75,2.11,2.11,0,0,1,.34,1.23,2.41,2.41,0,0,1-.42,1.35,2.7,2.7,0,0,1-1.21,1,4.4,4.4,0,0,1-1.79.35,4,4,0,0,1-2.52-.69A3.19,3.19,0,0,1,178,124.89Z" transform="translate(-19.71 -56.92)"/><path class="cls-2" d="M189.92,126.14l0.21,1.27a5.34,5.34,0,0,1-1.09.13,2.46,2.46,0,0,1-1.21-.25,1.39,1.39,0,0,1-.61-0.65,5.14,5.14,0,0,1-.18-1.7v-4.88H186v-1.12H187v-2.1l1.43-.86v3h1.44v1.12h-1.44v5a2.51,2.51,0,0,0,.08.79,0.6,0.6,0,0,0,.25.28,1,1,0,0,0,.49.1A4.69,4.69,0,0,0,189.92,126.14Z" transform="translate(-19.71 -56.92)"/><path class="cls-2" d="M191.33,117.37v-1.65h1.44v1.65h-1.44Zm0,10v-8.48h1.44v8.48h-1.44Z" transform="translate(-19.71 -56.92)"/><path class="cls-2" d="M194.42,123.18a4.37,4.37,0,0,1,1.31-3.49,4,4,0,0,1,2.67-.94,3.8,3.8,0,0,1,2.86,1.15,4.36,4.36,0,0,1,1.11,3.16,5.61,5.61,0,0,1-.49,2.57,3.47,3.47,0,0,1-1.43,1.46,4.16,4.16,0,0,1-2,.52,3.81,3.81,0,0,1-2.88-1.14A4.56,4.56,0,0,1,194.42,123.18Zm1.48,0a3.61,3.61,0,0,0,.71,2.44,2.36,2.36,0,0,0,3.57,0,3.7,3.7,0,0,0,.71-2.48,3.5,3.5,0,0,0-.71-2.38,2.37,2.37,0,0,0-3.56,0A3.6,3.6,0,0,0,195.9,123.18Zm1.7-5.29,1.06-2.23h1.88l-1.76,2.23H197.6Z" transform="translate(-19.71 -56.92)"/><path class="cls-2" d="M204,127.42v-8.48h1.29v1.21a3,3,0,0,1,2.7-1.4,3.54,3.54,0,0,1,1.41.28,2.22,2.22,0,0,1,1,.72,2.77,2.77,0,0,1,.45,1.06,8.23,8.23,0,0,1,.08,1.4v5.21H209.5v-5.16a3.87,3.87,0,0,0-.17-1.31,1.38,1.38,0,0,0-.59-0.69,1.89,1.89,0,0,0-1-.26,2.33,2.33,0,0,0-1.58.58,2.87,2.87,0,0,0-.67,2.21v4.63H204Z" transform="translate(-19.71 -56.92)"/><path class="cls-2" d="M218.13,127.42v-11.7h1.55v11.7h-1.55Z" transform="translate(-19.71 -56.92)"/><path class="cls-2" d="M222.22,127.42v-8.48h1.29v1.21a3,3,0,0,1,2.7-1.4,3.54,3.54,0,0,1,1.41.28,2.22,2.22,0,0,1,1,.72,2.77,2.77,0,0,1,.45,1.06,8.23,8.23,0,0,1,.08,1.4v5.21h-1.44v-5.16a3.87,3.87,0,0,0-.17-1.31,1.38,1.38,0,0,0-.59-0.69,1.89,1.89,0,0,0-1-.26,2.33,2.33,0,0,0-1.58.58,2.87,2.87,0,0,0-.67,2.21v4.63h-1.44Z" transform="translate(-19.71 -56.92)"/><path class="cls-2" d="M230.74,124.89l1.42-.22a2,2,0,0,0,.67,1.31,2.33,2.33,0,0,0,1.53.46,2.25,2.25,0,0,0,1.47-.4,1.21,1.21,0,0,0,.48-0.95,0.87,0.87,0,0,0-.42-0.77,6.24,6.24,0,0,0-1.47-.49,13.35,13.35,0,0,1-2.19-.69A2.09,2.09,0,0,1,231,121.2a2.19,2.19,0,0,1,.26-1,2.33,2.33,0,0,1,.71-0.8,3,3,0,0,1,.91-0.42,4.35,4.35,0,0,1,1.24-.17,4.91,4.91,0,0,1,1.75.29,2.38,2.38,0,0,1,1.11.78,3,3,0,0,1,.49,1.31l-1.4.19a1.53,1.53,0,0,0-.55-1,2,2,0,0,0-1.3-.37,2.34,2.34,0,0,0-1.41.33,1,1,0,0,0-.42.77,0.79,0.79,0,0,0,.18.5,1.27,1.27,0,0,0,.55.38q0.22,0.08,1.27.37a17.56,17.56,0,0,1,2.13.67,2.16,2.16,0,0,1,.95.75,2.11,2.11,0,0,1,.34,1.23,2.41,2.41,0,0,1-.42,1.35,2.7,2.7,0,0,1-1.21,1,4.4,4.4,0,0,1-1.79.35,4,4,0,0,1-2.52-.69A3.19,3.19,0,0,1,230.74,124.89Z" transform="translate(-19.71 -56.92)"/><path class="cls-2" d="M242.62,126.14l0.21,1.27a5.34,5.34,0,0,1-1.09.13,2.46,2.46,0,0,1-1.21-.25,1.39,1.39,0,0,1-.61-0.65,5.14,5.14,0,0,1-.18-1.7v-4.88H238.7v-1.12h1.05v-2.1l1.43-.86v3h1.44v1.12h-1.44v5a2.51,2.51,0,0,0,.08.79,0.6,0.6,0,0,0,.25.28,1,1,0,0,0,.49.1A4.69,4.69,0,0,0,242.62,126.14Z" transform="translate(-19.71 -56.92)"/><path class="cls-2" d="M244,117.37v-1.65h1.44v1.65H244Zm0,10v-8.48h1.44v8.48H244Z" transform="translate(-19.71 -56.92)"/><path class="cls-2" d="M250.8,126.14l0.21,1.27a5.34,5.34,0,0,1-1.09.13,2.46,2.46,0,0,1-1.21-.25,1.39,1.39,0,0,1-.61-0.65,5.14,5.14,0,0,1-.18-1.7v-4.88h-1.05v-1.12h1.05v-2.1l1.43-.86v3h1.44v1.12h-1.44v5a2.51,2.51,0,0,0,.08.79,0.6,0.6,0,0,0,.25.28,1,1,0,0,0,.49.1A4.69,4.69,0,0,0,250.8,126.14Z" transform="translate(-19.71 -56.92)"/><path class="cls-2" d="M257.76,127.42v-1.25a3.1,3.1,0,0,1-2.69,1.44,3.43,3.43,0,0,1-1.4-.29,2.31,2.31,0,0,1-1-.72,2.7,2.7,0,0,1-.44-1.07,7.29,7.29,0,0,1-.09-1.34v-5.25h1.44v4.7a8.39,8.39,0,0,0,.09,1.52,1.5,1.5,0,0,0,.57.89,1.78,1.78,0,0,0,1.09.32,2.37,2.37,0,0,0,1.21-.33,1.84,1.84,0,0,0,.8-0.9,4.53,4.53,0,0,0,.24-1.66v-4.54H259v8.48h-1.28Z" transform="translate(-19.71 -56.92)"/><path class="cls-2" d="M266.82,124.32l1.41,0.18a3.66,3.66,0,0,1-1.19,2.29,3.45,3.45,0,0,1-2.34.83,3.64,3.64,0,0,1-2.8-1.14,4.61,4.61,0,0,1-1.06-3.26,5.9,5.9,0,0,1,.45-2.4,3.18,3.18,0,0,1,1.38-1.54,4.11,4.11,0,0,1,2-.51,3.52,3.52,0,0,1,2.26.7,3.2,3.2,0,0,1,1.13,2l-1.4.22a2.32,2.32,0,0,0-.71-1.29,1.83,1.83,0,0,0-1.23-.43,2.23,2.23,0,0,0-1.76.78,3.69,3.69,0,0,0-.68,2.46,3.82,3.82,0,0,0,.65,2.48,2.13,2.13,0,0,0,1.71.77,2,2,0,0,0,1.41-.52A2.57,2.57,0,0,0,266.82,124.32Z" transform="translate(-19.71 -56.92)"/><path class="cls-2" d="M269.47,117.37v-1.65h1.44v1.65h-1.44Zm0,10v-8.48h1.44v8.48h-1.44Z" transform="translate(-19.71 -56.92)"/><path class="cls-2" d="M272.56,123.18a4.37,4.37,0,0,1,1.31-3.49,4,4,0,0,1,2.67-.94,3.8,3.8,0,0,1,2.86,1.15,4.36,4.36,0,0,1,1.11,3.16,5.61,5.61,0,0,1-.49,2.57,3.47,3.47,0,0,1-1.43,1.46,4.16,4.16,0,0,1-2,.52,3.81,3.81,0,0,1-2.88-1.14A4.56,4.56,0,0,1,272.56,123.18Zm1.48,0a3.61,3.61,0,0,0,.71,2.44,2.36,2.36,0,0,0,3.57,0,3.7,3.7,0,0,0,.71-2.48,3.5,3.5,0,0,0-.71-2.38,2.37,2.37,0,0,0-3.56,0A3.6,3.6,0,0,0,274,123.18Z" transform="translate(-19.71 -56.92)"/><path class="cls-2" d="M282.19,127.42v-8.48h1.29v1.21a3,3,0,0,1,2.7-1.4,3.54,3.54,0,0,1,1.41.28,2.22,2.22,0,0,1,1,.72,2.77,2.77,0,0,1,.45,1.06,8.23,8.23,0,0,1,.08,1.4v5.21h-1.44v-5.16a3.87,3.87,0,0,0-.17-1.31,1.38,1.38,0,0,0-.59-0.69,1.89,1.89,0,0,0-1-.26,2.33,2.33,0,0,0-1.58.58,2.87,2.87,0,0,0-.67,2.21v4.63h-1.44Z" transform="translate(-19.71 -56.92)"/><path class="cls-2" d="M296.81,126.38a5.33,5.33,0,0,1-1.54,1,4.43,4.43,0,0,1-1.58.28,3.08,3.08,0,0,1-2.15-.68,2.25,2.25,0,0,1-.75-1.74,2.36,2.36,0,0,1,1-2,3.48,3.48,0,0,1,1-.47,10.32,10.32,0,0,1,1.28-.22,13.16,13.16,0,0,0,2.56-.5q0-.29,0-0.37a1.59,1.59,0,0,0-.41-1.24,2.41,2.41,0,0,0-1.64-.49,2.53,2.53,0,0,0-1.5.36,2.17,2.17,0,0,0-.71,1.26l-1.4-.19a3.48,3.48,0,0,1,.63-1.46,2.76,2.76,0,0,1,1.27-.85,5.64,5.64,0,0,1,1.92-.3,5.08,5.08,0,0,1,1.76.26,2.32,2.32,0,0,1,1,.64,2.26,2.26,0,0,1,.45,1,8.09,8.09,0,0,1,.07,1.32v1.92a20.36,20.36,0,0,0,.09,2.53,3.19,3.19,0,0,0,.36,1h-1.5A3.06,3.06,0,0,1,296.81,126.38Zm-0.12-3.21a10.56,10.56,0,0,1-2.35.54,5.42,5.42,0,0,0-1.25.29,1.25,1.25,0,0,0-.57.47,1.27,1.27,0,0,0,.24,1.64,1.87,1.87,0,0,0,1.27.38,3,3,0,0,0,1.48-.36,2.23,2.23,0,0,0,.95-1,3.47,3.47,0,0,0,.23-1.44v-0.53Z" transform="translate(-19.71 -56.92)"/><path class="cls-2" d="M300.34,127.42v-11.7h1.44v11.7h-1.44Z" transform="translate(-19.71 -56.92)"/><path class="cls-2" d="M304.38,127.42v-1.64H306v1.64a2.91,2.91,0,0,1-.32,1.46,2.08,2.08,0,0,1-1,.86l-0.4-.61a1.36,1.36,0,0,0,.67-0.59,2.5,2.5,0,0,0,.24-1.11h-0.81Z" transform="translate(-19.71 -56.92)"/><path class="cls-2" d="M313.27,127.42v-11.7h4a9.73,9.73,0,0,1,2.08.17,4,4,0,0,1,1.72.84,4.77,4.77,0,0,1,1.38,2,7.88,7.88,0,0,1,.46,2.78,8.12,8.12,0,0,1-.31,2.36,5.72,5.72,0,0,1-.8,1.7,4.22,4.22,0,0,1-1.07,1.06,4.34,4.34,0,0,1-1.4.59,8,8,0,0,1-1.88.2h-4.22Zm1.55-1.38h2.5a6,6,0,0,0,1.81-.22,2.6,2.6,0,0,0,1.05-.61,3.69,3.69,0,0,0,.86-1.48,7.23,7.23,0,0,0,.31-2.25,5.44,5.44,0,0,0-.6-2.82,3,3,0,0,0-1.46-1.32,6.06,6.06,0,0,0-2-.24h-2.46V126Z" transform="translate(-19.71 -56.92)"/><path class="cls-2" d="M324.35,123.18a4.37,4.37,0,0,1,1.31-3.49,4,4,0,0,1,2.67-.94,3.8,3.8,0,0,1,2.86,1.15,4.36,4.36,0,0,1,1.11,3.16,5.61,5.61,0,0,1-.49,2.57,3.47,3.47,0,0,1-1.43,1.46,4.16,4.16,0,0,1-2,.52,3.81,3.81,0,0,1-2.88-1.14A4.55,4.55,0,0,1,324.35,123.18Zm1.48,0a3.61,3.61,0,0,0,.71,2.44,2.36,2.36,0,0,0,3.57,0,3.7,3.7,0,0,0,.71-2.48,3.5,3.5,0,0,0-.71-2.38,2.37,2.37,0,0,0-3.56,0A3.6,3.6,0,0,0,325.83,123.18Z" transform="translate(-19.71 -56.92)"/><path class="cls-2" d="M339.51,124.32l1.41,0.18a3.66,3.66,0,0,1-1.19,2.29,3.45,3.45,0,0,1-2.34.83,3.64,3.64,0,0,1-2.8-1.14,4.61,4.61,0,0,1-1.06-3.26,5.89,5.89,0,0,1,.46-2.4,3.17,3.17,0,0,1,1.38-1.54,4.11,4.11,0,0,1,2-.51,3.52,3.52,0,0,1,2.26.7,3.21,3.21,0,0,1,1.13,2l-1.4.22a2.32,2.32,0,0,0-.71-1.29,1.83,1.83,0,0,0-1.22-.43,2.23,2.23,0,0,0-1.76.78,3.69,3.69,0,0,0-.68,2.46,3.82,3.82,0,0,0,.65,2.48,2.13,2.13,0,0,0,1.71.77,2,2,0,0,0,1.41-.52A2.58,2.58,0,0,0,339.51,124.32Z" transform="translate(-19.71 -56.92)"/><path class="cls-2" d="M348,124.69l1.48,0.18a3.63,3.63,0,0,1-1.3,2,4.41,4.41,0,0,1-5.37-.43,4.47,4.47,0,0,1-1.09-3.21,4.68,4.68,0,0,1,1.1-3.32,3.73,3.73,0,0,1,2.86-1.18,3.62,3.62,0,0,1,2.78,1.16,4.6,4.6,0,0,1,1.08,3.26c0,0.08,0,.21,0,0.38h-6.32a3.26,3.26,0,0,0,.79,2.14,2.35,2.35,0,0,0,1.77.74,2.2,2.2,0,0,0,1.35-.42A2.76,2.76,0,0,0,348,124.69Zm-4.72-2.32H348a2.87,2.87,0,0,0-.54-1.6,2.2,2.2,0,0,0-1.78-.83,2.28,2.28,0,0,0-1.66.66A2.62,2.62,0,0,0,343.24,122.37Z" transform="translate(-19.71 -56.92)"/><path class="cls-2" d="M351.24,127.42v-8.48h1.29v1.21a3,3,0,0,1,2.7-1.4,3.53,3.53,0,0,1,1.41.28,2.22,2.22,0,0,1,1,.72,2.77,2.77,0,0,1,.45,1.06,8.26,8.26,0,0,1,.08,1.4v5.21h-1.44v-5.16a3.88,3.88,0,0,0-.17-1.31,1.39,1.39,0,0,0-.59-0.69,1.89,1.89,0,0,0-1-.26,2.33,2.33,0,0,0-1.58.58,2.87,2.87,0,0,0-.67,2.21v4.63h-1.44Z" transform="translate(-19.71 -56.92)"/><path class="cls-2" d="M365.86,124.32l1.41,0.18a3.66,3.66,0,0,1-1.19,2.29,3.45,3.45,0,0,1-2.34.83,3.64,3.64,0,0,1-2.8-1.14,4.61,4.61,0,0,1-1.06-3.26,5.89,5.89,0,0,1,.46-2.4,3.17,3.17,0,0,1,1.38-1.54,4.11,4.11,0,0,1,2-.51,3.52,3.52,0,0,1,2.26.7,3.21,3.21,0,0,1,1.13,2l-1.4.22a2.32,2.32,0,0,0-.71-1.29,1.83,1.83,0,0,0-1.22-.43,2.23,2.23,0,0,0-1.76.78,3.69,3.69,0,0,0-.68,2.46,3.82,3.82,0,0,0,.65,2.48,2.13,2.13,0,0,0,1.71.77,2,2,0,0,0,1.41-.52A2.58,2.58,0,0,0,365.86,124.32Z" transform="translate(-19.71 -56.92)"/><path class="cls-2" d="M368.51,117.37v-1.65H370v1.65h-1.44Zm0,10v-8.48H370v8.48h-1.44Z" transform="translate(-19.71 -56.92)"/><path class="cls-2" d="M377.67,126.38a5.34,5.34,0,0,1-1.54,1,4.43,4.43,0,0,1-1.58.28,3.08,3.08,0,0,1-2.15-.68,2.25,2.25,0,0,1-.75-1.74,2.36,2.36,0,0,1,1-2,3.48,3.48,0,0,1,1-.47,10.35,10.35,0,0,1,1.28-.22,13.18,13.18,0,0,0,2.56-.5c0-.2,0-0.32,0-0.37a1.59,1.59,0,0,0-.41-1.24,2.41,2.41,0,0,0-1.64-.49,2.54,2.54,0,0,0-1.5.36,2.16,2.16,0,0,0-.71,1.26l-1.41-.19a3.48,3.48,0,0,1,.63-1.46,2.76,2.76,0,0,1,1.27-.85,5.64,5.64,0,0,1,1.92-.3,5.07,5.07,0,0,1,1.76.26,2.32,2.32,0,0,1,1,.64,2.27,2.27,0,0,1,.45,1A8.1,8.1,0,0,1,379,122v1.92a20.25,20.25,0,0,0,.09,2.53,3.21,3.21,0,0,0,.36,1H378A3.07,3.07,0,0,1,377.67,126.38Zm-0.12-3.21a10.56,10.56,0,0,1-2.35.54,5.41,5.41,0,0,0-1.25.29,1.25,1.25,0,0,0-.57.47,1.27,1.27,0,0,0,.24,1.64,1.87,1.87,0,0,0,1.27.38,3,3,0,0,0,1.48-.36,2.24,2.24,0,0,0,1-1,3.47,3.47,0,0,0,.23-1.44v-0.53Z" transform="translate(-19.71 -56.92)"/><path class="cls-2" d="M391.27,127.42v-1.07a2.64,2.64,0,0,1-2.37,1.26,3.33,3.33,0,0,1-1.86-.56,3.67,3.67,0,0,1-1.32-1.56,5.39,5.39,0,0,1-.47-2.3,6,6,0,0,1,.42-2.3,3.34,3.34,0,0,1,1.27-1.58,3.39,3.39,0,0,1,1.89-.55,2.82,2.82,0,0,1,1.36.32,2.85,2.85,0,0,1,1,.84v-4.2h1.43v11.7h-1.33Zm-4.54-4.23a3.68,3.68,0,0,0,.69,2.43,2.07,2.07,0,0,0,1.62.81,2,2,0,0,0,1.6-.77,3.55,3.55,0,0,0,.66-2.35,4,4,0,0,0-.67-2.55,2.06,2.06,0,0,0-1.65-.81,2,2,0,0,0-1.6.78A3.86,3.86,0,0,0,386.73,123.19Z" transform="translate(-19.71 -56.92)"/><path class="cls-2" d="M400.66,124.69l1.48,0.18a3.63,3.63,0,0,1-1.3,2,4.41,4.41,0,0,1-5.37-.43,4.47,4.47,0,0,1-1.09-3.21,4.68,4.68,0,0,1,1.1-3.32,3.73,3.73,0,0,1,2.86-1.18,3.62,3.62,0,0,1,2.78,1.16,4.6,4.6,0,0,1,1.08,3.26c0,0.08,0,.21,0,0.38h-6.32a3.26,3.26,0,0,0,.79,2.14,2.35,2.35,0,0,0,1.77.74,2.2,2.2,0,0,0,1.35-.42A2.76,2.76,0,0,0,400.66,124.69Zm-4.72-2.32h4.73a2.87,2.87,0,0,0-.54-1.6,2.2,2.2,0,0,0-1.78-.83,2.28,2.28,0,0,0-1.66.66A2.62,2.62,0,0,0,395.95,122.37Z" transform="translate(-19.71 -56.92)"/><path class="cls-2" d="M408.68,127.42v-11.7h4.41a10.58,10.58,0,0,1,1.78.11,3.52,3.52,0,0,1,1.44.55,2.86,2.86,0,0,1,.94,1.13,3.81,3.81,0,0,1-.59,4.12,4.55,4.55,0,0,1-3.43,1h-3v4.76h-1.55Zm1.55-6.14h3a3.21,3.21,0,0,0,2.13-.56,2,2,0,0,0,.63-1.57,2.11,2.11,0,0,0-.37-1.26,1.74,1.74,0,0,0-1-.69,6.67,6.67,0,0,0-1.44-.1h-3v4.18Z" transform="translate(-19.71 -56.92)"/><path class="cls-2" d="M419.38,127.42v-8.48h1.29v1.29a3.51,3.51,0,0,1,.91-1.19,1.6,1.6,0,0,1,.92-0.29,2.8,2.8,0,0,1,1.48.46l-0.5,1.33a2.05,2.05,0,0,0-1.05-.31,1.37,1.37,0,0,0-.85.28,1.54,1.54,0,0,0-.54.79,5.62,5.62,0,0,0-.24,1.68v4.44h-1.44Z" transform="translate(-19.71 -56.92)"/><path class="cls-2" d="M430.64,124.69l1.48,0.18a3.63,3.63,0,0,1-1.3,2,4.41,4.41,0,0,1-5.37-.43,4.47,4.47,0,0,1-1.09-3.21,4.68,4.68,0,0,1,1.1-3.32,3.73,3.73,0,0,1,2.86-1.18,3.62,3.62,0,0,1,2.78,1.16,4.6,4.6,0,0,1,1.08,3.26c0,0.08,0,.21,0,0.38h-6.32a3.26,3.26,0,0,0,.79,2.14,2.35,2.35,0,0,0,1.77.74,2.2,2.2,0,0,0,1.35-.42A2.76,2.76,0,0,0,430.64,124.69Zm-4.72-2.32h4.73a2.87,2.87,0,0,0-.54-1.6,2.2,2.2,0,0,0-1.78-.83,2.28,2.28,0,0,0-1.66.66A2.62,2.62,0,0,0,425.92,122.37Z" transform="translate(-19.71 -56.92)"/><path class="cls-2" d="M433.67,128.12l1.4,0.21a1.33,1.33,0,0,0,.49.94,2.39,2.39,0,0,0,1.46.4,2.56,2.56,0,0,0,1.54-.4,2,2,0,0,0,.73-1.12,9.14,9.14,0,0,0,.1-1.84,3,3,0,0,1-2.35,1.11,3.2,3.2,0,0,1-2.71-1.26,4.86,4.86,0,0,1-1-3,5.62,5.62,0,0,1,.44-2.24,3.51,3.51,0,0,1,1.27-1.58,3.44,3.44,0,0,1,2-.56,3,3,0,0,1,2.47,1.21v-1h1.32v7.33a7,7,0,0,1-.4,2.81,3,3,0,0,1-1.28,1.3,4.43,4.43,0,0,1-2.15.48,4.06,4.06,0,0,1-2.45-.68A2.31,2.31,0,0,1,433.67,128.12Zm1.19-5.09a3.67,3.67,0,0,0,.66,2.43,2.1,2.1,0,0,0,1.66.77,2.13,2.13,0,0,0,1.66-.76,3.56,3.56,0,0,0,.67-2.39,3.47,3.47,0,0,0-.69-2.35,2.14,2.14,0,0,0-1.66-.79,2.07,2.07,0,0,0-1.63.78A3.45,3.45,0,0,0,434.86,123Z" transform="translate(-19.71 -56.92)"/><path class="cls-2" d="M443,127.42v-8.48h1.29v1.29a3.51,3.51,0,0,1,.91-1.19,1.6,1.6,0,0,1,.92-0.29,2.8,2.8,0,0,1,1.48.46l-0.5,1.33a2.05,2.05,0,0,0-1.05-.31,1.37,1.37,0,0,0-.85.28,1.54,1.54,0,0,0-.54.79,5.62,5.62,0,0,0-.24,1.68v4.44H443Z" transform="translate(-19.71 -56.92)"/><path class="cls-2" d="M454,126.38a5.34,5.34,0,0,1-1.54,1,4.43,4.43,0,0,1-1.58.28,3.08,3.08,0,0,1-2.15-.68,2.25,2.25,0,0,1-.75-1.74,2.36,2.36,0,0,1,1-2,3.48,3.48,0,0,1,1-.47,10.35,10.35,0,0,1,1.28-.22,13.18,13.18,0,0,0,2.56-.5c0-.2,0-0.32,0-0.37a1.59,1.59,0,0,0-.41-1.24,2.41,2.41,0,0,0-1.64-.49,2.54,2.54,0,0,0-1.5.36,2.16,2.16,0,0,0-.71,1.26l-1.41-.19a3.48,3.48,0,0,1,.63-1.46,2.76,2.76,0,0,1,1.27-.85,5.64,5.64,0,0,1,1.92-.3,5.07,5.07,0,0,1,1.76.26,2.32,2.32,0,0,1,1,.64,2.27,2.27,0,0,1,.45,1,8.1,8.1,0,0,1,.07,1.32v1.92a20.25,20.25,0,0,0,.09,2.53,3.21,3.21,0,0,0,.36,1h-1.5A3.07,3.07,0,0,1,454,126.38Zm-0.12-3.21a10.56,10.56,0,0,1-2.35.54,5.41,5.41,0,0,0-1.25.29,1.25,1.25,0,0,0-.57.47,1.27,1.27,0,0,0,.24,1.64,1.87,1.87,0,0,0,1.27.38,3,3,0,0,0,1.48-.36,2.24,2.24,0,0,0,1-1,3.47,3.47,0,0,0,.23-1.44v-0.53Z" transform="translate(-19.71 -56.92)"/><path class="cls-2" d="M463.05,127.42v-1.07a2.64,2.64,0,0,1-2.37,1.26,3.33,3.33,0,0,1-1.86-.56,3.67,3.67,0,0,1-1.32-1.56,5.39,5.39,0,0,1-.47-2.3,6,6,0,0,1,.42-2.3,3.34,3.34,0,0,1,1.27-1.58,3.39,3.39,0,0,1,1.89-.55,2.82,2.82,0,0,1,1.36.32,2.85,2.85,0,0,1,1,.84v-4.2h1.43v11.7h-1.33Zm-4.54-4.23a3.68,3.68,0,0,0,.69,2.43,2.07,2.07,0,0,0,1.62.81,2,2,0,0,0,1.6-.77,3.55,3.55,0,0,0,.66-2.35,4,4,0,0,0-.67-2.55,2.06,2.06,0,0,0-1.65-.81,2,2,0,0,0-1.6.78A3.86,3.86,0,0,0,458.51,123.19Z" transform="translate(-19.71 -56.92)"/><g class="cls-3"><text class="cls-4" transform="translate(445.66 70.51)">o</text></g><path class="cls-2" d="M157.25,146.5V134.8h1.55v11.7h-1.55Z" transform="translate(-19.71 -56.92)"/><path class="cls-2" d="M161.35,146.5V138h1.29v1.21a3,3,0,0,1,2.7-1.4,3.54,3.54,0,0,1,1.41.28,2.22,2.22,0,0,1,1,.72,2.77,2.77,0,0,1,.45,1.06,8.23,8.23,0,0,1,.08,1.4v5.21H166.8v-5.16a3.87,3.87,0,0,0-.17-1.31,1.38,1.38,0,0,0-.59-0.69,1.89,1.89,0,0,0-1-.26,2.33,2.33,0,0,0-1.58.58,2.87,2.87,0,0,0-.67,2.21v4.63h-1.44Z" transform="translate(-19.71 -56.92)"/><path class="cls-2" d="M172.79,146.5L169.57,138h1.52l1.82,5.08q0.3,0.82.54,1.71,0.19-.67.53-1.61l1.88-5.17h1.48l-3.21,8.48h-1.34Z" transform="translate(-19.71 -56.92)"/><path class="cls-2" d="M184.41,143.77L185.9,144a3.63,3.63,0,0,1-1.3,2,4.41,4.41,0,0,1-5.38-.43,4.47,4.47,0,0,1-1.09-3.21,4.68,4.68,0,0,1,1.1-3.32,3.73,3.73,0,0,1,2.86-1.18,3.62,3.62,0,0,1,2.78,1.16,4.6,4.6,0,0,1,1.08,3.26c0,0.08,0,.21,0,0.38h-6.32a3.25,3.25,0,0,0,.79,2.14,2.35,2.35,0,0,0,1.77.74,2.2,2.2,0,0,0,1.35-.42A2.76,2.76,0,0,0,184.41,143.77Zm-4.72-2.32h4.73a2.87,2.87,0,0,0-.54-1.6,2.2,2.2,0,0,0-1.78-.83,2.28,2.28,0,0,0-1.66.66A2.62,2.62,0,0,0,179.7,141.45Z" transform="translate(-19.71 -56.92)"/><path class="cls-2" d="M187.13,144l1.42-.22a2,2,0,0,0,.67,1.31,2.33,2.33,0,0,0,1.53.46,2.25,2.25,0,0,0,1.47-.4,1.21,1.21,0,0,0,.48-0.95,0.87,0.87,0,0,0-.42-0.77,6.24,6.24,0,0,0-1.47-.49,13.35,13.35,0,0,1-2.19-.69,2.09,2.09,0,0,1-1.24-1.94,2.19,2.19,0,0,1,.26-1,2.33,2.33,0,0,1,.71-0.8,3,3,0,0,1,.91-0.42,4.35,4.35,0,0,1,1.24-.17,4.91,4.91,0,0,1,1.75.29,2.38,2.38,0,0,1,1.11.78,3,3,0,0,1,.49,1.31l-1.4.19a1.53,1.53,0,0,0-.55-1,2,2,0,0,0-1.3-.37,2.34,2.34,0,0,0-1.41.33,1,1,0,0,0-.42.77,0.79,0.79,0,0,0,.18.5,1.27,1.27,0,0,0,.55.38q0.22,0.08,1.27.37a17.56,17.56,0,0,1,2.13.67,2.16,2.16,0,0,1,.95.75,2.11,2.11,0,0,1,.34,1.23,2.41,2.41,0,0,1-.42,1.35,2.7,2.7,0,0,1-1.21,1,4.4,4.4,0,0,1-1.79.35,4,4,0,0,1-2.52-.69A3.19,3.19,0,0,1,187.13,144Z" transform="translate(-19.71 -56.92)"/><path class="cls-2" d="M199,145.21l0.21,1.27a5.34,5.34,0,0,1-1.09.13,2.46,2.46,0,0,1-1.21-.25,1.39,1.39,0,0,1-.61-0.65,5.14,5.14,0,0,1-.18-1.7v-4.88h-1.05V138h1.05v-2.1l1.43-.86v3H199v1.12h-1.44v5a2.51,2.51,0,0,0,.08.79,0.6,0.6,0,0,0,.25.28,1,1,0,0,0,.49.1A4.69,4.69,0,0,0,199,145.21Z" transform="translate(-19.71 -56.92)"/><path class="cls-2" d="M200.42,136.45V134.8h1.44v1.65h-1.44Zm0,10V138h1.44v8.48h-1.44Z" transform="translate(-19.71 -56.92)"/><path class="cls-2" d="M203.79,147.2l1.4,0.21a1.33,1.33,0,0,0,.49.94,2.39,2.39,0,0,0,1.46.4,2.56,2.56,0,0,0,1.54-.4,2,2,0,0,0,.73-1.12,9.2,9.2,0,0,0,.1-1.84,3,3,0,0,1-2.35,1.11,3.2,3.2,0,0,1-2.71-1.26,4.86,4.86,0,0,1-1-3,5.62,5.62,0,0,1,.44-2.24,3.51,3.51,0,0,1,1.27-1.58,3.44,3.44,0,0,1,2-.56,3,3,0,0,1,2.47,1.21v-1H211v7.33a7,7,0,0,1-.4,2.81,3,3,0,0,1-1.28,1.3,4.42,4.42,0,0,1-2.15.48,4.06,4.06,0,0,1-2.45-.68A2.31,2.31,0,0,1,203.79,147.2Zm1.19-5.09a3.68,3.68,0,0,0,.66,2.43,2.19,2.19,0,0,0,3.32,0,3.56,3.56,0,0,0,.67-2.39,3.48,3.48,0,0,0-.69-2.35,2.14,2.14,0,0,0-1.66-.79,2.07,2.07,0,0,0-1.63.78A3.46,3.46,0,0,0,205,142.11Z" transform="translate(-19.71 -56.92)"/><path class="cls-2" d="M218.67,145.45a5.33,5.33,0,0,1-1.54,1,4.43,4.43,0,0,1-1.58.28,3.08,3.08,0,0,1-2.15-.68,2.25,2.25,0,0,1-.75-1.74,2.36,2.36,0,0,1,1-2,3.48,3.48,0,0,1,1-.47,10.32,10.32,0,0,1,1.28-.22,13.16,13.16,0,0,0,2.56-.5q0-.29,0-0.37a1.59,1.59,0,0,0-.41-1.24,2.41,2.41,0,0,0-1.64-.49,2.53,2.53,0,0,0-1.5.36,2.17,2.17,0,0,0-.71,1.26l-1.4-.19a3.48,3.48,0,0,1,.63-1.46,2.76,2.76,0,0,1,1.27-.85,5.64,5.64,0,0,1,1.92-.3,5.08,5.08,0,0,1,1.76.26,2.32,2.32,0,0,1,1,.64,2.26,2.26,0,0,1,.45,1A8.09,8.09,0,0,1,220,141v1.92a20.36,20.36,0,0,0,.09,2.53,3.19,3.19,0,0,0,.36,1H219A3.06,3.06,0,0,1,218.67,145.45Zm-0.12-3.21a10.56,10.56,0,0,1-2.35.54,5.42,5.42,0,0,0-1.25.29,1.25,1.25,0,0,0-.57.47,1.27,1.27,0,0,0,.24,1.64,1.87,1.87,0,0,0,1.27.38,3,3,0,0,0,1.48-.36,2.23,2.23,0,0,0,.95-1,3.47,3.47,0,0,0,.23-1.44v-0.53Z" transform="translate(-19.71 -56.92)"/><path class="cls-2" d="M227.76,143.39l1.41,0.18a3.66,3.66,0,0,1-1.19,2.29,3.45,3.45,0,0,1-2.34.83,3.64,3.64,0,0,1-2.8-1.14,4.61,4.61,0,0,1-1.06-3.26,5.9,5.9,0,0,1,.45-2.4,3.18,3.18,0,0,1,1.38-1.54,4.11,4.11,0,0,1,2-.51,3.52,3.52,0,0,1,2.26.7,3.2,3.2,0,0,1,1.13,2l-1.4.22a2.32,2.32,0,0,0-.71-1.29,1.83,1.83,0,0,0-1.23-.43,2.23,2.23,0,0,0-1.76.78,3.69,3.69,0,0,0-.68,2.46,3.82,3.82,0,0,0,.65,2.48,2.13,2.13,0,0,0,1.71.77A2,2,0,0,0,227,145,2.57,2.57,0,0,0,227.76,143.39Z" transform="translate(-19.71 -56.92)"/><path class="cls-2" d="M230.41,136.45V134.8h1.44v1.65h-1.44Zm0,10V138h1.44v8.48h-1.44Z" transform="translate(-19.71 -56.92)"/><path class="cls-2" d="M233.5,142.26a4.37,4.37,0,0,1,1.31-3.49,4,4,0,0,1,2.67-.94,3.8,3.8,0,0,1,2.86,1.15,4.36,4.36,0,0,1,1.11,3.16,5.61,5.61,0,0,1-.49,2.57,3.47,3.47,0,0,1-1.43,1.46,4.16,4.16,0,0,1-2,.52,3.81,3.81,0,0,1-2.88-1.14A4.56,4.56,0,0,1,233.5,142.26Zm1.48,0a3.61,3.61,0,0,0,.71,2.44,2.36,2.36,0,0,0,3.57,0,3.7,3.7,0,0,0,.71-2.48,3.5,3.5,0,0,0-.71-2.38,2.37,2.37,0,0,0-3.56,0A3.6,3.6,0,0,0,235,142.26Zm1.7-5.29,1.06-2.23h1.88L237.87,137h-1.19Z" transform="translate(-19.71 -56.92)"/><path class="cls-2" d="M243.13,146.5V138h1.29v1.21a3,3,0,0,1,2.7-1.4,3.54,3.54,0,0,1,1.41.28,2.22,2.22,0,0,1,1,.72,2.77,2.77,0,0,1,.45,1.06,8.23,8.23,0,0,1,.08,1.4v5.21h-1.44v-5.16a3.87,3.87,0,0,0-.17-1.31,1.38,1.38,0,0,0-.59-0.69,1.89,1.89,0,0,0-1-.26,2.33,2.33,0,0,0-1.58.58,2.87,2.87,0,0,0-.67,2.21v4.63h-1.44Z" transform="translate(-19.71 -56.92)"/><path class="cls-2" d="M252.59,146.5v-1.64h1.64v1.64a2.91,2.91,0,0,1-.32,1.46,2.08,2.08,0,0,1-1,.86l-0.4-.61a1.36,1.36,0,0,0,.67-0.59,2.5,2.5,0,0,0,.24-1.11h-0.81Z" transform="translate(-19.71 -56.92)"/><path class="cls-2" d="M264.83,146.5l-4.53-11.7H262l3,8.5q0.37,1,.61,1.92,0.27-1,.63-1.92l3.16-8.5H271l-4.58,11.7h-1.59Z" transform="translate(-19.71 -56.92)"/><path class="cls-2" d="M271.94,136.45V134.8h1.44v1.65h-1.44Zm0,10V138h1.44v8.48h-1.44Z" transform="translate(-19.71 -56.92)"/><path class="cls-2" d="M275.56,146.5V138h1.29v1.21a3,3,0,0,1,2.7-1.4,3.54,3.54,0,0,1,1.41.28,2.22,2.22,0,0,1,1,.72,2.77,2.77,0,0,1,.45,1.06,8.23,8.23,0,0,1,.08,1.4v5.21H281v-5.16a3.87,3.87,0,0,0-.17-1.31,1.38,1.38,0,0,0-.59-0.69,1.89,1.89,0,0,0-1-.26,2.33,2.33,0,0,0-1.58.58,2.87,2.87,0,0,0-.67,2.21v4.63h-1.44Z" transform="translate(-19.71 -56.92)"/><path class="cls-2" d="M290.18,143.39l1.41,0.18a3.66,3.66,0,0,1-1.19,2.29,3.45,3.45,0,0,1-2.34.83,3.64,3.64,0,0,1-2.8-1.14,4.61,4.61,0,0,1-1.06-3.26,5.9,5.9,0,0,1,.45-2.4,3.18,3.18,0,0,1,1.38-1.54,4.11,4.11,0,0,1,2-.51,3.52,3.52,0,0,1,2.26.7,3.2,3.2,0,0,1,1.13,2l-1.4.22a2.32,2.32,0,0,0-.71-1.29,1.83,1.83,0,0,0-1.23-.43,2.23,2.23,0,0,0-1.76.78,3.69,3.69,0,0,0-.68,2.46,3.82,3.82,0,0,0,.65,2.48,2.13,2.13,0,0,0,1.71.77,2,2,0,0,0,1.41-.52A2.57,2.57,0,0,0,290.18,143.39Z" transform="translate(-19.71 -56.92)"/><path class="cls-2" d="M298.38,146.5v-1.25a3.1,3.1,0,0,1-2.69,1.44,3.43,3.43,0,0,1-1.4-.29,2.31,2.31,0,0,1-1-.72,2.7,2.7,0,0,1-.44-1.07,7.29,7.29,0,0,1-.09-1.34V138h1.44v4.7a8.39,8.39,0,0,0,.09,1.52,1.5,1.5,0,0,0,.57.89,1.78,1.78,0,0,0,1.09.32,2.37,2.37,0,0,0,1.21-.33,1.84,1.84,0,0,0,.8-0.9,4.53,4.53,0,0,0,.24-1.66V138h1.44v8.48h-1.28Z" transform="translate(-19.71 -56.92)"/><path class="cls-2" d="M301.89,146.5V134.8h1.44v11.7h-1.44Z" transform="translate(-19.71 -56.92)"/><path class="cls-2" d="M311.08,145.45a5.33,5.33,0,0,1-1.54,1,4.43,4.43,0,0,1-1.58.28,3.08,3.08,0,0,1-2.15-.68,2.25,2.25,0,0,1-.75-1.74,2.36,2.36,0,0,1,1-2,3.48,3.48,0,0,1,1-.47,10.32,10.32,0,0,1,1.28-.22,13.16,13.16,0,0,0,2.56-.5q0-.29,0-0.37a1.59,1.59,0,0,0-.41-1.24,2.41,2.41,0,0,0-1.64-.49,2.53,2.53,0,0,0-1.5.36,2.17,2.17,0,0,0-.71,1.26l-1.4-.19a3.48,3.48,0,0,1,.63-1.46,2.76,2.76,0,0,1,1.27-.85,5.64,5.64,0,0,1,1.92-.3,5.08,5.08,0,0,1,1.76.26,2.32,2.32,0,0,1,1,.64,2.24,2.24,0,0,1,.45,1,8,8,0,0,1,.07,1.32v1.92a20.46,20.46,0,0,0,.09,2.53,3.21,3.21,0,0,0,.36,1h-1.5A3.06,3.06,0,0,1,311.08,145.45ZM311,142.24a10.56,10.56,0,0,1-2.35.54,5.42,5.42,0,0,0-1.25.29,1.25,1.25,0,0,0-.57.47,1.27,1.27,0,0,0,.24,1.64,1.87,1.87,0,0,0,1.27.38,3,3,0,0,0,1.48-.36,2.23,2.23,0,0,0,.95-1,3.47,3.47,0,0,0,.23-1.44v-0.53Z" transform="translate(-19.71 -56.92)"/><path class="cls-2" d="M320.17,143.39l1.41,0.18a3.66,3.66,0,0,1-1.19,2.29,3.45,3.45,0,0,1-2.34.83,3.64,3.64,0,0,1-2.8-1.14,4.61,4.61,0,0,1-1.06-3.26,5.89,5.89,0,0,1,.46-2.4,3.17,3.17,0,0,1,1.38-1.54,4.11,4.11,0,0,1,2-.51,3.52,3.52,0,0,1,2.26.7,3.21,3.21,0,0,1,1.13,2l-1.4.22a2.32,2.32,0,0,0-.71-1.29,1.83,1.83,0,0,0-1.22-.43,2.23,2.23,0,0,0-1.76.78,3.69,3.69,0,0,0-.68,2.46,3.82,3.82,0,0,0,.65,2.48,2.13,2.13,0,0,0,1.71.77,2,2,0,0,0,1.41-.52A2.58,2.58,0,0,0,320.17,143.39Z" transform="translate(-19.71 -56.92)"/><path class="cls-2" d="M322.82,136.45V134.8h1.44v1.65h-1.44Zm0,10V138h1.44v8.48h-1.44Z" transform="translate(-19.71 -56.92)"/><path class="cls-2" d="M325.91,142.26a4.37,4.37,0,0,1,1.31-3.49,4,4,0,0,1,2.67-.94,3.8,3.8,0,0,1,2.86,1.15,4.36,4.36,0,0,1,1.11,3.16,5.61,5.61,0,0,1-.49,2.57,3.47,3.47,0,0,1-1.43,1.46,4.16,4.16,0,0,1-2,.52,3.81,3.81,0,0,1-2.88-1.14A4.55,4.55,0,0,1,325.91,142.26Zm1.48,0a3.61,3.61,0,0,0,.71,2.44,2.36,2.36,0,0,0,3.57,0,3.7,3.7,0,0,0,.71-2.48,3.5,3.5,0,0,0-.71-2.38,2.37,2.37,0,0,0-3.56,0A3.6,3.6,0,0,0,327.39,142.26Zm1.7-5.29,1.06-2.23H332L330.28,137h-1.19Z" transform="translate(-19.71 -56.92)"/><path class="cls-2" d="M335.54,146.5V138h1.29v1.21a3,3,0,0,1,2.7-1.4,3.53,3.53,0,0,1,1.41.28,2.22,2.22,0,0,1,1,.72,2.77,2.77,0,0,1,.45,1.06,8.26,8.26,0,0,1,.08,1.4v5.21H341v-5.16a3.88,3.88,0,0,0-.17-1.31,1.39,1.39,0,0,0-.59-0.69,1.89,1.89,0,0,0-1-.26,2.33,2.33,0,0,0-1.58.58,2.87,2.87,0,0,0-.67,2.21v4.63h-1.44Z" transform="translate(-19.71 -56.92)"/><path class="cls-2" d="M354.7,143.39l1.41,0.18a3.66,3.66,0,0,1-1.19,2.29,3.45,3.45,0,0,1-2.34.83,3.64,3.64,0,0,1-2.8-1.14,4.61,4.61,0,0,1-1.06-3.26,5.89,5.89,0,0,1,.46-2.4,3.17,3.17,0,0,1,1.38-1.54,4.11,4.11,0,0,1,2-.51,3.52,3.52,0,0,1,2.26.7,3.21,3.21,0,0,1,1.13,2l-1.4.22a2.32,2.32,0,0,0-.71-1.29,1.83,1.83,0,0,0-1.22-.43,2.23,2.23,0,0,0-1.76.78,3.69,3.69,0,0,0-.68,2.46,3.82,3.82,0,0,0,.65,2.48,2.13,2.13,0,0,0,1.71.77A2,2,0,0,0,354,145,2.58,2.58,0,0,0,354.7,143.39Z" transform="translate(-19.71 -56.92)"/><path class="cls-2" d="M356.81,142.26a4.37,4.37,0,0,1,1.31-3.49,4,4,0,0,1,2.67-.94,3.8,3.8,0,0,1,2.86,1.15,4.36,4.36,0,0,1,1.11,3.16,5.61,5.61,0,0,1-.49,2.57,3.47,3.47,0,0,1-1.43,1.46,4.16,4.16,0,0,1-2,.52,3.81,3.81,0,0,1-2.88-1.14A4.55,4.55,0,0,1,356.81,142.26Zm1.48,0a3.61,3.61,0,0,0,.71,2.44,2.36,2.36,0,0,0,3.57,0,3.7,3.7,0,0,0,.71-2.48,3.5,3.5,0,0,0-.71-2.38,2.37,2.37,0,0,0-3.56,0A3.6,3.6,0,0,0,358.28,142.26Z" transform="translate(-19.71 -56.92)"/><path class="cls-2" d="M366.43,146.5V138h1.29v1.21a3,3,0,0,1,2.7-1.4,3.53,3.53,0,0,1,1.41.28,2.22,2.22,0,0,1,1,.72,2.77,2.77,0,0,1,.45,1.06,8.26,8.26,0,0,1,.08,1.4v5.21h-1.44v-5.16a3.88,3.88,0,0,0-.17-1.31,1.39,1.39,0,0,0-.59-0.69,1.89,1.89,0,0,0-1-.26,2.33,2.33,0,0,0-1.58.58,2.87,2.87,0,0,0-.67,2.21v4.63h-1.44Z" transform="translate(-19.71 -56.92)"/><path class="cls-2" d="M385.87,143.77l1.48,0.18a3.63,3.63,0,0,1-1.3,2,4.41,4.41,0,0,1-5.37-.43,4.47,4.47,0,0,1-1.09-3.21,4.68,4.68,0,0,1,1.1-3.32,3.73,3.73,0,0,1,2.86-1.18,3.62,3.62,0,0,1,2.78,1.16,4.6,4.6,0,0,1,1.08,3.26c0,0.08,0,.21,0,0.38h-6.32a3.26,3.26,0,0,0,.79,2.14,2.35,2.35,0,0,0,1.77.74,2.2,2.2,0,0,0,1.35-.42A2.76,2.76,0,0,0,385.87,143.77Zm-4.72-2.32h4.73a2.87,2.87,0,0,0-.54-1.6,2.2,2.2,0,0,0-1.78-.83,2.28,2.28,0,0,0-1.66.66A2.62,2.62,0,0,0,381.15,141.45Z" transform="translate(-19.71 -56.92)"/><path class="cls-2" d="M389.12,146.5V134.8h1.44v11.7h-1.44Z" transform="translate(-19.71 -56.92)"/><path class="cls-2" d="M397.33,146.5V138h1.29v1.19a3,3,0,0,1,1.06-1,3,3,0,0,1,1.51-.38,2.79,2.79,0,0,1,1.54.39,2.09,2.09,0,0,1,.85,1.09,3,3,0,0,1,2.62-1.48,2.58,2.58,0,0,1,1.94.7,3,3,0,0,1,.68,2.15v5.82h-1.43v-5.34a3.92,3.92,0,0,0-.14-1.24,1.2,1.2,0,0,0-.51-0.61,1.58,1.58,0,0,0-.86-0.23,2,2,0,0,0-1.49.59,2.62,2.62,0,0,0-.59,1.9v4.92h-1.44V141a2.42,2.42,0,0,0-.35-1.44,1.33,1.33,0,0,0-1.15-.48,2.09,2.09,0,0,0-1.12.32,1.8,1.8,0,0,0-.75.93,5.23,5.23,0,0,0-.23,1.77v4.4h-1.44Z" transform="translate(-19.71 -56.92)"/><path class="cls-2" d="M416.75,143.77l1.48,0.18a3.63,3.63,0,0,1-1.3,2,4.41,4.41,0,0,1-5.37-.43,4.47,4.47,0,0,1-1.09-3.21,4.68,4.68,0,0,1,1.1-3.32,3.73,3.73,0,0,1,2.86-1.18A3.62,3.62,0,0,1,417.2,139a4.6,4.6,0,0,1,1.08,3.26c0,0.08,0,.21,0,0.38h-6.32a3.26,3.26,0,0,0,.79,2.14,2.35,2.35,0,0,0,1.77.74,2.2,2.2,0,0,0,1.35-.42A2.76,2.76,0,0,0,416.75,143.77ZM412,141.45h4.73a2.87,2.87,0,0,0-.54-1.6,2.2,2.2,0,0,0-1.78-.83,2.28,2.28,0,0,0-1.66.66A2.62,2.62,0,0,0,412,141.45Z" transform="translate(-19.71 -56.92)"/><path class="cls-2" d="M425.53,146.5v-1.07a2.64,2.64,0,0,1-2.37,1.26,3.33,3.33,0,0,1-1.86-.56,3.67,3.67,0,0,1-1.32-1.56,5.39,5.39,0,0,1-.47-2.3,6,6,0,0,1,.42-2.3,3.34,3.34,0,0,1,1.27-1.58,3.39,3.39,0,0,1,1.89-.55,2.82,2.82,0,0,1,1.36.32,2.85,2.85,0,0,1,1,.84v-4.2h1.43v11.7h-1.33ZM421,142.27a3.68,3.68,0,0,0,.69,2.43,2.07,2.07,0,0,0,1.62.81,2,2,0,0,0,1.6-.77,3.55,3.55,0,0,0,.66-2.35,4,4,0,0,0-.67-2.55,2.06,2.06,0,0,0-1.65-.81,2,2,0,0,0-1.6.78A3.86,3.86,0,0,0,421,142.27Z" transform="translate(-19.71 -56.92)"/><path class="cls-2" d="M429.13,136.45V134.8h1.44v1.65h-1.44Zm0,10V138h1.44v8.48h-1.44Z" transform="translate(-19.71 -56.92)"/><text class="cls-4" transform="translate(411.86 89.58)">o</text><path class="cls-2" d="M157,165.57v-11.7h4a9.74,9.74,0,0,1,2.08.17,4,4,0,0,1,1.72.84,4.77,4.77,0,0,1,1.38,2,7.85,7.85,0,0,1,.46,2.78,8.17,8.17,0,0,1-.31,2.36,5.73,5.73,0,0,1-.8,1.7,4.24,4.24,0,0,1-1.07,1.06,4.34,4.34,0,0,1-1.4.59,8,8,0,0,1-1.88.2H157Zm1.55-1.38h2.5a6.07,6.07,0,0,0,1.82-.22,2.6,2.6,0,0,0,1-.61,3.69,3.69,0,0,0,.86-1.48,7.23,7.23,0,0,0,.31-2.25,5.45,5.45,0,0,0-.6-2.82,3,3,0,0,0-1.46-1.32,6.07,6.07,0,0,0-2-.24h-2.46v8.94Z" transform="translate(-19.71 -56.92)"/><path class="cls-2" d="M168.1,161.34a4.37,4.37,0,0,1,1.31-3.49,4,4,0,0,1,2.67-.94,3.8,3.8,0,0,1,2.86,1.15,4.36,4.36,0,0,1,1.11,3.16,5.61,5.61,0,0,1-.49,2.57,3.47,3.47,0,0,1-1.43,1.46,4.16,4.16,0,0,1-2,.52,3.81,3.81,0,0,1-2.88-1.14A4.56,4.56,0,0,1,168.1,161.34Zm1.48,0a3.61,3.61,0,0,0,.71,2.44,2.36,2.36,0,0,0,3.57,0,3.7,3.7,0,0,0,.71-2.48,3.5,3.5,0,0,0-.71-2.38,2.37,2.37,0,0,0-3.56,0A3.6,3.6,0,0,0,169.57,161.34Z" transform="translate(-19.71 -56.92)"/><path class="cls-2" d="M183.25,162.47l1.41,0.18a3.66,3.66,0,0,1-1.19,2.29,3.45,3.45,0,0,1-2.34.83,3.64,3.64,0,0,1-2.8-1.14,4.61,4.61,0,0,1-1.06-3.26,5.9,5.9,0,0,1,.45-2.4,3.18,3.18,0,0,1,1.38-1.54,4.11,4.11,0,0,1,2-.51,3.52,3.52,0,0,1,2.26.7,3.2,3.2,0,0,1,1.13,2l-1.4.22a2.32,2.32,0,0,0-.71-1.29,1.83,1.83,0,0,0-1.23-.43,2.23,2.23,0,0,0-1.76.78,3.69,3.69,0,0,0-.68,2.46,3.82,3.82,0,0,0,.65,2.48,2.13,2.13,0,0,0,1.71.77,2,2,0,0,0,1.41-.52A2.57,2.57,0,0,0,183.25,162.47Z" transform="translate(-19.71 -56.92)"/><path class="cls-2" d="M191.7,162.84l1.48,0.18a3.63,3.63,0,0,1-1.3,2,4.41,4.41,0,0,1-5.38-.43,4.47,4.47,0,0,1-1.09-3.21,4.68,4.68,0,0,1,1.1-3.32,3.73,3.73,0,0,1,2.86-1.18,3.62,3.62,0,0,1,2.78,1.16,4.6,4.6,0,0,1,1.08,3.26c0,0.08,0,.21,0,0.38H186.9a3.25,3.25,0,0,0,.79,2.14,2.35,2.35,0,0,0,1.77.74,2.2,2.2,0,0,0,1.35-.42A2.76,2.76,0,0,0,191.7,162.84ZM187,160.52h4.73a2.87,2.87,0,0,0-.54-1.6,2.2,2.2,0,0,0-1.78-.83,2.28,2.28,0,0,0-1.66.66A2.62,2.62,0,0,0,187,160.52Z" transform="translate(-19.71 -56.92)"/><path class="cls-2" d="M195,165.57V157.1h1.29v1.21a3,3,0,0,1,2.7-1.4,3.54,3.54,0,0,1,1.41.28,2.22,2.22,0,0,1,1,.72,2.77,2.77,0,0,1,.45,1.06,8.23,8.23,0,0,1,.08,1.4v5.21h-1.44v-5.16a3.87,3.87,0,0,0-.17-1.31,1.38,1.38,0,0,0-.59-0.69,1.89,1.89,0,0,0-1-.26,2.33,2.33,0,0,0-1.58.58,2.87,2.87,0,0,0-.67,2.21v4.63H195Z" transform="translate(-19.71 -56.92)"/><path class="cls-2" d="M209.61,162.47l1.41,0.18a3.66,3.66,0,0,1-1.19,2.29,3.45,3.45,0,0,1-2.34.83,3.64,3.64,0,0,1-2.8-1.14,4.61,4.61,0,0,1-1.06-3.26,5.9,5.9,0,0,1,.45-2.4,3.18,3.18,0,0,1,1.38-1.54,4.11,4.11,0,0,1,2-.51,3.52,3.52,0,0,1,2.26.7,3.2,3.2,0,0,1,1.13,2l-1.4.22a2.32,2.32,0,0,0-.71-1.29,1.83,1.83,0,0,0-1.23-.43,2.23,2.23,0,0,0-1.76.78,3.69,3.69,0,0,0-.68,2.46,3.82,3.82,0,0,0,.65,2.48,2.13,2.13,0,0,0,1.71.77,2,2,0,0,0,1.41-.52A2.57,2.57,0,0,0,209.61,162.47Z" transform="translate(-19.71 -56.92)"/><path class="cls-2" d="M212.26,155.53v-1.65h1.44v1.65h-1.44Zm0,10V157.1h1.44v8.48h-1.44Z" transform="translate(-19.71 -56.92)"/><path class="cls-2" d="M221.41,164.53a5.33,5.33,0,0,1-1.54,1,4.43,4.43,0,0,1-1.58.28,3.08,3.08,0,0,1-2.15-.68,2.25,2.25,0,0,1-.75-1.74,2.36,2.36,0,0,1,1-2,3.48,3.48,0,0,1,1-.47,10.32,10.32,0,0,1,1.28-.22,13.16,13.16,0,0,0,2.56-.5q0-.29,0-0.37a1.59,1.59,0,0,0-.41-1.24,2.41,2.41,0,0,0-1.64-.49,2.53,2.53,0,0,0-1.5.36,2.17,2.17,0,0,0-.71,1.26l-1.4-.19a3.48,3.48,0,0,1,.63-1.46,2.76,2.76,0,0,1,1.27-.85,5.64,5.64,0,0,1,1.92-.3,5.08,5.08,0,0,1,1.76.26,2.32,2.32,0,0,1,1,.64,2.26,2.26,0,0,1,.45,1,8.09,8.09,0,0,1,.07,1.32V162a20.36,20.36,0,0,0,.09,2.53,3.19,3.19,0,0,0,.36,1h-1.5A3.06,3.06,0,0,1,221.41,164.53Zm-0.12-3.21a10.56,10.56,0,0,1-2.35.54,5.42,5.42,0,0,0-1.25.29,1.25,1.25,0,0,0-.57.47,1.27,1.27,0,0,0,.24,1.64,1.87,1.87,0,0,0,1.27.38,3,3,0,0,0,1.48-.36,2.23,2.23,0,0,0,.95-1,3.47,3.47,0,0,0,.23-1.44v-0.53Z" transform="translate(-19.71 -56.92)"/><path class="cls-2" d="M235,165.57v-1.07a2.64,2.64,0,0,1-2.37,1.26,3.33,3.33,0,0,1-1.86-.56,3.67,3.67,0,0,1-1.32-1.56,5.4,5.4,0,0,1-.47-2.3,6,6,0,0,1,.42-2.3,3.33,3.33,0,0,1,1.27-1.58,3.39,3.39,0,0,1,1.89-.55,2.82,2.82,0,0,1,1.36.32,2.86,2.86,0,0,1,1,.84v-4.2h1.43v11.7H235Zm-4.54-4.23a3.68,3.68,0,0,0,.69,2.43,2.07,2.07,0,0,0,1.62.81,2,2,0,0,0,1.6-.77,3.55,3.55,0,0,0,.66-2.35,4,4,0,0,0-.67-2.55,2.06,2.06,0,0,0-1.65-.81,2,2,0,0,0-1.6.78A3.86,3.86,0,0,0,230.47,161.34Z" transform="translate(-19.71 -56.92)"/><path class="cls-2" d="M244.41,162.84l1.48,0.18a3.63,3.63,0,0,1-1.3,2,4.41,4.41,0,0,1-5.38-.43,4.47,4.47,0,0,1-1.09-3.21,4.68,4.68,0,0,1,1.1-3.32,3.73,3.73,0,0,1,2.86-1.18,3.62,3.62,0,0,1,2.78,1.16,4.6,4.6,0,0,1,1.08,3.26c0,0.08,0,.21,0,0.38h-6.32a3.25,3.25,0,0,0,.79,2.14,2.35,2.35,0,0,0,1.77.74,2.2,2.2,0,0,0,1.35-.42A2.76,2.76,0,0,0,244.41,162.84Zm-4.72-2.32h4.73a2.87,2.87,0,0,0-.54-1.6,2.2,2.2,0,0,0-1.78-.83,2.28,2.28,0,0,0-1.66.66A2.62,2.62,0,0,0,239.69,160.52Z" transform="translate(-19.71 -56.92)"/><path class="cls-2" d="M252.42,165.57v-11.7h4.41a10.57,10.57,0,0,1,1.78.11,3.52,3.52,0,0,1,1.44.55,2.87,2.87,0,0,1,.94,1.13,3.81,3.81,0,0,1-.59,4.12,4.55,4.55,0,0,1-3.43,1h-3v4.76h-1.55Zm1.55-6.14h3a3.21,3.21,0,0,0,2.13-.56,2,2,0,0,0,.63-1.57,2.12,2.12,0,0,0-.37-1.26,1.74,1.74,0,0,0-1-.69,6.67,6.67,0,0,0-1.44-.1h-3v4.18Z" transform="translate(-19.71 -56.92)"/><path class="cls-2" d="M262.6,161.34a4.37,4.37,0,0,1,1.31-3.49,4,4,0,0,1,2.67-.94,3.8,3.8,0,0,1,2.86,1.15,4.36,4.36,0,0,1,1.11,3.16,5.61,5.61,0,0,1-.49,2.57,3.47,3.47,0,0,1-1.43,1.46,4.16,4.16,0,0,1-2,.52,3.81,3.81,0,0,1-2.88-1.14A4.56,4.56,0,0,1,262.6,161.34Zm1.48,0a3.61,3.61,0,0,0,.71,2.44,2.36,2.36,0,0,0,3.57,0,3.7,3.7,0,0,0,.71-2.48,3.5,3.5,0,0,0-.71-2.38,2.37,2.37,0,0,0-3.56,0A3.6,3.6,0,0,0,264.08,161.34Z" transform="translate(-19.71 -56.92)"/><path class="cls-2" d="M271.65,163l1.42-.22a2,2,0,0,0,.67,1.31,2.33,2.33,0,0,0,1.53.46,2.25,2.25,0,0,0,1.47-.4,1.21,1.21,0,0,0,.48-0.95,0.87,0.87,0,0,0-.42-0.77,6.24,6.24,0,0,0-1.47-.49,13.35,13.35,0,0,1-2.19-.69,2.09,2.09,0,0,1-1.24-1.94,2.19,2.19,0,0,1,.26-1,2.33,2.33,0,0,1,.71-0.8,3,3,0,0,1,.91-0.42,4.35,4.35,0,0,1,1.24-.17,4.91,4.91,0,0,1,1.75.29,2.38,2.38,0,0,1,1.11.78,3,3,0,0,1,.49,1.31l-1.4.19a1.53,1.53,0,0,0-.55-1,2,2,0,0,0-1.3-.37,2.34,2.34,0,0,0-1.41.33,1,1,0,0,0-.42.77,0.79,0.79,0,0,0,.18.5,1.27,1.27,0,0,0,.55.38q0.22,0.08,1.27.37a17.56,17.56,0,0,1,2.13.67,2.16,2.16,0,0,1,.95.75,2.11,2.11,0,0,1,.34,1.23,2.41,2.41,0,0,1-.42,1.35,2.7,2.7,0,0,1-1.21,1,4.4,4.4,0,0,1-1.79.35,4,4,0,0,1-2.52-.69A3.19,3.19,0,0,1,271.65,163Z" transform="translate(-19.71 -56.92)"/><path class="cls-2" d="M283.54,164.29l0.21,1.27a5.34,5.34,0,0,1-1.09.13,2.46,2.46,0,0,1-1.21-.25,1.39,1.39,0,0,1-.61-0.65,5.14,5.14,0,0,1-.18-1.7v-4.88h-1.05V157.1h1.05V155l1.43-.86v3h1.44v1.12h-1.44v5a2.51,2.51,0,0,0,.08.79,0.6,0.6,0,0,0,.25.28,1,1,0,0,0,.49.1A4.69,4.69,0,0,0,283.54,164.29Z" transform="translate(-19.71 -56.92)"/><path class="cls-2" d="M284.68,166.28l1.4,0.21a1.33,1.33,0,0,0,.49.94,2.39,2.39,0,0,0,1.46.4,2.56,2.56,0,0,0,1.54-.4,2,2,0,0,0,.73-1.12,9.2,9.2,0,0,0,.1-1.84,3,3,0,0,1-2.35,1.11,3.2,3.2,0,0,1-2.71-1.26,4.86,4.86,0,0,1-1-3,5.62,5.62,0,0,1,.44-2.24,3.51,3.51,0,0,1,1.27-1.58,3.44,3.44,0,0,1,2-.56,3,3,0,0,1,2.47,1.21v-1h1.33v7.33a7,7,0,0,1-.4,2.81,3,3,0,0,1-1.28,1.3A4.42,4.42,0,0,1,288,169a4.06,4.06,0,0,1-2.45-.68A2.31,2.31,0,0,1,284.68,166.28Zm1.19-5.09a3.68,3.68,0,0,0,.66,2.43,2.19,2.19,0,0,0,3.32,0,3.56,3.56,0,0,0,.67-2.39,3.48,3.48,0,0,0-.69-2.35,2.14,2.14,0,0,0-1.66-.79,2.07,2.07,0,0,0-1.63.78A3.46,3.46,0,0,0,285.87,161.18Z" transform="translate(-19.71 -56.92)"/><path class="cls-2" d="M294,165.57V157.1h1.29v1.29a3.51,3.51,0,0,1,.91-1.19,1.6,1.6,0,0,1,.92-0.29,2.8,2.8,0,0,1,1.48.46l-0.5,1.33a2.05,2.05,0,0,0-1.05-.31,1.37,1.37,0,0,0-.85.28,1.54,1.54,0,0,0-.53.79,5.6,5.6,0,0,0-.24,1.68v4.44H294Z" transform="translate(-19.71 -56.92)"/><path class="cls-2" d="M305,164.53a5.33,5.33,0,0,1-1.54,1,4.43,4.43,0,0,1-1.58.28,3.08,3.08,0,0,1-2.15-.68,2.25,2.25,0,0,1-.75-1.74,2.36,2.36,0,0,1,1-2,3.48,3.48,0,0,1,1-.47,10.32,10.32,0,0,1,1.28-.22,13.16,13.16,0,0,0,2.56-.5q0-.29,0-0.37a1.59,1.59,0,0,0-.41-1.24,2.41,2.41,0,0,0-1.64-.49,2.53,2.53,0,0,0-1.5.36,2.17,2.17,0,0,0-.71,1.26l-1.4-.19a3.48,3.48,0,0,1,.63-1.46,2.76,2.76,0,0,1,1.27-.85,5.64,5.64,0,0,1,1.92-.3,5.08,5.08,0,0,1,1.76.26,2.32,2.32,0,0,1,1,.64,2.26,2.26,0,0,1,.45,1,8.09,8.09,0,0,1,.07,1.32V162a20.36,20.36,0,0,0,.09,2.53,3.19,3.19,0,0,0,.36,1h-1.5A3.06,3.06,0,0,1,305,164.53Zm-0.12-3.21a10.56,10.56,0,0,1-2.35.54,5.42,5.42,0,0,0-1.25.29,1.25,1.25,0,0,0-.57.47,1.27,1.27,0,0,0,.24,1.64,1.87,1.87,0,0,0,1.27.38,3,3,0,0,0,1.48-.36,2.23,2.23,0,0,0,.95-1,3.47,3.47,0,0,0,.23-1.44v-0.53Z" transform="translate(-19.71 -56.92)"/><path class="cls-2" d="M314.07,165.57v-1.07a2.64,2.64,0,0,1-2.37,1.26,3.33,3.33,0,0,1-1.86-.56,3.67,3.67,0,0,1-1.32-1.56,5.4,5.4,0,0,1-.47-2.3,6,6,0,0,1,.42-2.3,3.33,3.33,0,0,1,1.27-1.58,3.39,3.39,0,0,1,1.89-.55,2.82,2.82,0,0,1,1.36.32,2.85,2.85,0,0,1,1,.84v-4.2h1.43v11.7h-1.33Zm-4.54-4.23a3.68,3.68,0,0,0,.69,2.43,2.07,2.07,0,0,0,1.62.81,2,2,0,0,0,1.6-.77,3.55,3.55,0,0,0,.66-2.35,4,4,0,0,0-.67-2.55,2.06,2.06,0,0,0-1.65-.81,2,2,0,0,0-1.6.78A3.86,3.86,0,0,0,309.53,161.34Z" transform="translate(-19.71 -56.92)"/><path class="cls-2" d="M317.12,161.34a4.37,4.37,0,0,1,1.31-3.49,4,4,0,0,1,2.67-.94,3.8,3.8,0,0,1,2.86,1.15,4.36,4.36,0,0,1,1.11,3.16,5.61,5.61,0,0,1-.49,2.57,3.47,3.47,0,0,1-1.43,1.46,4.16,4.16,0,0,1-2,.52,3.81,3.81,0,0,1-2.88-1.14A4.55,4.55,0,0,1,317.12,161.34Zm1.48,0a3.61,3.61,0,0,0,.71,2.44,2.36,2.36,0,0,0,3.57,0,3.7,3.7,0,0,0,.71-2.48,3.5,3.5,0,0,0-.71-2.38,2.37,2.37,0,0,0-3.56,0A3.6,3.6,0,0,0,318.6,161.34Z" transform="translate(-19.71 -56.92)"/><g class="cls-3"><path class="cls-2" d="M157,184.65v-11.7h1.55v4.8h6.08v-4.8h1.55v11.7h-1.55v-5.52h-6.08v5.52H157Z" transform="translate(-19.71 -56.92)"/><path class="cls-2" d="M174.14,183.6a5.33,5.33,0,0,1-1.54,1,4.43,4.43,0,0,1-1.58.28,3.08,3.08,0,0,1-2.15-.68,2.25,2.25,0,0,1-.75-1.74,2.36,2.36,0,0,1,1-2,3.48,3.48,0,0,1,1-.47,10.32,10.32,0,0,1,1.28-.22,13.16,13.16,0,0,0,2.56-.5q0-.29,0-0.37a1.59,1.59,0,0,0-.41-1.24,2.41,2.41,0,0,0-1.64-.49,2.53,2.53,0,0,0-1.5.36,2.17,2.17,0,0,0-.71,1.26l-1.4-.19a3.48,3.48,0,0,1,.63-1.46,2.76,2.76,0,0,1,1.27-.85,5.64,5.64,0,0,1,1.92-.3,5.08,5.08,0,0,1,1.76.26,2.32,2.32,0,0,1,1,.64,2.26,2.26,0,0,1,.45,1,8.09,8.09,0,0,1,.07,1.32v1.92a20.36,20.36,0,0,0,.09,2.53,3.19,3.19,0,0,0,.36,1h-1.5A3.06,3.06,0,0,1,174.14,183.6ZM174,180.4a10.56,10.56,0,0,1-2.35.54,5.42,5.42,0,0,0-1.25.29,1.25,1.25,0,0,0-.57.47,1.27,1.27,0,0,0,.24,1.64,1.87,1.87,0,0,0,1.27.38,3,3,0,0,0,1.48-.36,2.23,2.23,0,0,0,.95-1,3.47,3.47,0,0,0,.23-1.44V180.4Z" transform="translate(-19.71 -56.92)"/><path class="cls-2" d="M177.13,182.12l1.42-.22a2,2,0,0,0,.67,1.31,2.33,2.33,0,0,0,1.53.46,2.25,2.25,0,0,0,1.47-.4,1.21,1.21,0,0,0,.48-0.95,0.87,0.87,0,0,0-.42-0.77,6.24,6.24,0,0,0-1.47-.49,13.35,13.35,0,0,1-2.19-.69,2.09,2.09,0,0,1-1.24-1.94,2.19,2.19,0,0,1,.26-1,2.33,2.33,0,0,1,.71-0.8,3,3,0,0,1,.91-0.42,4.35,4.35,0,0,1,1.24-.17,4.91,4.91,0,0,1,1.75.29,2.38,2.38,0,0,1,1.11.78,3,3,0,0,1,.49,1.31l-1.4.19a1.53,1.53,0,0,0-.55-1,2,2,0,0,0-1.3-.37,2.34,2.34,0,0,0-1.41.33,1,1,0,0,0-.42.77,0.79,0.79,0,0,0,.18.5,1.27,1.27,0,0,0,.55.38q0.22,0.08,1.27.37a17.56,17.56,0,0,1,2.13.67,2.16,2.16,0,0,1,.95.75,2.11,2.11,0,0,1,.34,1.23,2.41,2.41,0,0,1-.42,1.35,2.7,2.7,0,0,1-1.21,1,4.4,4.4,0,0,1-1.79.35,4,4,0,0,1-2.52-.69A3.19,3.19,0,0,1,177.13,182.12Z" transform="translate(-19.71 -56.92)"/><path class="cls-2" d="M189,183.37l0.21,1.27a5.34,5.34,0,0,1-1.09.13,2.46,2.46,0,0,1-1.21-.25,1.39,1.39,0,0,1-.61-0.65,5.14,5.14,0,0,1-.18-1.7v-4.88h-1.05v-1.12h1.05v-2.1l1.43-.86v3H189v1.12h-1.44v5a2.51,2.51,0,0,0,.08.79,0.6,0.6,0,0,0,.25.28,1,1,0,0,0,.49.1A4.69,4.69,0,0,0,189,183.37Z" transform="translate(-19.71 -56.92)"/><path class="cls-2" d="M195.95,183.6a5.33,5.33,0,0,1-1.54,1,4.43,4.43,0,0,1-1.58.28,3.08,3.08,0,0,1-2.15-.68,2.25,2.25,0,0,1-.75-1.74,2.36,2.36,0,0,1,1-2,3.48,3.48,0,0,1,1-.47,10.32,10.32,0,0,1,1.28-.22,13.16,13.16,0,0,0,2.56-.5q0-.29,0-0.37a1.59,1.59,0,0,0-.41-1.24,2.41,2.41,0,0,0-1.64-.49,2.53,2.53,0,0,0-1.5.36,2.17,2.17,0,0,0-.71,1.26l-1.4-.19a3.48,3.48,0,0,1,.63-1.46,2.76,2.76,0,0,1,1.27-.85A5.64,5.64,0,0,1,194,176a5.08,5.08,0,0,1,1.76.26,2.32,2.32,0,0,1,1,.64,2.26,2.26,0,0,1,.45,1,8.09,8.09,0,0,1,.07,1.32v1.92a20.36,20.36,0,0,0,.09,2.53,3.19,3.19,0,0,0,.36,1h-1.5A3.06,3.06,0,0,1,195.95,183.6Zm-0.12-3.21a10.56,10.56,0,0,1-2.35.54,5.42,5.42,0,0,0-1.25.29,1.25,1.25,0,0,0-.57.47,1.27,1.27,0,0,0,.24,1.64,1.87,1.87,0,0,0,1.27.38,3,3,0,0,0,1.48-.36,2.23,2.23,0,0,0,.95-1,3.47,3.47,0,0,0,.23-1.44V180.4Z" transform="translate(-19.71 -56.92)"/><path class="cls-2" d="M204.23,184.65v-11.7h4a9.74,9.74,0,0,1,2.08.17,4,4,0,0,1,1.72.84,4.77,4.77,0,0,1,1.38,2,7.85,7.85,0,0,1,.46,2.78,8.17,8.17,0,0,1-.31,2.36,5.73,5.73,0,0,1-.8,1.7,4.24,4.24,0,0,1-1.07,1.06,4.34,4.34,0,0,1-1.4.59,8,8,0,0,1-1.88.2h-4.22Zm1.55-1.38h2.5a6.07,6.07,0,0,0,1.82-.22,2.6,2.6,0,0,0,1-.61A3.69,3.69,0,0,0,212,181a7.23,7.23,0,0,0,.31-2.25,5.45,5.45,0,0,0-.6-2.82,3,3,0,0,0-1.46-1.32,6.07,6.07,0,0,0-2-.24h-2.46v8.94Z" transform="translate(-19.71 -56.92)"/><path class="cls-2" d="M215.86,174.6v-1.65h1.44v1.65h-1.44Zm0,10v-8.48h1.44v8.48h-1.44Z" transform="translate(-19.71 -56.92)"/><path class="cls-2" d="M225,181.55l1.41,0.18a3.66,3.66,0,0,1-1.19,2.29,3.45,3.45,0,0,1-2.34.83,3.64,3.64,0,0,1-2.8-1.14,4.61,4.61,0,0,1-1.06-3.26,5.9,5.9,0,0,1,.45-2.4,3.18,3.18,0,0,1,1.38-1.54,4.11,4.11,0,0,1,2-.51,3.52,3.52,0,0,1,2.26.7,3.2,3.2,0,0,1,1.13,2l-1.4.22a2.32,2.32,0,0,0-.71-1.29,1.83,1.83,0,0,0-1.23-.43,2.23,2.23,0,0,0-1.76.78,3.69,3.69,0,0,0-.68,2.46,3.82,3.82,0,0,0,.65,2.48,2.13,2.13,0,0,0,1.71.77,2,2,0,0,0,1.41-.52A2.57,2.57,0,0,0,225,181.55Z" transform="translate(-19.71 -56.92)"/><path class="cls-2" d="M227.67,174.6v-1.65h1.44v1.65h-1.44Zm0,10v-8.48h1.44v8.48h-1.44Z" transform="translate(-19.71 -56.92)"/><path class="cls-2" d="M237.09,181.92l1.48,0.18a3.63,3.63,0,0,1-1.3,2,4.41,4.41,0,0,1-5.38-.43,4.47,4.47,0,0,1-1.09-3.21,4.68,4.68,0,0,1,1.1-3.32,3.73,3.73,0,0,1,2.86-1.18,3.62,3.62,0,0,1,2.78,1.16,4.6,4.6,0,0,1,1.08,3.26c0,0.08,0,.21,0,0.38h-6.32a3.25,3.25,0,0,0,.79,2.14,2.35,2.35,0,0,0,1.77.74,2.2,2.2,0,0,0,1.35-.42A2.76,2.76,0,0,0,237.09,181.92Zm-4.72-2.32h4.73a2.87,2.87,0,0,0-.54-1.6,2.2,2.2,0,0,0-1.78-.83,2.28,2.28,0,0,0-1.66.66A2.62,2.62,0,0,0,232.38,179.6Z" transform="translate(-19.71 -56.92)"/><path class="cls-2" d="M240.38,184.65v-8.48h1.28v1.19a3,3,0,0,1,1.06-1,3,3,0,0,1,1.51-.38,2.79,2.79,0,0,1,1.54.39,2.1,2.1,0,0,1,.85,1.09,3,3,0,0,1,2.62-1.48,2.58,2.58,0,0,1,1.94.7,3,3,0,0,1,.68,2.15v5.82h-1.43v-5.34a4,4,0,0,0-.14-1.24,1.21,1.21,0,0,0-.51-0.61,1.58,1.58,0,0,0-.86-0.23,2,2,0,0,0-1.48.59,2.62,2.62,0,0,0-.59,1.9v4.92h-1.44v-5.51a2.43,2.43,0,0,0-.35-1.44,1.33,1.33,0,0,0-1.15-.48,2.09,2.09,0,0,0-1.12.32,1.81,1.81,0,0,0-.75.93,5.26,5.26,0,0,0-.23,1.77v4.4h-1.44Z" transform="translate(-19.71 -56.92)"/><path class="cls-2" d="M255.32,184.65H254v-11.7h1.44v4.17a2.84,2.84,0,0,1,2.32-1.14,3.56,3.56,0,0,1,1.48.32,3,3,0,0,1,1.15.89,4.29,4.29,0,0,1,.71,1.38,5.67,5.67,0,0,1,.26,1.72,4.84,4.84,0,0,1-1.08,3.37,3.37,3.37,0,0,1-2.59,1.19,2.7,2.7,0,0,1-2.35-1.25v1.06Zm0-4.3a4.4,4.4,0,0,0,.42,2.2,2.05,2.05,0,0,0,3.46.29,3.72,3.72,0,0,0,.69-2.44,3.78,3.78,0,0,0-.66-2.45,2,2,0,0,0-1.59-.79A2.07,2.07,0,0,0,256,178,3.59,3.59,0,0,0,255.31,180.35Z" transform="translate(-19.71 -56.92)"/><path class="cls-2" d="M263.07,184.65v-8.48h1.29v1.29a3.51,3.51,0,0,1,.91-1.19,1.6,1.6,0,0,1,.92-0.29,2.8,2.8,0,0,1,1.48.46l-0.5,1.33a2.05,2.05,0,0,0-1.05-.31,1.37,1.37,0,0,0-.85.28,1.54,1.54,0,0,0-.53.79,5.6,5.6,0,0,0-.24,1.68v4.44h-1.44Z" transform="translate(-19.71 -56.92)"/><path class="cls-2" d="M274.33,181.92l1.48,0.18a3.63,3.63,0,0,1-1.3,2,4.41,4.41,0,0,1-5.38-.43,4.47,4.47,0,0,1-1.09-3.21,4.68,4.68,0,0,1,1.1-3.32A3.73,3.73,0,0,1,272,176a3.62,3.62,0,0,1,2.78,1.16,4.6,4.6,0,0,1,1.08,3.26c0,0.08,0,.21,0,0.38h-6.32a3.25,3.25,0,0,0,.79,2.14,2.35,2.35,0,0,0,1.77.74,2.2,2.2,0,0,0,1.35-.42A2.76,2.76,0,0,0,274.33,181.92Zm-4.72-2.32h4.73a2.87,2.87,0,0,0-.54-1.6,2.2,2.2,0,0,0-1.78-.83,2.28,2.28,0,0,0-1.66.66A2.62,2.62,0,0,0,269.62,179.6Z" transform="translate(-19.71 -56.92)"/><path class="cls-2" d="M289.31,183.27v1.38h-7.73a2.54,2.54,0,0,1,.17-1,5.27,5.27,0,0,1,.95-1.56,14.85,14.85,0,0,1,1.88-1.77,15.91,15.91,0,0,0,2.58-2.48,3,3,0,0,0,.67-1.73,1.92,1.92,0,0,0-.61-1.44,2.2,2.2,0,0,0-1.59-.59,2.24,2.24,0,0,0-1.66.62,2.35,2.35,0,0,0-.63,1.72l-1.48-.15a3.63,3.63,0,0,1,1.14-2.52,3.89,3.89,0,0,1,2.66-.87,3.71,3.71,0,0,1,2.67.93,3.07,3.07,0,0,1,1,2.32,3.51,3.51,0,0,1-.29,1.38,5.38,5.38,0,0,1-1,1.43,23.2,23.2,0,0,1-2.21,2.06q-1.29,1.09-1.66,1.47a4.76,4.76,0,0,0-.61.78h5.74Z" transform="translate(-19.71 -56.92)"/><path class="cls-2" d="M290.85,178.88a10.71,10.71,0,0,1,.43-3.34,4.16,4.16,0,0,1,1.27-2,3.25,3.25,0,0,1,2.12-.69,3.47,3.47,0,0,1,1.65.38,3.17,3.17,0,0,1,1.17,1.09,5.88,5.88,0,0,1,.73,1.74,11.58,11.58,0,0,1,.26,2.77,10.75,10.75,0,0,1-.42,3.32,4.15,4.15,0,0,1-1.27,2,3.56,3.56,0,0,1-4.78-.52Q290.85,182.18,290.85,178.88Zm1.48,0a7.33,7.33,0,0,0,.67,3.83,1.93,1.93,0,0,0,3.33,0,7.34,7.34,0,0,0,.67-3.83q0-2.89-.67-3.84a2,2,0,0,0-1.68-1,1.84,1.84,0,0,0-1.58.84A7.42,7.42,0,0,0,292.33,178.88Z" transform="translate(-19.71 -56.92)"/><path class="cls-2" d="M305.36,184.65h-1.44V175.5a7.45,7.45,0,0,1-1.36,1,9.63,9.63,0,0,1-1.51.74v-1.39a8.67,8.67,0,0,0,2.11-1.37,5.39,5.39,0,0,0,1.28-1.56h0.93v11.75Z" transform="translate(-19.71 -56.92)"/><path class="cls-2" d="M311.25,178.3a2.7,2.7,0,0,1-1.32-.93,2.44,2.44,0,0,1-.43-1.45,2.84,2.84,0,0,1,.92-2.15,3.86,3.86,0,0,1,4.91,0,2.88,2.88,0,0,1,.93,2.17,2.39,2.39,0,0,1-.43,1.42,2.69,2.69,0,0,1-1.3.93,3.15,3.15,0,0,1,1.64,1.13,3.11,3.11,0,0,1,.56,1.87,3.36,3.36,0,0,1-1.06,2.52,4.32,4.32,0,0,1-5.59,0,3.41,3.41,0,0,1-1.06-2.56,3.09,3.09,0,0,1,.58-1.91A2.9,2.9,0,0,1,311.25,178.3Zm-0.75,3a2.6,2.6,0,0,0,.29,1.19,2.06,2.06,0,0,0,.87.89,2.54,2.54,0,0,0,1.24.32,2.32,2.32,0,0,0,1.7-.66,2.27,2.27,0,0,0,.67-1.68,2.3,2.3,0,0,0-.69-1.72,2.37,2.37,0,0,0-1.73-.68A2.28,2.28,0,0,0,310.5,181.27Zm0.46-5.4a1.82,1.82,0,0,0,.53,1.36,1.89,1.89,0,0,0,1.39.53,1.86,1.86,0,0,0,1.36-.52,1.73,1.73,0,0,0,.53-1.28,1.79,1.79,0,0,0-.55-1.33,1.86,1.86,0,0,0-1.36-.54,1.88,1.88,0,0,0-1.37.53A1.7,1.7,0,0,0,311,175.87Z" transform="translate(-19.71 -56.92)"/><line class="cls-5" x1="127.77" x2="127.77" y2="128.08"/></g></svg>