<svg id="Capa_2" data-name="Capa 2" xmlns="http://www.w3.org/2000/svg" xmlns:xlink="http://www.w3.org/1999/xlink" viewBox="0 0 455.92 134.09"><defs><style>.cls-1{fill:none;}.cls-2{fill:#fff;}.cls-3{clip-path:url(#clip-path);}</style><clipPath id="clip-path" transform="translate(-15.82 -55.3)"><rect class="cls-1" x="15.82" y="55.3" width="455.93" height="134.08"/></clipPath></defs><title>amba</title><polygon class="cls-2" points="304.42 66.77 282.36 31.36 275.95 31.36 275.95 95.1 283.92 95.1 283.92 48.82 301.51 76.47 307.07 76.47 324.66 48.16 324.66 95.1 332.8 95.1 332.8 31.36 326.48 31.36 304.42 66.77"/><g class="cls-3"><path class="cls-2" d="M382.68,113.73h-15V94h15.08c7,0,11.13,3.75,11.13,10,0,6.1-4.19,9.75-11.21,9.75m14.62,18.15c0,7.65-4.7,11.22-14.79,11.22H367.69V120.84H382c9.7,0,15.26,4,15.26,11m-3.09-15.25a14.6,14.6,0,0,0,7.91-13c0-11.71-9.26-17-18.43-17H359.46V150.4h23.77c13.75,0,22.3-7,22.3-18.25,0-7.64-4.19-13.29-11.32-15.52" transform="translate(-15.82 -55.3)"/></g><path class="cls-2" d="M448.29,124.36h-20l9.94-25.29Zm-6.46-37.8h-6.68L409.21,150.4h8.92l7.36-18.81h25.65l7.45,18.81h9Z" transform="translate(-15.82 -55.3)"/><path class="cls-2" d="M237.47,72.7l15.92,40.16h-31.7ZM233,55.3l-38.66,95.1H207L217.71,123h39.67l10.87,27.42H281L242.61,55.3H233Z" transform="translate(-15.82 -55.3)"/><g class="cls-3"><path class="cls-2" d="M268.68,87.43c-3.1,0-4.68,2.59-4.68,5.45s1.58,5.46,4.68,5.46,4.67-2.6,4.67-5.46-1.59-5.45-4.67-5.45m0,12.08c-4,0-6.06-3.19-6.06-6.65s2-6.6,6.06-6.6,6.06,3.14,6.06,6.6-2,6.65-6.06,6.65" transform="translate(-15.82 -55.3)"/></g><polygon class="cls-2" points="263.2 38.52 263.2 43.97 261.85 43.97 261.85 31.2 269.82 31.2 269.82 32.42 263.2 32.42 263.2 37.3 269.25 37.3 269.25 38.52 263.2 38.52"/><g class="cls-3"><path class="cls-2" d="M464.69,87.07c-3.08,0-4.46,1.39-4.46,3.32,0,5.48,11.51,3.18,11.51,10.51,0,3.79-3.14,5.82-7.31,5.82a9.18,9.18,0,0,1-7.48-3.33l1.63-1.51a7.06,7.06,0,0,0,5.92,2.92c3.2,0,5-1.42,5-3.51,0-6.07-11.53-3.33-11.53-10.57,0-2.87,1.95-5.58,6.69-5.58a8.35,8.35,0,0,1,6.93,3.17L470,89.78a6.35,6.35,0,0,0-5.33-2.71" transform="translate(-15.82 -55.3)"/><path class="cls-2" d="M271.75,57.62c-3.47,0-5,1.56-5,3.74,0,6.18,13,3.58,13,11.84,0,4.27-3.53,6.56-8.22,6.56A10.36,10.36,0,0,1,263,76l1.85-1.7a8,8,0,0,0,6.66,3.3c3.61,0,5.59-1.6,5.59-4,0-6.84-13-3.75-13-11.9,0-3.24,2.19-6.29,7.54-6.29a9.39,9.39,0,0,1,7.8,3.57l-1.73,1.64a7.14,7.14,0,0,0-6-3.06" transform="translate(-15.82 -55.3)"/><path class="cls-2" d="M294.56,57.62c-3.47,0-5,1.56-5,3.74,0,6.18,13,3.58,13,11.84,0,4.27-3.53,6.56-8.22,6.56A10.36,10.36,0,0,1,285.84,76l1.84-1.7a8,8,0,0,0,6.66,3.3c3.61,0,5.59-1.6,5.59-4,0-6.84-13-3.75-13-11.9,0-3.24,2.18-6.29,7.53-6.29A9.39,9.39,0,0,1,302.29,59l-1.73,1.64a7.14,7.14,0,0,0-6-3.06" transform="translate(-15.82 -55.3)"/><path class="cls-2" d="M318.64,57.62c-5.66,0-8.57,4.76-8.57,10s2.91,10,8.57,10,8.57-4.75,8.57-10-2.91-10-8.57-10m0,22.15c-7.37,0-11.11-5.84-11.11-12.19s3.74-12.11,11.11-12.11,11.1,5.76,11.1,12.11S326,79.76,318.64,79.76" transform="translate(-15.82 -55.3)"/><path class="cls-2" d="M344.46,55.47a10.41,10.41,0,0,1,8.44,3.86l-1.81,1.59a7.91,7.91,0,0,0-6.56-3.29c-5.59,0-8.08,5-8.08,10s2.49,10,8.08,10a7.9,7.9,0,0,0,6.56-3.3l1.81,1.59a10.44,10.44,0,0,1-8.44,3.86c-7.22,0-10.55-5.94-10.55-12.11s3.33-12.18,10.55-12.18" transform="translate(-15.82 -55.3)"/></g><rect class="cls-2" x="344.02" y="0.62" width="2.48" height="23.39"/><path class="cls-2" d="M378.12,59.15L382.42,70h-8.57Zm-1-3.58L367.5,79.31h2.71L373,72.12h10.24l2.84,7.19h2.74l-9.58-23.74h-2.12Z" transform="translate(-15.82 -55.3)"/><polygon class="cls-2" points="372.85 0.62 372.85 2.85 381.54 2.85 381.54 24.01 383.99 24.01 383.99 2.85 392.64 2.85 392.64 0.62 372.85 0.62"/><rect class="cls-2" x="398.54" y="0.62" width="2.46" height="23.39"/><g class="cls-3"><path class="cls-2" d="M434.69,57.62c-5.66,0-8.57,4.76-8.57,10s2.91,10,8.57,10,8.58-4.75,8.58-10-2.92-10-8.58-10m0,22.15c-7.36,0-11.1-5.84-11.1-12.19s3.75-12.11,11.1-12.11,11.1,5.76,11.1,12.11S442,79.76,434.69,79.76" transform="translate(-15.82 -55.3)"/></g><polygon class="cls-2" points="436.05 0.31 436.05 24.01 438.44 24.01 438.44 5.13 452.95 24.33 454.79 24.33 454.79 0.62 452.4 0.62 452.4 19.6 437.85 0.31 436.05 0.31"/><path class="cls-2" d="M207.21,164.49l5.2,13.12H202ZM206,160.17l-11.65,28.67h3.27l3.4-8.68h12.36l3.44,8.68h3.3l-11.56-28.67H206Z" transform="translate(-15.82 -55.3)"/><g class="cls-3"><path class="cls-2" d="M237.29,160a12.6,12.6,0,0,1,10.19,4.65l-2.19,1.93a9.55,9.55,0,0,0-7.92-4c-6.74,0-9.76,6.07-9.76,12.08s3,12.06,9.76,12.06a9.53,9.53,0,0,0,7.92-4l2.19,1.93a12.59,12.59,0,0,1-10.19,4.66c-8.71,0-12.74-7.17-12.74-14.63s4-14.71,12.74-14.71" transform="translate(-15.82 -55.3)"/><path class="cls-2" d="M265.87,160A12.56,12.56,0,0,1,276,164.69l-2.18,1.93a9.54,9.54,0,0,0-7.91-4c-6.75,0-9.77,6.07-9.77,12.08s3,12.06,9.77,12.06a9.52,9.52,0,0,0,7.91-4l2.18,1.93a12.55,12.55,0,0,1-10.18,4.66c-8.72,0-12.74-7.17-12.74-14.63s4-14.71,12.74-14.71" transform="translate(-15.82 -55.3)"/><path class="cls-2" d="M296.12,163.15h-7v11.27h6.75c3.57,0,6.21-1.81,6.21-5.74,0-3.43-2.6-5.53-5.91-5.53m7.12,25.69L295.16,177h-6.08v11.86h-3V160.59h10.14c4.82,0,8.76,2.93,8.76,8a7.57,7.57,0,0,1-6.62,7.92L307,188.84h-3.73Z" transform="translate(-15.82 -55.3)"/></g><polygon class="cls-2" points="300.8 105.29 300.8 133.54 318.45 133.54 318.45 130.86 303.77 130.86 303.77 120.21 316.35 120.21 316.35 117.61 303.77 117.61 303.77 107.98 317.6 107.98 317.6 105.29 300.8 105.29"/><g class="cls-3"><path class="cls-2" d="M354.54,163.19h-7v23h7c7.08,0,10.68-4.82,10.68-11.52,0-7-4.14-11.53-10.68-11.53m0.21,25.65H344.52V160.59h10.22c9.26,0,13.54,6.45,13.54,14.07,0,7.8-4.57,14.17-13.54,14.17" transform="translate(-15.82 -55.3)"/></g><rect class="cls-2" x="361.47" y="105.29" width="2.98" height="28.25"/><polygon class="cls-2" points="372.4 105.29 372.4 107.98 382.88 107.98 382.88 133.54 385.86 133.54 385.86 107.98 396.3 107.98 396.3 105.29 372.4 105.29"/><polygon class="cls-2" points="404.26 105.29 404.26 133.54 421.9 133.54 421.9 130.86 407.24 130.86 407.24 120.21 419.8 120.21 419.8 117.61 407.24 117.61 407.24 107.98 421.06 107.98 421.06 105.29 404.26 105.29"/><g class="cls-3"><path class="cls-2" d="M458,163.19h-7v23h7c7.08,0,10.69-4.82,10.69-11.52,0-7-4.15-11.53-10.69-11.53m0.21,25.65H448V160.59H458.2c9.26,0,13.54,6.45,13.54,14.07,0,7.8-4.57,14.17-13.54,14.17" transform="translate(-15.82 -55.3)"/><path class="cls-2" d="M149.91,99V89.59c0-4.74,4.22-9.45,9-9.45h10.59L188.31,99H149.91Zm0,41.49V102h38.41ZM146.82,99h-2.16a12.36,12.36,0,0,0,2.16-2.43V99Zm0,43.67h-40.6V102h40.6v40.59Zm-40.6,41.49v-38.4h38.42Zm0-125.74,30.26,0a9.39,9.39,0,0,1,9.37,9.38c0,4.89-3.81,9.34-8.64,9.34h-9.84a1.54,1.54,0,0,0,0,3.08l9.7,0c4.86,0,8.77,4.41,8.77,9.36A9.38,9.38,0,0,1,136.49,99H106.23V58.39Zm60.18,18.67h-7.12a9.26,9.26,0,0,1-9.38-9.42V60.56ZM103.15,99H62.56V60.56l19.2,19.2a1.54,1.54,0,0,0,2.18,0l19.2-19.2V99Zm0,85.16-39.95-40,39.95-39.94v79.9ZM62.56,102H101l-38.4,38.4V102ZM59.48,77.13H42.92L59.48,60.56V77.13Zm0,21.83H21.08L39.83,80.21H59.48V99Zm0,41.49L21.08,102H59.48v38.4Zm133.64-41L149.45,55.75a1.54,1.54,0,0,0-2.63,1.09v4a12.47,12.47,0,0,0-10.33-5.51l-31.8,0h0a1.53,1.53,0,0,0-1.09.44L82.86,76.5,62.11,55.75a1.55,1.55,0,0,0-1.68-.34,1.6,1.6,0,0,0-.49.34h0L16.27,99.42a1.5,1.5,0,0,0,0,2.17h0l43.67,43.66,43.66,43.67a1.57,1.57,0,0,0,1.09.45,1.54,1.54,0,0,0,.59-0.12,1.5,1.5,0,0,0,.49-0.34h0l43.67-43.67,43.67-43.66h0a1.5,1.5,0,0,0,0-2.17" transform="translate(-15.82 -55.3)"/></g></svg>