<svg id="Capa_1" data-name="Capa 1" xmlns="http://www.w3.org/2000/svg" viewBox="0 0 111.26 111.25"><defs><style>.cls-1{fill:#4070b6;}.cls-2{fill:#fff;}.cls-3{fill:#ca2228;}</style></defs><title>en</title><circle class="cls-1" cx="55.63" cy="55.63" r="55.63"/><path class="cls-2" d="M13.16,26.45l77.51,77.68a55.8,55.8,0,0,0,12.21-11.89l-77.8-78A55.85,55.85,0,0,0,13.16,26.45Z" transform="translate(-2.77 -3.2)"/><path class="cls-3" d="M69.51,63l0.17,7.66L97.47,98.42c1.25-1.24,2.46-2.54,3.59-3.9Z" transform="translate(-2.77 -3.2)"/><path class="cls-3" d="M14.9,24.16L46.41,55.81l0.25-7.25L18.41,20.17C17.18,21.44,16,22.78,14.9,24.16Z" transform="translate(-2.77 -3.2)"/><path class="cls-2" d="M91.57,14.17L13.72,92a56.09,56.09,0,0,0,12.12,12l77.68-77.63A55.88,55.88,0,0,0,91.57,14.17Z" transform="translate(-2.77 -3.2)"/><path class="cls-3" d="M23.55,102.17L46.93,78.82,47,71.27,19.57,98.65C20.84,99.88,22.16,101.06,23.55,102.17Z" transform="translate(-2.77 -3.2)"/><path class="cls-3" d="M93.85,16l-25,25,0.87,6.63L97.77,19.53Q95.9,17.65,93.85,16Z" transform="translate(-2.77 -3.2)"/><path class="cls-2" d="M2.77,58.82A55.93,55.93,0,0,0,4.62,73.08H112.18A55.79,55.79,0,0,0,112.54,46H4.27A55.9,55.9,0,0,0,2.77,58.82Z" transform="translate(-2.77 -3.2)"/><path class="cls-2" d="M44.6,112.72a56,56,0,0,0,27.08.13V4.8a55.88,55.88,0,0,0-27.08.13V112.72Z" transform="translate(-2.77 -3.2)"/><path class="cls-3" d="M48.91,113.64a56.15,56.15,0,0,0,18.46.09V3.92a56.08,56.08,0,0,0-9-.72A55.4,55.4,0,0,0,48.91,4V113.64Z" transform="translate(-2.77 -3.2)"/><path class="cls-3" d="M2.77,58.82a56.8,56.8,0,0,0,.89,9.95H113.14a56.12,56.12,0,0,0,.24-18.46H3.43A55.79,55.79,0,0,0,2.77,58.82Z" transform="translate(-2.77 -3.2)"/></svg>