<svg id="Capa_1" data-name="Capa 1" xmlns="http://www.w3.org/2000/svg" viewBox="0 0 111.25 111.25"><defs><style>.cls-1{fill:#eebf31;}.cls-2{fill:#ca2228;}.cls-3,.cls-7{fill:#caac28;}.cls-4{fill:#a61932;}.cls-5{fill:#c5c5c5;}.cls-6,.cls-8{fill:#c30730;}.cls-12,.cls-13,.cls-14,.cls-16,.cls-7,.cls-8{fill-rule:evenodd;}.cls-9{fill:#3b69b0;}.cls-10,.cls-14{fill:#508e6e;}.cls-11{fill:#fff;}.cls-12{fill:#d26ea3;}.cls-13{fill:#f8e6ad;}.cls-15{fill:none;stroke:#1c1b19;stroke-miterlimit:3.86;stroke-width:0.06px;}.cls-16,.cls-17{fill:#020000;}.cls-18{fill:#4172b3;}</style></defs><title>es</title><circle class="cls-1" cx="55.62" cy="55.62" r="55.62"/><path class="cls-2" d="M11.94,28.23h92.91A55.62,55.62,0,0,0,11.94,28.23Z" transform="translate(-2.77 -3.2)"/><path class="cls-2" d="M104.85,89.41H11.94A55.62,55.62,0,0,0,104.85,89.41Z" transform="translate(-2.77 -3.2)"/><polygon class="cls-3" points="19.8 73.55 15.02 73.55 14.24 74.28 14.24 76.26 20.58 76.26 20.58 74.28 19.8 73.55"/><path class="cls-4" d="M16.52,70.81a1.65,1.65,0,0,0-1,1,1.06,1.06,0,0,0,.51.51,1.05,1.05,0,0,1,.52,1.19,1.75,1.75,0,0,0,.59-1.31A1.72,1.72,0,0,0,16.52,70.81Z" transform="translate(-2.77 -3.2)"/><rect class="cls-5" x="15.15" y="50.09" width="4.5" height="23.26"/><path class="cls-4" d="M17.91,64.92c-1.24-.09-2.09-0.45-2.19-1a1.65,1.65,0,0,1,1.1-1.36,9.86,9.86,0,0,0,1.11.09v2.28Z" transform="translate(-2.77 -3.2)"/><path class="cls-4" d="M22.42,63.14a3.63,3.63,0,0,1,1.66.58l0,0.05c0.14,0.3-.54.94-1.69,1.65V63.14Z" transform="translate(-2.77 -3.2)"/><path class="cls-6" d="M27,62a13.57,13.57,0,0,0-4.56-.81,13.88,13.88,0,0,0-2.16.2c-2.69.47-4.73,1.61-4.58,2.53l0,0.08s-1-2.4-1-2.49c-0.18-1,2.09-2.28,5.08-2.81a14,14,0,0,1,2.64-.22,13.72,13.72,0,0,1,4.57.65V62Z" transform="translate(-2.77 -3.2)"/><path class="cls-7" d="M17.24,60.08L17.42,60a0.32,0.32,0,0,1,.41.23,0.35,0.35,0,0,1-.14.45l-0.19.09-0.27-.71m0.16,1.8,0.22-.1,0.23-.08-0.29-.77c0.55-.21.91-0.47,0.73-0.92-0.12-.29-0.4-0.35-0.82-0.18l-0.75.29" transform="translate(-2.77 -3.2)"/><path class="cls-3" d="M19.32,59.34l-0.24.07-0.24,0,0.38,1.83L20.44,61a0.67,0.67,0,0,1,0-.11s0-.08,0-0.12c-0.21.07-.44,0.13-0.72,0.19l-0.35-1.64" transform="translate(-2.77 -3.2)"/><path class="cls-3" d="M21.74,60.92c0.23-.66.5-1.3,0.78-1.95l-0.15,0H22.22c-0.15.47-.32,0.93-0.51,1.4C21.49,60,21.23,59.53,21,59.08l-0.28,0H20.46c0.35,0.6.69,1.2,1,1.82l0.13,0h0.14" transform="translate(-2.77 -3.2)"/><path class="cls-3" d="M24.28,59.51c0-.09.08-0.18,0.13-0.26a0.92,0.92,0,0,0-.5-0.18,0.63,0.63,0,0,0-.81.49c-0.08.66,0.91,0.61,0.87,1a0.32,0.32,0,0,1-.41.24,0.43,0.43,0,0,1-.42-0.35H23.09a2.27,2.27,0,0,1-.14.34,1.15,1.15,0,0,0,.52.17,0.74,0.74,0,0,0,.92-0.51c0.07-.63-0.93-0.67-0.89-1a0.29,0.29,0,0,1,.38-0.23,0.4,0.4,0,0,1,.35.28h0" transform="translate(-2.77 -3.2)"/><path class="cls-8" d="M15.12,69.41c-0.11-.38,1.1-1.13,2.81-1.79,0.79-.3,1.44-0.61,2.24-1,2.39-1.12,4.15-2.39,3.93-2.86l0-.05a17.84,17.84,0,0,1,.33,2.41c0.22,0.43-1.4,1.69-3.59,2.8-0.71.36-2.19,0.93-2.89,1.19-1.25.46-2.51,1.33-2.39,1.65Z" transform="translate(-2.77 -3.2)"/><path class="cls-9" d="M24.5,79.12a2.23,2.23,0,0,1-1.09-.25,2.53,2.53,0,0,0-2.15,0,2.31,2.31,0,0,1-1.08.25,2.25,2.25,0,0,1-1.09-.26A2.34,2.34,0,0,0,18,78.64a2.27,2.27,0,0,0-1.07.23,2.3,2.3,0,0,1-1.09.26v0.71A2.33,2.33,0,0,0,17,79.57a2.49,2.49,0,0,1,2.12,0,2.25,2.25,0,0,0,1.09.26,2.28,2.28,0,0,0,1.08-.26,2.5,2.5,0,0,1,2.15,0,2.2,2.2,0,0,0,1.08.26V79.12Z" transform="translate(-2.77 -3.2)"/><path class="cls-5" d="M24.5,79.83a2.23,2.23,0,0,1-1.09-.26,2.5,2.5,0,0,0-2.15,0,2.28,2.28,0,0,1-1.08.26,2.25,2.25,0,0,1-1.09-.26,2.49,2.49,0,0,0-2.12,0,2.33,2.33,0,0,1-1.09.26v0.7A2.34,2.34,0,0,0,17,80.28,2.24,2.24,0,0,1,18,80a2.35,2.35,0,0,1,1.05.23,2.24,2.24,0,0,0,1.09.26,2.32,2.32,0,0,0,1.08-.25,2.5,2.5,0,0,1,2.15,0,2.2,2.2,0,0,0,1.08.25v-0.7Z" transform="translate(-2.77 -3.2)"/><path class="cls-9" d="M24.5,80.53a2.23,2.23,0,0,1-1.09-.25,2.5,2.5,0,0,0-2.15,0,2.32,2.32,0,0,1-1.08.25,2.24,2.24,0,0,1-1.09-.26A2.35,2.35,0,0,0,18,80a2.24,2.24,0,0,0-1.07.24,2.34,2.34,0,0,1-1.09.26v0.7A2.3,2.3,0,0,0,17,81,2.28,2.28,0,0,1,18,80.74a2.31,2.31,0,0,1,1.05.23,2.21,2.21,0,0,0,1.09.26A2.32,2.32,0,0,0,21.26,81a2.3,2.3,0,0,1,1.08-.25,2.34,2.34,0,0,1,1.07.24,2.16,2.16,0,0,0,1.08.25v-0.7Z" transform="translate(-2.77 -3.2)"/><path class="cls-5" d="M24.49,81.94a2.2,2.2,0,0,1-1.08-.25,2.34,2.34,0,0,0-1.07-.24,2.3,2.3,0,0,0-1.08.25,2.36,2.36,0,0,1-1.08.25,2.25,2.25,0,0,1-1.09-.26,2.51,2.51,0,0,0-2.12,0,2.34,2.34,0,0,1-1.09.26v-0.7A2.3,2.3,0,0,0,17,81,2.28,2.28,0,0,1,18,80.74a2.31,2.31,0,0,1,1.05.23,2.21,2.21,0,0,0,1.09.26A2.32,2.32,0,0,0,21.26,81a2.3,2.3,0,0,1,1.08-.25,2.34,2.34,0,0,1,1.07.24,2.19,2.19,0,0,0,1.09.25v0.71Z" transform="translate(-2.77 -3.2)"/><path class="cls-9" d="M24.49,82.65a2.23,2.23,0,0,1-1.08-.25,2.48,2.48,0,0,0-2.15,0,2.35,2.35,0,0,1-1.08.25,2.25,2.25,0,0,1-1.09-.26A2.3,2.3,0,0,0,18,82.15a2.27,2.27,0,0,0-1.07.24,2.3,2.3,0,0,1-1.09.26v-0.7A2.34,2.34,0,0,0,17,81.68a2.51,2.51,0,0,1,2.12,0,2.25,2.25,0,0,0,1.09.26,2.36,2.36,0,0,0,1.08-.25,2.3,2.3,0,0,1,1.08-.25,2.34,2.34,0,0,1,1.07.24,2.22,2.22,0,0,0,1.08.25v0.7Z" transform="translate(-2.77 -3.2)"/><polygon class="cls-3" points="15.02 49.89 19.8 49.89 20.58 49.16 20.58 47.19 14.24 47.19 14.24 49.16 15.02 49.89"/><path class="cls-6" d="M21.57,47a1.17,1.17,0,0,0-.49.12,1.21,1.21,0,0,0-1-.61A1.24,1.24,0,0,0,19,47.1,1.07,1.07,0,0,0,18.5,47a1.12,1.12,0,1,0,0,2.24,1.09,1.09,0,0,0,.45-0.1,1.19,1.19,0,0,0,1.12.55,1.16,1.16,0,0,0,1.1-.54,1.13,1.13,0,0,0,.41.08A1.12,1.12,0,1,0,21.57,47Z" transform="translate(-2.77 -3.2)"/><path class="cls-3" d="M20,48.09a1.21,1.21,0,0,0,0-1.8A1.21,1.21,0,0,0,20,48.09Zm0.33,1,0.85-1.88A0.15,0.15,0,0,0,21.14,47,0.14,0.14,0,0,0,21,47L20,49h0l-0.9-2A0.15,0.15,0,0,0,18.92,47a0.15,0.15,0,0,0-.08.19L19.69,49h-1.8L18,49.81h4.11L22.18,49H20.37Z" transform="translate(-2.77 -3.2)"/><circle class="cls-10" cx="15.62" cy="46.25" r="0.18"/><path class="cls-11" d="M19.39,49.45a0.18,0.18,0,0,1-.18.19,0.18,0.18,0,1,1,0-.37A0.18,0.18,0,0,1,19.39,49.45Z" transform="translate(-2.77 -3.2)"/><path class="cls-6" d="M20.21,49.45a0.18,0.18,0,0,1-.18.19,0.18,0.18,0,0,1,0-.37A0.18,0.18,0,0,1,20.21,49.45Z" transform="translate(-2.77 -3.2)"/><circle class="cls-10" cx="18.88" cy="46.25" r="0.18"/><path class="cls-11" d="M21,49.45a0.19,0.19,0,0,1-.19.19,0.18,0.18,0,0,1,0-.37A0.18,0.18,0,0,1,21,49.45Z" transform="translate(-2.77 -3.2)"/><path class="cls-4" d="M63.93,70.81a1.65,1.65,0,0,1,1,1,1.06,1.06,0,0,1-.51.51,1,1,0,0,0-.52,1.19A1.74,1.74,0,0,1,63.93,70.81Z" transform="translate(-2.77 -3.2)"/><path class="cls-4" d="M62.54,64.92c1.24-.09,2.1-0.45,2.19-1a1.63,1.63,0,0,0-1.1-1.36,9.52,9.52,0,0,1-1.1.09v2.28Z" transform="translate(-2.77 -3.2)"/><path class="cls-4" d="M58,63.14a3.6,3.6,0,0,0-1.65.58l0,0.05c-0.14.3,0.54,0.94,1.68,1.65V63.14Z" transform="translate(-2.77 -3.2)"/><polygon class="cls-3" points="59.91 73.55 55.13 73.55 54.34 74.28 54.34 76.26 60.7 76.26 60.7 74.28 59.91 73.55"/><rect class="cls-5" x="55.26" y="50.09" width="4.5" height="23.26"/><path class="cls-9" d="M64.61,79.12a2.27,2.27,0,0,1-1.09-.25,2.26,2.26,0,0,0-1.07-.24,2.34,2.34,0,0,0-1.08.24,2.45,2.45,0,0,1-2.18,0,2.29,2.29,0,0,0-1-.23,2.23,2.23,0,0,0-1.07.23,2.29,2.29,0,0,1-1.1.26v0.71a2.32,2.32,0,0,0,1.1-.26,2.47,2.47,0,0,1,2.11,0,2.28,2.28,0,0,0,1.1.26,2.24,2.24,0,0,0,1.08-.26,2.38,2.38,0,0,1,1.08-.24,2.3,2.3,0,0,1,1.07.24,2.26,2.26,0,0,0,1.08.26V79.12Z" transform="translate(-2.77 -3.2)"/><path class="cls-5" d="M64.61,79.83a2.27,2.27,0,0,1-1.09-.26,2.3,2.3,0,0,0-1.07-.24,2.38,2.38,0,0,0-1.08.24,2.24,2.24,0,0,1-1.08.26,2.28,2.28,0,0,1-1.1-.26,2.47,2.47,0,0,0-2.11,0,2.32,2.32,0,0,1-1.1.26v0.7a2.33,2.33,0,0,0,1.1-.26A2.2,2.2,0,0,1,58.15,80a2.3,2.3,0,0,1,1,.23,2.44,2.44,0,0,0,2.18,0A2.34,2.34,0,0,1,62.45,80a2.26,2.26,0,0,1,1.07.24,2.26,2.26,0,0,0,1.08.25v-0.7Z" transform="translate(-2.77 -3.2)"/><path class="cls-9" d="M64.61,80.53a2.27,2.27,0,0,1-1.09-.25A2.26,2.26,0,0,0,62.45,80a2.34,2.34,0,0,0-1.08.24,2.44,2.44,0,0,1-2.18,0,2.3,2.3,0,0,0-1-.23,2.2,2.2,0,0,0-1.07.24,2.33,2.33,0,0,1-1.1.26v0.7a2.29,2.29,0,0,0,1.1-.26,2.48,2.48,0,0,1,2.11,0,2.24,2.24,0,0,0,1.1.26A2.27,2.27,0,0,0,61.37,81a2.33,2.33,0,0,1,1.08-.25,2.29,2.29,0,0,1,1.07.24,2.22,2.22,0,0,0,1.08.25v-0.7Z" transform="translate(-2.77 -3.2)"/><path class="cls-5" d="M64.6,81.94a2.26,2.26,0,0,1-1.08-.25,2.29,2.29,0,0,0-1.07-.24,2.33,2.33,0,0,0-1.08.25,2.31,2.31,0,0,1-1.08.25,2.28,2.28,0,0,1-1.1-.26,2.22,2.22,0,0,0-1-.23,2.24,2.24,0,0,0-1.07.24,2.33,2.33,0,0,1-1.1.26v-0.7a2.29,2.29,0,0,0,1.1-.26,2.48,2.48,0,0,1,2.11,0,2.24,2.24,0,0,0,1.1.26A2.27,2.27,0,0,0,61.37,81a2.33,2.33,0,0,1,1.08-.25,2.29,2.29,0,0,1,1.07.24,2.23,2.23,0,0,0,1.09.25v0.71Z" transform="translate(-2.77 -3.2)"/><path class="cls-9" d="M64.6,82.65a2.29,2.29,0,0,1-1.08-.25,2.22,2.22,0,0,0-1.07-.25,2.3,2.3,0,0,0-1.08.25,2.3,2.3,0,0,1-1.08.25,2.28,2.28,0,0,1-1.1-.26,2.48,2.48,0,0,0-2.11,0,2.29,2.29,0,0,1-1.1.26v-0.7a2.33,2.33,0,0,0,1.1-.26,2.24,2.24,0,0,1,1.07-.24,2.22,2.22,0,0,1,1,.23,2.28,2.28,0,0,0,1.1.26,2.31,2.31,0,0,0,1.08-.25,2.33,2.33,0,0,1,1.08-.25,2.29,2.29,0,0,1,1.07.24,2.27,2.27,0,0,0,1.09.25v0.7Z" transform="translate(-2.77 -3.2)"/><polygon class="cls-3" points="55.13 49.89 59.91 49.89 60.7 49.16 60.7 47.19 54.34 47.19 54.34 49.16 55.13 49.89"/><path class="cls-6" d="M61.68,47a1.07,1.07,0,0,0-.48.12,1.22,1.22,0,0,0-2.11,0A1.1,1.1,0,0,0,58.61,47a1.12,1.12,0,0,0,0,2.24,1.18,1.18,0,0,0,.46-0.1,1.38,1.38,0,0,0,2.2,0,1.22,1.22,0,0,0,.42.08A1.12,1.12,0,1,0,61.68,47Z" transform="translate(-2.77 -3.2)"/><path class="cls-3" d="M60.15,48.09a1.21,1.21,0,0,0,0-1.8A1.2,1.2,0,0,0,60.15,48.09Zm0.33,1,0.86-1.88A0.15,0.15,0,0,0,61.27,47a0.15,0.15,0,0,0-.2.08l-0.9,2h0l-0.91-2A0.14,0.14,0,0,0,59,47a0.15,0.15,0,0,0-.08.19L59.8,49H58l0.09,0.77h4.1L62.29,49h-1.8Z" transform="translate(-2.77 -3.2)"/><circle class="cls-10" cx="55.74" cy="46.25" r="0.18"/><ellipse class="cls-11" cx="56.55" cy="46.25" rx="0.18" ry="0.18"/><circle class="cls-6" cx="57.36" cy="46.25" r="0.18"/><circle class="cls-10" cx="58.99" cy="46.25" r="0.18"/><circle class="cls-11" cx="58.18" cy="46.25" r="0.18"/><path class="cls-6" d="M53.44,62A13.58,13.58,0,0,1,58,61.18a13.75,13.75,0,0,1,2.15.2c2.69,0.47,4.75,1.61,4.58,2.53,0,0,0,.06,0,0.08s1-2.4,1-2.49c0.19-1-2.09-2.28-5.07-2.81A14.09,14.09,0,0,0,58,58.48a13.7,13.7,0,0,0-4.57.65V62Z" transform="translate(-2.77 -3.2)"/><path class="cls-3" d="M56.08,61.09c0.18-.68.4-1.34,0.61-2l-0.15,0-0.15,0c-0.11.48-.25,1-0.39,1.44-0.26-.42-0.56-0.83-0.79-1.26l-0.28.06-0.28,0c0.4,0.56.79,1.14,1.15,1.72l0.13,0h0.14" transform="translate(-2.77 -3.2)"/><path class="cls-3" d="M57.8,59.09l-0.25,0-0.25,0,0,1.87,1.24,0a0.7,0.7,0,0,1,0-.11,0.72,0.72,0,0,1,0-.12c-0.22,0-.46,0-0.75,0l0-1.68" transform="translate(-2.77 -3.2)"/><path class="cls-3" d="M59.74,59.4c0.2,0,.39.05,0.59,0.09a0.24,0.24,0,0,1,0-.12,0.36,0.36,0,0,1,0-.11l-1.68-.15a0.75,0.75,0,0,1,0,.24,5.28,5.28,0,0,1,.6,0L59.11,61h0.24l0.25,0,0.14-1.68" transform="translate(-2.77 -3.2)"/><path class="cls-7" d="M61.3,59.67a0.42,0.42,0,0,1,.44.31,0.4,0.4,0,0,1,0,.14c-0.06.27-.25,0.37-0.59,0.27l0.17-.72m-0.87,1.58,0.24,0,0.24,0.07,0.19-.85h0c0.05,0.12.11,0.26,0.14,0.35l0.25,0.65,0.29,0.05,0.29,0.08L62,61.44c-0.13-.29-0.27-0.59-0.39-0.88a0.53,0.53,0,0,0,.61-0.37A0.41,0.41,0,0,0,62,59.74a1.46,1.46,0,0,0-.5-0.17l-0.68-.16Z" transform="translate(-2.77 -3.2)"/><path class="cls-7" d="M63.13,61.33l0.59-.41-0.07.71-0.52-.3m0.5,0.48c0,0.21-.06.4-0.09,0.61l0.25,0.13L64,62.7l0.16-2.11-0.11-.05L64,60.47l-1.76,1.18,0.14,0.07,0.13,0.09c0.14-.14.3-0.24,0.48-0.38Z" transform="translate(-2.77 -3.2)"/><path class="cls-8" d="M65.33,69.41c0.11-.38-1.1-1.13-2.82-1.79-0.79-.3-1.43-0.61-2.24-1-2.39-1.12-4.15-2.39-3.93-2.86l0-.05A16.87,16.87,0,0,0,56,66.13c-0.21.43,1.39,1.69,3.59,2.8,0.7,0.36,2.19.93,2.89,1.19,1.26,0.46,2.5,1.33,2.39,1.65Z" transform="translate(-2.77 -3.2)"/><path class="cls-5" d="M54.1,75.41a7,7,0,0,1-3.69,6.19,22.1,22.1,0,0,1-20.4,0,7,7,0,0,1-3.7-6.19V65.68H54.1" transform="translate(-2.77 -3.2)"/><rect class="cls-5" x="37.43" y="46.26" width="13.91" height="16.28"/><rect class="cls-6" x="23.54" y="46.26" width="13.89" height="16.28"/><path class="cls-6" d="M40.21,75.46a6.95,6.95,0,1,1-13.89,0V65.72H40.21v9.74" transform="translate(-2.77 -3.2)"/><path class="cls-3" d="M26.31,75.46a7,7,0,0,0,1.56,4.39V65.72H26.31v9.74Zm12.33-9.74V79.87a7,7,0,0,0,1.56-4.41V65.72H38.65ZM35.54,82a7.15,7.15,0,0,0,1.64-.82V65.72H35.54V82Zm-3.1.33a7.14,7.14,0,0,0,.83.05,6.56,6.56,0,0,0,.8,0V65.72H32.45V82.37Zm-3.1-1.16A6.88,6.88,0,0,0,31,82V65.72H29.35V81.21Z" transform="translate(-2.77 -3.2)"/><path class="cls-6" d="M54.13,65.72v9.74a7,7,0,0,1-13.92,0V65.72H54.13Z" transform="translate(-2.77 -3.2)"/><path class="cls-6" d="M47.29,53.47l0-.18,0-.1a2.44,2.44,0,0,1-.68,0A1.73,1.73,0,0,1,46,52.78a1.09,1.09,0,0,0-.46-0.34,1,1,0,0,0-.66.12,1.27,1.27,0,0,1,.49.38,1.37,1.37,0,0,0,.54.44,6.21,6.21,0,0,0,.9,0Z" transform="translate(-2.77 -3.2)"/><path class="cls-12" d="M49.38,52.8s0,0.21,0,.41-0.06.36,0,.47,0.05,0.19.09,0.27a1.26,1.26,0,0,1,.06.27l-0.21-.15a1.53,1.53,0,0,0-.17-0.13s0,0.21,0,.3a0.81,0.81,0,0,0,.14.36,2.08,2.08,0,0,1,.3.39,1.74,1.74,0,0,1,0,.42,0.76,0.76,0,0,0-.24-0.26A3.14,3.14,0,0,1,49,55a0.81,0.81,0,0,1,.22.45,1.68,1.68,0,0,1-.09.47,1.31,1.31,0,0,0-.23-0.33,3.07,3.07,0,0,0-.32-0.26,1.88,1.88,0,0,1,.15.57c0,0.23,0,.72,0,0.72a1.27,1.27,0,0,0-.22-0.28,1.59,1.59,0,0,1-.28-0.23,1.62,1.62,0,0,1,.15.34,3.09,3.09,0,0,0,.52,1.37,1.37,1.37,0,0,0,1.52.87c0.87-.23.54-1.46,0.37-2a5.52,5.52,0,0,1-.26-1.42c0-.22.16-0.87,0.15-1a2.48,2.48,0,0,1,0-1c0.11-.39.2-0.54,0.25-0.7a1.9,1.9,0,0,0,.13-0.39,3,3,0,0,0,0-.4s0.16,0.31.2,0.42a2.26,2.26,0,0,1,0,.44,0.72,0.72,0,0,1,.27-0.49,4.39,4.39,0,0,0,.59-0.42,0.77,0.77,0,0,0,.09-0.15,2.05,2.05,0,0,1-.18.78C52,52.51,51.66,53,51.66,53A1.45,1.45,0,0,1,52,52.89h0.24a2.19,2.19,0,0,0-.39.48,6.25,6.25,0,0,0-.3.65,1.36,1.36,0,0,1-.49.46A2.08,2.08,0,0,0,51,55.9a12.51,12.51,0,0,1,.57,1.69A1.63,1.63,0,0,1,51.1,59a3.07,3.07,0,0,1-1,.36,1,1,0,0,0-.37.85,0.75,0.75,0,0,0,.32.73,3,3,0,0,1,.36.16,0.69,0.69,0,0,0,.12.22,0.22,0.22,0,0,1,.08.24,6.24,6.24,0,0,1-.33.54,5,5,0,0,0-.23.72,0.86,0.86,0,0,0,.05.4s0.24,0.31.08,0.37a0.62,0.62,0,0,1-.26-0.06,2.9,2.9,0,0,0-.27.13c-0.11,0-.11-0.08-0.11-0.22s0-.21-0.05-0.21-0.09,0-.1.13,0,0.26-.08.26a0.9,0.9,0,0,1-.23-0.16,0.41,0.41,0,0,1-.24-0.14A0.33,0.33,0,0,1,49.07,63c0.11,0,.21-0.09.14-0.15a0.15,0.15,0,0,0-.21,0c-0.08.06-.22,0-0.21-0.08a1.25,1.25,0,0,0,0-.25c0-.05-0.13-0.15,0-0.24a0.91,0.91,0,0,1,.39,0,0.41,0.41,0,0,0,.31-0.19,0.44,0.44,0,0,0-.07-0.44c-0.1-.13-0.21-0.15-0.25-0.23a2.28,2.28,0,0,1-.11-0.27,3.57,3.57,0,0,1,0,.4,1,1,0,0,0,0,.26l-0.19-.23a1.35,1.35,0,0,1-.18-0.4s0,0.28,0,.39a2.63,2.63,0,0,1,.08.25,0.84,0.84,0,0,1-.28-0.25,1,1,0,0,1-.28-0.31,2.48,2.48,0,0,1-.15-0.41,1.26,1.26,0,0,1,0-.46c0.06-.12.13-0.33,0.13-0.33H47.82c-0.21,0-.37-0.07-0.45.08a1.42,1.42,0,0,0,.07.84,2,2,0,0,1,.13.65,0.84,0.84,0,0,1-.21.26,0.37,0.37,0,0,1-.25,0,0.67,0.67,0,0,0-.35-0.08,2.48,2.48,0,0,1-.38,0,0.86,0.86,0,0,0-.32-0.09,0.19,0.19,0,0,0-.18.21c0.06,0.18-.06.22-0.14,0.21a2,2,0,0,1-.25-0.07c-0.1,0-.25,0-0.23-0.12a0.57,0.57,0,0,1,.11-0.22c0.06-.09.07-0.14,0-0.15a0.26,0.26,0,0,0-.2,0,0.24,0.24,0,0,1-.21.11,0.31,0.31,0,0,1-.13-0.31c0-.19-0.18-0.35,0-0.34a0.65,0.65,0,0,0,.43,0,0.17,0.17,0,0,0-.08-0.23c-0.1-.08-0.21-0.13-0.09-0.23s0.16-.1.2-0.16,0.12-.23.2-0.19a1.27,1.27,0,0,1,.18.42,0.54,0.54,0,0,0,.57.24c0.28,0,.37-0.07.37-0.16s0-.24,0-0.31a1.92,1.92,0,0,1,0-.29,0.53,0.53,0,0,0-.17.17c0,0.08-.12.23-0.12,0.23a1.74,1.74,0,0,1,0-.32,2,2,0,0,0,0-.26c0-.08-0.06-0.28-0.06-0.28a2.31,2.31,0,0,1-.08.28,1.88,1.88,0,0,0,0,.31A0.5,0.5,0,0,1,46,60a3.63,3.63,0,0,1,0-.61,0.75,0.75,0,0,1,.57-0.49c0.37,0,.64,0,0.77,0s0.57-.09.57-0.09-0.82-.45-1-0.58a2.7,2.7,0,0,1-.57-0.63,2.49,2.49,0,0,1-.18-0.46,0.67,0.67,0,0,0-.28.09,1.32,1.32,0,0,0-.34.29,2.53,2.53,0,0,0-.2.31s0-.27,0-0.36,0-.25,0-0.25a1.15,1.15,0,0,1-.28.51c-0.2.14-.41,0.33-0.41,0.33s0-.21,0-0.26,0.06-.29.06-0.29a0.64,0.64,0,0,1-.35.25,0.72,0.72,0,0,0-.52.16,1.85,1.85,0,0,1,0,.41,0.44,0.44,0,0,1-.15.16,0.48,0.48,0,0,0-.21-0.11,0.42,0.42,0,0,0-.2.05,0.28,0.28,0,0,1-.05-0.2A0.77,0.77,0,0,0,43.45,58a0.28,0.28,0,0,0-.25.05C43.13,58,43,58.09,43,58a0.59,0.59,0,0,0,0-.31,0.12,0.12,0,0,1,0-.18,1,1,0,0,0,.33-0.05c0-.07-0.06-0.15-0.22-0.18S42.9,57.09,43,57a0.68,0.68,0,0,0,.14-0.19c0-.08.06-0.22,0.2-0.15a3.43,3.43,0,0,0,.27.3,1.11,1.11,0,0,0,.6-0.07c0.08,0,.33-0.24.41-0.29s0.45-.33.45-0.33-0.2-.15-0.28-0.24a3.52,3.52,0,0,0-.3-0.3A2.15,2.15,0,0,0,44,55.55a3.39,3.39,0,0,1-.48-0.14,1,1,0,0,0,.23-0.1A0.48,0.48,0,0,1,44,55.16H44a2.91,2.91,0,0,1-.4,0A2.2,2.2,0,0,0,43.27,55,1.71,1.71,0,0,0,43,55a1.26,1.26,0,0,1,.38-0.17,1.48,1.48,0,0,1,.3,0,0.76,0.76,0,0,1-.32-0.17c-0.07-.09-0.13-0.23-0.18-0.3a0.28,0.28,0,0,0-.17-0.17c-0.08,0-.23.11-0.32,0.1a0.18,0.18,0,0,1-.16-0.2,0.24,0.24,0,0,0,0-.16c0-.07-0.15-0.23,0-0.27a3.61,3.61,0,0,0,.38,0,0.42,0.42,0,0,0-.23-0.24c-0.11-.06-0.27-0.15-0.18-0.23A1.16,1.16,0,0,0,42.71,53c0-.07.11-0.27,0.2-0.2a1.61,1.61,0,0,0,.32.34,0.42,0.42,0,0,0,.08-0.33c0-.09,0-0.26.07-0.25a0.91,0.91,0,0,0,.27.13c0.12,0,.32,0,0.3.06a0.74,0.74,0,0,1-.18.31,0.51,0.51,0,0,0-.07.44,1.15,1.15,0,0,0,.32.43c0.13,0.09.36,0.15,0.51,0.25a4.28,4.28,0,0,0,.61.42,1.26,1.26,0,0,1,.23.09,0.81,0.81,0,0,1,.32-0.06,2.77,2.77,0,0,0,.74,0c0.16-.07.37-0.19,0.3-0.34a2.24,2.24,0,0,1-.38-0.4c0-.12.16-0.12,0.37-0.13s0.5,0,.56-0.27,0.06-.49-0.23-0.56a0.58,0.58,0,0,1-.57-0.31c-0.06-.23-0.11-0.28-0.05-0.34a0.61,0.61,0,0,1,.39-0.11A1.51,1.51,0,0,0,47.37,52c0.08-.06.08-0.2,0.17-0.26A1.7,1.7,0,0,1,48,51.65a5.32,5.32,0,0,1,.78.5A4.47,4.47,0,0,1,49.38,52.8Z" transform="translate(-2.77 -3.2)"/><path class="cls-8" d="M43.41,52.54a0.75,0.75,0,0,0,.23.12l0.23,0a0.45,0.45,0,0,0,0-.27A0.52,0.52,0,0,0,43.54,52a0.64,0.64,0,0,1,0,.32A1.06,1.06,0,0,1,43.41,52.54Z" transform="translate(-2.77 -3.2)"/><path class="cls-8" d="M42.78,52.84a0.39,0.39,0,0,0-.37-0.2,0.68,0.68,0,0,0-.41.23,1,1,0,0,1,.34,0,0.42,0.42,0,0,1,.13.25,1.13,1.13,0,0,0,.2-0.16Z" transform="translate(-2.77 -3.2)"/><path class="cls-8" d="M42.47,53.75a0.57,0.57,0,0,0-.33.17,0.66,0.66,0,0,0-.1.4,0.47,0.47,0,0,1,.26-0.15,1.74,1.74,0,0,1,.32,0A1,1,0,0,1,42.56,54,0.78,0.78,0,0,0,42.47,53.75Z" transform="translate(-2.77 -3.2)"/><path class="cls-8" d="M43.18,56.71a0.36,0.36,0,0,0-.32-0.09,0.59,0.59,0,0,0-.33.28,0.77,0.77,0,0,1,.27,0A0.29,0.29,0,0,1,43,57l0.13-.13A1.43,1.43,0,0,0,43.18,56.71Z" transform="translate(-2.77 -3.2)"/><path class="cls-6" d="M42.95,57.58a0.43,0.43,0,0,0-.32.09,0.56,0.56,0,0,0-.16.37,0.4,0.4,0,0,1,.25-0.11A1,1,0,0,1,43,58l0-.19A0.41,0.41,0,0,0,42.95,57.58Z" transform="translate(-2.77 -3.2)"/><path class="cls-6" d="M43.34,58.38a0.73,0.73,0,0,0,.09.38,0.52,0.52,0,0,0,.32.17,1.5,1.5,0,0,1-.08-0.23,0.28,0.28,0,0,1,.09-0.22,0.34,0.34,0,0,0-.2-0.11Z" transform="translate(-2.77 -3.2)"/><path class="cls-8" d="M45.38,60.43A0.45,0.45,0,0,0,45,60.26a0.74,0.74,0,0,0-.4.2,0.45,0.45,0,0,1,.31.06,1.63,1.63,0,0,1,.12.19,1,1,0,0,0,.16-0.1A1.4,1.4,0,0,0,45.38,60.43Z" transform="translate(-2.77 -3.2)"/><path class="cls-8" d="M44.77,61.25a0.48,0.48,0,0,0-.38.1,0.7,0.7,0,0,0-.11.4,0.44,0.44,0,0,1,.29-0.16,1.18,1.18,0,0,1,.31.09l0-.23Z" transform="translate(-2.77 -3.2)"/><path class="cls-8" d="M45.33,62.12a0.36,0.36,0,0,0,0,.33,0.66,0.66,0,0,0,.29.22,0.36,0.36,0,0,1,0-.24,0.79,0.79,0,0,1,.2-0.24Z" transform="translate(-2.77 -3.2)"/><path class="cls-8" d="M48.76,62.48a0.54,0.54,0,0,0-.35,0,1,1,0,0,0-.23.4,0.61,0.61,0,0,1,.35-0.15,1,1,0,0,1,.26.09,1.33,1.33,0,0,0,0-.23A1,1,0,0,0,48.76,62.48Z" transform="translate(-2.77 -3.2)"/><path class="cls-8" d="M48.87,63.35a0.38,0.38,0,0,0-.11.34,2.17,2.17,0,0,0,.17.32,0.56,0.56,0,0,1,.06-0.3,0.58,0.58,0,0,1,.29-0.11,0.86,0.86,0,0,0-.2-0.15Z" transform="translate(-2.77 -3.2)"/><path class="cls-8" d="M49.74,63.62a0.36,0.36,0,0,0,.08.38,0.61,0.61,0,0,0,.31.16A0.7,0.7,0,0,1,50,63.81a0.48,0.48,0,0,1,.15-0.21,1.43,1.43,0,0,0-.23-0.06Z" transform="translate(-2.77 -3.2)"/><path class="cls-13" d="M40.93,79.84A1.19,1.19,0,0,1,41.8,81a1.34,1.34,0,0,1-1.47,1.22A1.36,1.36,0,0,1,38.84,81a1.05,1.05,0,0,1,.85-1.15,0.6,0.6,0,0,0-.06-0.15l-0.18-.19a0.81,0.81,0,0,1,.35,0,0.69,0.69,0,0,1,.21.14,1.39,1.39,0,0,1,.15-0.22,0.94,0.94,0,0,1,.2-0.16,1.28,1.28,0,0,1,.16.19,0.84,0.84,0,0,1,.07.17,0.86,0.86,0,0,1,.22-0.14A1.74,1.74,0,0,1,41,79.43s0,0.14-.06.2A1.16,1.16,0,0,0,40.93,79.84Z" transform="translate(-2.77 -3.2)"/><path class="cls-10" d="M40.21,83a7.43,7.43,0,0,0-1.58-.89,7.39,7.39,0,0,0-1.59,0s0.35,0.27.5,0.43a3,3,0,0,0,1,.56A3.2,3.2,0,0,0,40.21,83Z" transform="translate(-2.77 -3.2)"/><path class="cls-10" d="M40.52,83.06A3,3,0,0,1,42,82.18a3.77,3.77,0,0,1,1.78.17s-0.28.15-.44,0.25a1.88,1.88,0,0,1-1.14.47c-0.6,0-1.27-.07-1.37-0.05Z" transform="translate(-2.77 -3.2)"/><path class="cls-6" d="M40.31,82.1a1.52,1.52,0,0,1,0-2.17A1.52,1.52,0,0,1,40.31,82.1Z" transform="translate(-2.77 -3.2)"/><path class="cls-14" d="M40,83.68a2.67,2.67,0,0,0,.14-1.46H40.4a2.51,2.51,0,0,1,.11.64,5.76,5.76,0,0,1-.06.69,1.42,1.42,0,0,0-.2.05Z" transform="translate(-2.77 -3.2)"/><rect class="cls-3" x="36.84" y="64.86" width="1.21" height="0.3"/><rect class="cls-15" x="36.84" y="64.86" width="1.21" height="0.3"/><path class="cls-3" d="M36.11,61.39V57.12h0.54V55.22H35.73V53.88h0.4v-1H35.77V53.2H35.4V52.92H35V53.2h-0.4V52.92H34.23v1H34.6v1.34H33.85V52.36h0.52v-1.1H34v0.28H33.59V51.26H33v0.28H32.61V51.26H32.27v1.1h0.46v2.86H32V53.88h0.4v-1H32V53.2H31.61V52.92H31.19V53.2H30.8V52.92H30.45v1h0.38v1.34H30v1.91h0.52v4.26H29.37v2.08h3.19V62.18a0.74,0.74,0,0,1,.74-0.75,0.75,0.75,0,0,1,.75.75v1.29h3.17V61.39h-1.1Zm-4.15-2H31.28V58.54a0.35,0.35,0,0,1,.33-0.36,0.36,0.36,0,0,1,.35.36v0.83Zm3.37,0H34.64V58.54A0.35,0.35,0,0,1,35,58.18a0.36,0.36,0,0,1,.35.36v0.83Z" transform="translate(-2.77 -3.2)"/><path class="cls-11" d="M48,52.24a0.15,0.15,0,0,1-.16.15,0.15,0.15,0,0,1,0-.31A0.15,0.15,0,0,1,48,52.24Z" transform="translate(-2.77 -3.2)"/><polygon class="cls-16" points="43.73 50.53 43.82 50.37 43.92 50.51 43.73 50.53"/><polygon class="cls-16" points="43.95 50.52 44.07 50.36 44.18 50.5 43.95 50.52"/><polygon class="cls-17" points="43.85 49.56 44.08 49.65 43.88 49.75 43.85 49.56"/><polygon class="cls-17" points="44.13 49.63 44.33 49.69 44.17 49.82 44.13 49.63"/><path class="cls-3" d="M50.44,52.51a0.22,0.22,0,0,0-.25.07h0l0-.21H50l-0.09.13L50,52.6c-0.13,0-.34,0-0.33-0.13a0.12,0.12,0,0,1,0-.06,0.2,0.2,0,0,1-.09,0,0.15,0.15,0,0,1,0-.2l0,0v0l0.08,0.21,0.16,0,0-.15L49.8,52,50,52l0-.16-0.16,0-0.09.2-0.06-.18-0.15,0L49.46,52l0.2,0.08h0l0,0a0.16,0.16,0,0,1-.23,0,0.12,0.12,0,0,1,0-.14,0.16,0.16,0,0,1-.13,0,0.18,0.18,0,0,1,0-.24l0.08-.08,0.08,0.15,0.15-.06,0-.15-0.19-.05,0.2-.1-0.06-.16-0.16,0-0.06.21-0.09-.18L49,51.35l0,0.16,0.18,0.05a0.34,0.34,0,0,1-.07.1,0.16,0.16,0,0,1-.23,0,0.16,0.16,0,0,1,0-.12,0.12,0.12,0,0,1-.13,0,0.16,0.16,0,0,1,0-.23l0-.05v0l0.13,0.16,0.13-.08V51.16l-0.2,0L48.88,51l-0.07-.15H48.65l0,0.21-0.12-.16L48.36,51v0.16l0.23,0H48.54l0,0.05a0.15,0.15,0,0,1-.19.05,0.18,0.18,0,0,1,0-.08,0.1,0.1,0,0,1-.05,0c-0.11,0-.17-0.16-0.2-0.3l0.1,0.1,0.12-.1,0-.16-0.21,0h0a0.2,0.2,0,0,0,0-.25,0.21,0.21,0,0,0-.23,0,0.62,0.62,0,0,1,.1.12,1.66,1.66,0,0,1,.07.21h0v0l0,0v0a1.27,1.27,0,0,1,0,.38,1.77,1.77,0,0,1-.08.35,2.67,2.67,0,0,1,.83.48,2.73,2.73,0,0,1,.65.71,2.37,2.37,0,0,1,.32-0.15,1.43,1.43,0,0,1,.38-0.06v0l0,0,0,0,0.21,0a0.56,0.56,0,0,1,.15.08A0.23,0.23,0,0,0,50.44,52.51Z" transform="translate(-2.77 -3.2)"/><path class="cls-7" d="M51.93,72.55v-4a0.76,0.76,0,1,0-1-1H47.78a0.75,0.75,0,0,0-.71-0.5,0.76,0.76,0,0,0-.71.5h-3.2a0.75,0.75,0,1,0-1,1v4a0.76,0.76,0,0,0,0,1.42v1.51a4.88,4.88,0,0,0,.38,1.9,0.76,0.76,0,0,0-.21.52,0.76,0.76,0,0,0,.76.76,0.69,0.69,0,0,0,.21,0,4.9,4.9,0,0,0,3,1.7,0.75,0.75,0,0,0,1.46,0,4.88,4.88,0,0,0,3-1.69,0.63,0.63,0,0,0,.21,0,0.75,0.75,0,0,0,.54-1.28,4.88,4.88,0,0,0,.39-1.9V74A0.76,0.76,0,0,0,51.93,72.55Zm-0.25-5a0.31,0.31,0,1,1,0,.62A0.31,0.31,0,0,1,51.68,67.52Zm-0.3,1h0v4A0.75,0.75,0,0,0,51,73H50.16l-0.08-.47H48.67L48.58,73H47.78a0.86,0.86,0,0,0-.08-0.16l1.21-1.41,0.4,0.24,0.92-1.07-0.3-.37ZM49.74,73v0.51H49V73h0.74Zm-1-2.24,0.48-.56,0.38,0.33-0.47.55Zm-1-2.68H51a0.94,0.94,0,0,1,0,.09L49.54,69.9l-0.42-.24L48.2,70.72l0.31,0.38-1.19,1.39V70.73l0.47-.09V69.23l-0.47-.09v-0.6A0.77,0.77,0,0,0,47.78,68.09Zm-1,2.21V69.57h0.51V70.3H46.81Zm0.26-2.78a0.31,0.31,0,1,1-.32.31A0.31,0.31,0,0,1,47.07,67.52Zm0.25,9.39v0.73H46.81V76.91h0.51Zm-4.16-8.82h3.2a0.75,0.75,0,0,0,.45.46v0.6l-0.47.09v1.41l0.47,0.09v1.77L45.63,71.1l0.3-.38L45,69.65l-0.42.24-1.46-1.72S43.15,68.12,43.16,68.09Zm2.19,2.68L45,71.1l-0.48-.55,0.39-.33Zm-1.14-.54-0.3.37,0.91,1.07,0.41-.24,1.21,1.41a0.6,0.6,0,0,0-.08.16H45.55l-0.08-.47H44.06L44,73H43.16a0.77,0.77,0,0,0-.44-0.45v-4h0ZM45.13,73v0.51H44.4V73h0.73Zm-3-5.18a0.32,0.32,0,0,1,.32-0.31,0.31,0.31,0,0,1,0,.62A0.32,0.32,0,0,1,42.14,67.83Zm0.32,5.74a0.31,0.31,0,1,1,0-.62A0.31,0.31,0,0,1,42.45,73.57Zm0.68,4.65a0.31,0.31,0,1,1,.32-0.31A0.31,0.31,0,0,1,43.13,78.22Zm0.18-1-0.18,0H43.05a4.34,4.34,0,0,1-.33-1.67V74a0.74,0.74,0,0,0,.44-0.45H44L44.06,74h1.41l0.09-.48h0.8a0.25,0.25,0,0,0,0,.07l-1.15,1.35-0.41-.24L43.9,75.76l0.3,0.38Zm2-1.57-0.47.55-0.39-.33L45,75.26Zm1,4.21a4.38,4.38,0,0,1-2.61-1.48,0.75,0.75,0,0,0,.13-0.42,0.78,0.78,0,0,0-.14-0.45l0.84-1L45,76.72l0.91-1.07-0.3-.38,1.13-1.32,0.06,0v2.52l-0.47.09V78l0.47,0.09v1.35A0.78,0.78,0,0,0,46.38,79.81Zm0.69,0.63a0.31,0.31,0,1,1,0-.62A0.31,0.31,0,0,1,47.07,80.44Zm3.3-2.11a4.38,4.38,0,0,1-2.61,1.48,0.8,0.8,0,0,0-.44-0.39V78.07L47.79,78V76.57l-0.47-.09V74l0.06,0,1.13,1.32-0.3.38,0.91,1.07,0.42-.24,0.84,1a0.78,0.78,0,0,0-.15.45A0.76,0.76,0,0,0,50.37,78.33ZM48.78,75.6l0.4-.34,0.47,0.55-0.38.33ZM51,78.22a0.31,0.31,0,1,1,.31-0.31A0.31,0.31,0,0,1,51,78.22Zm0.42-2.73a4.34,4.34,0,0,1-.34,1.67H51l-0.18,0-0.89-1,0.31-.38L49.31,74.7l-0.41.24-1.15-1.35a0.3,0.3,0,0,0,0-.07h0.81L48.67,74h1.41l0.08-.48H51a0.73,0.73,0,0,0,.45.45v1.51Zm0.26-1.91a0.31,0.31,0,0,1,0-.62A0.31,0.31,0,1,1,51.68,73.57Z" transform="translate(-2.77 -3.2)"/><path class="cls-10" d="M46.31,73.26a0.76,0.76,0,0,1,1.51,0,0.76,0.76,0,1,1-1.51,0" transform="translate(-2.77 -3.2)"/><ellipse class="cls-6" cx="37.47" cy="62.46" rx="4.5" ry="5.34"/><path class="cls-9" d="M37.08,65.65c0-2.17,1.42-3.92,3.17-3.92s3.16,1.76,3.16,3.92S42,69.57,40.25,69.57,37.08,67.82,37.08,65.65Z" transform="translate(-2.77 -3.2)"/><path class="cls-7" d="M41.69,63a1.58,1.58,0,0,0-.38.84,2,2,0,0,0,.16.74,0.41,0.41,0,0,0-.81.13,0.65,0.65,0,0,0,.06.23l0.14,0.29A0.28,0.28,0,0,1,41.14,65a0.3,0.3,0,0,1,.29.3,0.28,0.28,0,0,1,0,.07H41.09v0.3h0.31l-0.23.47L41.46,66l0.23,0.27L41.92,66l0.3,0.12L42,65.69h0.3v-0.3H42a0.28,0.28,0,0,1,0-.07,0.3,0.3,0,0,1,.29-0.3,0.29,0.29,0,0,1,.28.16l0.13-.29a0.54,0.54,0,0,0,.07-0.23,0.42,0.42,0,0,0-.42-0.42,0.42,0.42,0,0,0-.39.28,2,2,0,0,0,.16-0.74A1.58,1.58,0,0,0,41.69,63Z" transform="translate(-2.77 -3.2)"/><path class="cls-7" d="M40.22,65.62a1.57,1.57,0,0,0-.38.84,1.92,1.92,0,0,0,.16.74,0.41,0.41,0,0,0-.79.14,0.45,0.45,0,0,0,.06.22l0.14,0.29a0.27,0.27,0,0,1,.26-0.16,0.3,0.3,0,0,1,.3.3s0,0.05,0,.07H39.62v0.3h0.31l-0.23.47,0.3-.13L40.22,69l0.23-.27,0.3,0.13-0.22-.47h0.3v-0.3H40.49a0.26,0.26,0,0,1,0-.07,0.3,0.3,0,0,1,.3-0.3,0.28,0.28,0,0,1,.27.16l0.14-.29a0.53,0.53,0,0,0,.07-0.22,0.42,0.42,0,0,0-.42-0.42,0.41,0.41,0,0,0-.38.27,1.92,1.92,0,0,0,.16-0.74A1.56,1.56,0,0,0,40.22,65.62Z" transform="translate(-2.77 -3.2)"/><path class="cls-7" d="M38.75,63a1.58,1.58,0,0,0-.38.84,1.92,1.92,0,0,0,.16.74,0.43,0.43,0,0,0-.4-0.28,0.41,0.41,0,0,0-.41.42,0.65,0.65,0,0,0,.06.23l0.14,0.29A0.28,0.28,0,0,1,38.2,65a0.3,0.3,0,0,1,.3.3,0.28,0.28,0,0,1,0,.07H38.15v0.3h0.3l-0.22.47L38.52,66l0.23,0.27L39,66l0.29,0.12L39,65.69h0.3v-0.3H39a0.15,0.15,0,0,1,0-.07,0.3,0.3,0,0,1,.3-0.3,0.3,0.3,0,0,1,.28.16l0.13-.29a0.65,0.65,0,0,0,.06-0.23,0.42,0.42,0,0,0-.42-0.42,0.4,0.4,0,0,0-.38.28,2,2,0,0,0,.16-0.74A1.57,1.57,0,0,0,38.75,63Z" transform="translate(-2.77 -3.2)"/><path class="cls-6" d="M48.9,36.85a4.3,4.3,0,0,0-1.68.34,4.79,4.79,0,0,0-7-.65,4.79,4.79,0,0,0-7,.65,4.32,4.32,0,1,0-1.68,8.31,4.76,4.76,0,0,0,.88-0.09v1.13H48V45.41a4.76,4.76,0,0,0,.88.09A4.32,4.32,0,0,0,48.9,36.85Z" transform="translate(-2.77 -3.2)"/><path class="cls-3" d="M32.77,40.67a4.19,4.19,0,0,1-1.11-2.81h0c0-2.16,2-3.86,4.49-3.86h0c2.46,0,4.48,1.7,4.49,3.86h0a0.22,0.22,0,0,1-.23.23h0a0.22,0.22,0,0,1-.22-0.23h0c0-1.86-1.78-3.41-4-3.42h0c-2.26,0-4,1.56-4,3.42h0a3.79,3.79,0,0,0,1,2.49h0a0.23,0.23,0,0,1,0,.32h0a0.21,0.21,0,0,1-.15.07h0a0.23,0.23,0,0,1-.16-0.07h0Z" transform="translate(-2.77 -3.2)"/><path class="cls-3" d="M47.43,40.68a0.22,0.22,0,0,1,0-.32h0a3.78,3.78,0,0,0,1-2.5h0c0-1.86-1.78-3.41-4-3.42h0c-2.26,0-4,1.56-4,3.42h0a0.23,0.23,0,0,1-.23.23h0a0.23,0.23,0,0,1-.23-0.23h0c0-2.16,2-3.86,4.49-3.86h0c2.45,0,4.48,1.7,4.49,3.86h0a4.19,4.19,0,0,1-1.12,2.82h0a0.21,0.21,0,0,1-.16.07h0a0.21,0.21,0,0,1-.16-0.07h0Z" transform="translate(-2.77 -3.2)"/><circle class="cls-18" cx="37.45" cy="30.85" r="1.12"/><polygon class="cls-3" points="37.83 30.53 37.83 28.98 38.6 28.98 38.6 28.22 37.83 28.22 37.83 27.45 37.07 27.45 37.07 28.22 36.31 28.22 36.31 28.98 37.07 28.98 37.07 30.53 36.29 30.53 36.29 31.07 38.62 31.07 38.62 30.53 37.83 30.53"/><ellipse class="cls-11" cx="37.45" cy="33.75" rx="0.71" ry="0.7"/><path class="cls-3" d="M48.55,44.81a2.76,2.76,0,0,0-.4-0.95,1.83,1.83,0,0,0,.9.22,1.75,1.75,0,0,0,1.52-.78,1.75,1.75,0,0,0-1.52-.79,1.84,1.84,0,0,0-1,.29,1.8,1.8,0,0,0,.31-1,1.76,1.76,0,0,0-.79-1.52,1.76,1.76,0,0,0-.78,1.52,1.8,1.8,0,0,0,.3,1,1.86,1.86,0,0,0-1-.29,1.76,1.76,0,0,0-1.52.79,1.76,1.76,0,0,0,1.52.78,1.83,1.83,0,0,0,.9-0.22,2.77,2.77,0,0,0-.39.95H41.3a3.1,3.1,0,0,0-.48-1.68,1.81,1.81,0,0,0,.9.22,1.76,1.76,0,0,0,1.52-.79,1.76,1.76,0,0,0-1.52-.79,1.81,1.81,0,0,0-1,.29,1.83,1.83,0,0,0,.3-1,1.77,1.77,0,0,0-.68-1.45,3.34,3.34,0,0,0-.1-5.42,3.34,3.34,0,0,0-.1,5.42A1.78,1.78,0,0,0,39.44,41a1.84,1.84,0,0,0,.3,1,1.81,1.81,0,0,0-1-.29,1.76,1.76,0,0,0-1.52.79,1.76,1.76,0,0,0,1.52.79,1.84,1.84,0,0,0,.91-0.22,3.11,3.11,0,0,0-.48,1.68H33.88a2.77,2.77,0,0,0-.39-0.95,1.85,1.85,0,0,0,.91.22,1.75,1.75,0,0,0,1.51-.78,1.75,1.75,0,0,0-1.51-.79,1.82,1.82,0,0,0-1,.29,1.85,1.85,0,0,0,.3-1,1.76,1.76,0,0,0-.79-1.52,1.76,1.76,0,0,0-.79,1.52,1.8,1.8,0,0,0,.3,1,1.84,1.84,0,0,0-1-.29,1.77,1.77,0,0,0-1.52.79,1.77,1.77,0,0,0,1.52.78,1.87,1.87,0,0,0,.91-0.22,2.65,2.65,0,0,0-.4.95H29.25l0.45,3.95H50.79l0.45-3.95H48.55Z" transform="translate(-2.77 -3.2)"/><circle class="cls-10" cx="29.06" cy="43.71" r="0.94"/><circle class="cls-11" cx="33.24" cy="43.71" r="0.94"/><circle class="cls-6" cx="37.43" cy="43.71" r="0.94"/><path class="cls-10" d="M49.5,46.91A0.94,0.94,0,1,1,48.56,46,0.94,0.94,0,0,1,49.5,46.91Z" transform="translate(-2.77 -3.2)"/><path class="cls-11" d="M45.32,46.91A0.94,0.94,0,1,1,44.38,46,0.94,0.94,0,0,1,45.32,46.91Z" transform="translate(-2.77 -3.2)"/><circle class="cls-6" cx="37.45" cy="39.46" r="0.64"/><circle class="cls-6" cx="30.12" cy="40.2" r="0.64"/><path class="cls-6" d="M48.2,43.39a0.64,0.64,0,1,1-.64-0.64A0.64,0.64,0,0,1,48.2,43.39Z" transform="translate(-2.77 -3.2)"/></svg>