<svg id="Capa_1" data-name="Capa 1" xmlns="http://www.w3.org/2000/svg" viewBox="0 0 132.21 73.92"><defs><style>.cls-1{fill:#fff;}</style></defs><title>logo-fen</title><path class="cls-1" d="M51.88,43.43h1.85l0.56,0,1.63,0.09a1.3,1.3,0,0,1-.06-0.27,2.65,2.65,0,0,1,0-.37,1.52,1.52,0,0,1,0-.28c0-.08,0-0.17.06-0.28l-1.76.06-1.42,0-1.6,0-1.53-.07q0.06,0.9.09,2.11t0,2.25q0,1,0,1.44t0,1.15c0,0.48,0,1,0,1.49s0,0.94,0,1.28,0,0.72,0,1.08,0,0.72,0,1.08l1.64-.08,1.59,0,1.62,0q0.79,0,1.57.08A1.44,1.44,0,0,1,56,54a2.66,2.66,0,0,1,0-.34,2.37,2.37,0,0,1,0-.32A1,1,0,0,1,56,53l-1.63.06-1.57,0-0.95,0v-4.7h1.2l1.21,0,0.66,0,0.67,0a1,1,0,0,1-.06-0.25,2.48,2.48,0,0,1,0-.34,2.34,2.34,0,0,1,0-.34,2.18,2.18,0,0,1,.06-0.29c-0.32,0-.71.06-1.18,0.08l-1.4,0H51.88V43.43Z" transform="translate(-14.29 -8.27)"/><path class="cls-1" d="M67.3,43.08a9.7,9.7,0,0,0-2-.67,9.91,9.91,0,0,0-2-.2,7.93,7.93,0,0,0-3.81.85,5.34,5.34,0,0,0-2.22,2.25,6.8,6.8,0,0,0-.72,3.17,6.22,6.22,0,0,0,.85,3.29,5.37,5.37,0,0,0,2.23,2,7,7,0,0,0,3.11.69A9.51,9.51,0,0,0,65,54.21a8.52,8.52,0,0,0,2.09-.82l0.19-1.72-0.19-.12a6,6,0,0,1-1.49,1.33,4.75,4.75,0,0,1-2.51.64A3.79,3.79,0,0,1,61.13,53,4.13,4.13,0,0,1,59.92,52,5.17,5.17,0,0,1,59,49.85a7.27,7.27,0,0,1-.13-1.51A5.8,5.8,0,0,1,60,44.51a4.1,4.1,0,0,1,3.3-1.36,4.94,4.94,0,0,1,1.92.33,2.53,2.53,0,0,1,1.39,1.3h0.17Z" transform="translate(-14.29 -8.27)"/><path class="cls-1" d="M69.43,48.35a7.38,7.38,0,0,1,.4-2.42,4.59,4.59,0,0,1,1.31-2,3.58,3.58,0,0,1,2.39-.83,3.85,3.85,0,0,1,2.41.73,4,4,0,0,1,1.3,1.9,8.1,8.1,0,0,1,.39,2.62,7.4,7.4,0,0,1-.41,2.46,4.51,4.51,0,0,1-1.32,2,3.6,3.6,0,0,1-2.37.81,3.68,3.68,0,0,1-2.39-.79,4.33,4.33,0,0,1-1.31-2,7.64,7.64,0,0,1-.4-2.51m4.14-6.13a7.7,7.7,0,0,0-3.24.67A5.38,5.38,0,0,0,68,45a6.78,6.78,0,0,0-.91,3.6,5.92,5.92,0,0,0,.87,3.22,5.48,5.48,0,0,0,2.31,2,7.62,7.62,0,0,0,3.28.69,6.55,6.55,0,0,0,4.67-1.72A6.26,6.26,0,0,0,80,48.14,5.94,5.94,0,0,0,79,44.76a5.42,5.42,0,0,0-2.37-1.93,7.78,7.78,0,0,0-3.1-.61" transform="translate(-14.29 -8.27)"/><path class="cls-1" d="M81.22,49.58c0,0.17,0,.4,0,0.7s0,0.58,0,.87,0,0.52,0,.68L81,54.24l0.33-.07a2.11,2.11,0,0,1,.37,0,2.77,2.77,0,0,1,.41,0l0.37,0.06L82.41,53c0-.29,0-0.54,0-0.76s0-.49,0-0.81q0-.9,0-1.71t0-1.7q0-.89,0-2.05,1,0.88,2.48,2.37t3.1,3.1q1.58,1.61,2.72,2.85l0.36,0,0.35,0q0-.36,0-0.88c0-.35,0-0.63,0-0.84s0-.76,0-1.32,0-1.12,0-1.7,0-1,0-1.39q0-1.24,0-2.18t0.06-1.79q0-.86.12-1.89l-0.32.07a2.53,2.53,0,0,1-.4,0,2.67,2.67,0,0,1-.41,0L90,42.36q0.09,1.07.15,2.17t0.06,2.21v3.85l-0.45-.37-0.41-.37-2-2Q85.74,46.32,84.48,45T82,42.36l-0.2,0H81.6l-0.41,0q0,2.42,0,4.87v2.36Z" transform="translate(-14.29 -8.27)"/><path class="cls-1" d="M94.88,48.35a7.34,7.34,0,0,1,.4-2.42,4.59,4.59,0,0,1,1.31-2A3.58,3.58,0,0,1,99,43.1a3.85,3.85,0,0,1,2.41.73,4,4,0,0,1,1.3,1.9,8.1,8.1,0,0,1,.39,2.62,7.36,7.36,0,0,1-.41,2.46,4.49,4.49,0,0,1-1.31,2A3.6,3.6,0,0,1,99,53.6a3.68,3.68,0,0,1-2.38-.79,4.33,4.33,0,0,1-1.31-2,7.6,7.6,0,0,1-.4-2.51M99,42.22a7.7,7.7,0,0,0-3.25.67A5.38,5.38,0,0,0,93.42,45a6.77,6.77,0,0,0-.91,3.6,5.92,5.92,0,0,0,.87,3.22,5.48,5.48,0,0,0,2.31,2,7.61,7.61,0,0,0,3.28.69,6.56,6.56,0,0,0,4.68-1.72,6.26,6.26,0,0,0,1.79-4.62,6,6,0,0,0-.94-3.38,5.41,5.41,0,0,0-2.37-1.93,7.79,7.79,0,0,0-3.1-.61" transform="translate(-14.29 -8.27)"/><path class="cls-1" d="M108.15,42.36l-0.19,0-0.19,0h-0.2l-0.2,0q-0.08.79-.29,2.32T106.62,48q-0.26,1.78-.5,3.33t-0.41,2.4l-0.1.54,0.34-.07a2.29,2.29,0,0,1,.38,0l0.36,0,0.44,0.08q0.1-2,.29-3.91t0.44-3.78l0.5,0.9,0.72,1.3,0.51,0.94,1.05,2L111.36,53q0.3,0.57.62,1.21l0.16,0h0.34l0.17,0q0.53-1.2,1.27-2.65t1.5-2.82q0.76-1.38,1.36-2.39c0,0.2,0,.52.1,1s0.11,1,.17,1.51l0.17,1.52,0.12,1c0,0.12,0,.33,0,0.63l0.06,0.91c0,0.31,0,.52,0,0.66l0.05,0.64,0.67-.08,0.51,0,0.56,0L120,54.24c-0.07-.31-0.14-0.74-0.23-1.3s-0.18-1.13-.26-1.7-0.15-1-.2-1.41q-0.21-1.55-.38-3t-0.31-3l-0.14-1.44a1.28,1.28,0,0,1-.36,0h-0.19l-0.19,0q-0.87,1.74-1.5,3t-1.25,2.35q-0.61,1.12-1.41,2.52l-0.64,1.13L112,49.65q-0.81-1.44-1.33-2.4t-1-1.81q-0.44-.85-1-2Z" transform="translate(-14.29 -8.27)"/><path class="cls-1" d="M121.15,46.36q0,2.24,0,4.28T121,54.24l0.62-.06a6.22,6.22,0,0,1,.62,0,5.52,5.52,0,0,1,.61,0l0.61,0.06q-0.1-1-.14-2.49t0-3.37q0-.9,0-2.06t0-2.23q0-1.08.13-1.74l-0.63.07-0.6,0-0.59,0L121,42.36c0.08,0.83.13,1.57,0.15,2.22s0,1.24,0,1.78m3.41-6.51a1,1,0,0,0,.23-0.21,0.69,0.69,0,0,0,.14-0.43,0.66,0.66,0,0,0-.24-0.52,0.9,0.9,0,0,0-.57-0.19,0.87,0.87,0,0,0-.45.14,1.93,1.93,0,0,0-.38.32l-2.44,2.63h0.88Z" transform="translate(-14.29 -8.27)"/><path class="cls-1" d="M132.33,54.24l0.58-.06a7,7,0,0,1,.71,0c0.25,0,.51,0,0.76,0L135,54.24q-0.4-.86-0.87-1.92l-0.92-2.09-0.79-1.8q-0.49-1.12-1.17-2.78t-1.32-3.47l-0.28.06-0.28,0-0.29,0-0.28-.06A27.94,27.94,0,0,1,127.68,45q-0.78,1.82-2.09,4.73l-2,4.47,0.37-.06a2.64,2.64,0,0,1,.41,0l0.43,0,0.4,0.06q0.22-.76.59-1.75t0.8-2l1,0,1,0,1.11,0,1.11,0,0.73,1.84Zm-2-4.83-0.8,0-0.8,0-0.9,0-0.9,0,1.77-4.26Z" transform="translate(-14.29 -8.27)"/><path class="cls-1" d="M142.3,49.6a0.66,0.66,0,0,1,.07-0.26,2.94,2.94,0,0,1,.16-0.3q0.54-.94,1.07-1.9t1.11-1.9l0.52-.83,0.74-1.2,0.52-.87a1.55,1.55,0,0,1-.31.08,2.71,2.71,0,0,1-.42,0,4.64,4.64,0,0,1-.54,0l-0.46-.07q-0.61,1.33-1,2.17t-0.84,1.65q-0.44.81-1.16,2Q141,46.94,140.53,46t-0.93-1.82q-0.42-.85-0.86-1.79a6.94,6.94,0,0,1-.74.08l-0.68,0-0.61,0-0.81-.08,1,1.74L138.11,46q0.59,1,1,1.75l1,1.77c0,0.37,0,.84,0,1.39s0,1.13,0,1.72,0,1.12-.05,1.58l0.57-.06,0.59,0,0.6,0,0.6,0.06q-0.05-1.17-.09-2.06c0-.59,0-1.24,0-1.94V49.6Z" transform="translate(-14.29 -8.27)"/><path class="cls-1" d="M49.77,65.8c0,0.17,0,.4,0,0.69s0,0.58,0,.87,0,0.52,0,.68l-0.14,2.41,0.33-.07a2.27,2.27,0,0,1,.37,0,2.76,2.76,0,0,1,.41,0l0.37,0.06L51,69.26c0-.29,0-0.54,0-0.76s0-.49,0-0.81q0-.9,0-1.71t0-1.7q0-.89,0-2.05,1,0.88,2.48,2.37t3.1,3.1q1.58,1.61,2.72,2.85l0.36,0,0.35,0q0-.36,0-0.88c0-.35,0-0.63,0-0.84s0-.76,0-1.32,0-1.12,0-1.7,0-1,0-1.39q0-1.24,0-2.18t0.06-1.79q0-.86.12-1.89l-0.32.07a2.5,2.5,0,0,1-.4,0,2.65,2.65,0,0,1-.41,0l-0.33-.07q0.09,1.07.15,2.17T58.75,63v3.85l-0.45-.37-0.41-.37-2-2Q54.28,62.54,53,61.23t-2.47-2.65l-0.2,0h-0.2l-0.41,0q0,2.42,0,4.87V65.8Z" transform="translate(-14.29 -8.27)"/><path class="cls-1" d="M66,59.65H67.9l0.56,0,1.63,0.09A1.31,1.31,0,0,1,70,59.5a2.65,2.65,0,0,1,0-.37,1.52,1.52,0,0,1,0-.28c0-.08,0-0.17.06-0.28l-1.76.06-1.43,0-1.6,0-1.53-.07q0.06,0.9.09,2.11t0,2.25q0,1,0,1.44t0,1.15q0,0.73,0,1.49t0,1.29c0,0.36,0,.72,0,1.08s0,0.72,0,1.08l1.64-.08,1.59,0,1.62,0q0.79,0,1.57.08a1.45,1.45,0,0,1-.07-0.29,2.66,2.66,0,0,1,0-.34,2.37,2.37,0,0,1,0-.32,1,1,0,0,1,.07-0.25l-1.63.06-1.57,0-0.95,0V64.7h1.2l1.21,0,0.66,0,0.67,0a1,1,0,0,1-.06-0.25,2.73,2.73,0,0,1,0-.34,2.57,2.57,0,0,1,0-.34,2.44,2.44,0,0,1,.06-0.29c-0.32,0-.71.06-1.18,0.08l-1.4,0H66V59.65Z" transform="translate(-14.29 -8.27)"/><path class="cls-1" d="M72.84,64.71A6.24,6.24,0,0,0,73.7,68a5.35,5.35,0,0,0,2.23,2,7,7,0,0,0,3.11.69,11.37,11.37,0,0,0,2.58-.31,10.43,10.43,0,0,0,2.44-.9q0-.36,0-0.72c0-.24,0-0.53,0-0.85,0-.17,0-0.45,0-0.82s0-.76,0-1.16,0-.7.08-0.93l-0.5.09a4.26,4.26,0,0,1-.59,0,5.07,5.07,0,0,1-.64,0L81.82,65q0,0.64.07,1.27t0,1.27c0,0.09,0,.23,0,0.42s0,0.58,0,1.16a3.8,3.8,0,0,1-1.19.48,5.7,5.7,0,0,1-1.28.14,3.78,3.78,0,0,1-1.93-.48,4.14,4.14,0,0,1-1.21-1.09,4.8,4.8,0,0,1-.83-1.71,7.41,7.41,0,0,1-.22-1.91,5.81,5.81,0,0,1,1.13-3.82,4.11,4.11,0,0,1,3.3-1.36,5,5,0,0,1,1.92.33,2.65,2.65,0,0,1,1,.69A2.75,2.75,0,0,1,83,61h0.17l0.52-1.7a9.67,9.67,0,0,0-2-.67,9.9,9.9,0,0,0-2-.2,7.91,7.91,0,0,0-3.81.85,5.34,5.34,0,0,0-2.23,2.25,6.79,6.79,0,0,0-.72,3.17" transform="translate(-14.29 -8.27)"/><path class="cls-1" d="M89.69,64.57a7.34,7.34,0,0,1,.4-2.42,4.59,4.59,0,0,1,1.31-2,3.58,3.58,0,0,1,2.38-.83,3.84,3.84,0,0,1,2.41.73,4,4,0,0,1,1.3,1.9,8.1,8.1,0,0,1,.39,2.62A7.36,7.36,0,0,1,97.46,67a4.49,4.49,0,0,1-1.31,2,3.6,3.6,0,0,1-2.37.81A3.68,3.68,0,0,1,91.39,69a4.33,4.33,0,0,1-1.31-2,7.6,7.6,0,0,1-.4-2.51m4.14-6.13a7.71,7.71,0,0,0-3.25.67,5.39,5.39,0,0,0-2.36,2.07,6.77,6.77,0,0,0-.91,3.6A5.92,5.92,0,0,0,88.19,68a5.48,5.48,0,0,0,2.31,2,7.62,7.62,0,0,0,3.28.69A6.55,6.55,0,0,0,98.45,69a6.26,6.26,0,0,0,1.79-4.62A6,6,0,0,0,99.3,61a5.41,5.41,0,0,0-2.37-1.93,7.79,7.79,0,0,0-3.1-.61" transform="translate(-14.29 -8.27)"/><path class="cls-1" d="M113.81,59.31a9.7,9.7,0,0,0-2-.67,9.91,9.91,0,0,0-2-.2,7.93,7.93,0,0,0-3.81.85,5.35,5.35,0,0,0-2.22,2.25,6.8,6.8,0,0,0-.72,3.17,6.22,6.22,0,0,0,.85,3.29,5.36,5.36,0,0,0,2.23,2,7,7,0,0,0,3.11.69,9.58,9.58,0,0,0,2.29-.27,8.58,8.58,0,0,0,2.09-.82l0.19-1.72-0.19-.12a6,6,0,0,1-1.49,1.33,4.75,4.75,0,0,1-2.51.64,3.78,3.78,0,0,1-1.92-.48,4.12,4.12,0,0,1-1.21-1.09,5.17,5.17,0,0,1-.92-2.11,7.27,7.27,0,0,1-.13-1.51,5.82,5.82,0,0,1,1.13-3.82,4.11,4.11,0,0,1,3.3-1.36,4.94,4.94,0,0,1,1.92.33,2.53,2.53,0,0,1,1.39,1.3h0.17Z" transform="translate(-14.29 -8.27)"/><path class="cls-1" d="M116.95,62.58q0,2.24,0,4.28t-0.17,3.6l0.62-.06a5.83,5.83,0,0,1,.62,0,5.15,5.15,0,0,1,.61,0l0.61,0.06q-0.1-1-.14-2.49t0-3.37q0-.9,0-2.05t0-2.23q0-1.07.13-1.74l-0.63.07-0.6,0-0.59,0-0.64-.06q0.13,1.25.15,2.22c0,0.65,0,1.24,0,1.78" transform="translate(-14.29 -8.27)"/><path class="cls-1" d="M124.95,64.57a7.38,7.38,0,0,1,.4-2.42,4.59,4.59,0,0,1,1.31-2,3.58,3.58,0,0,1,2.39-.83,3.85,3.85,0,0,1,2.41.73,4,4,0,0,1,1.29,1.9,8.1,8.1,0,0,1,.39,2.62,7.36,7.36,0,0,1-.41,2.46,4.49,4.49,0,0,1-1.31,2,3.6,3.6,0,0,1-2.37.81,3.68,3.68,0,0,1-2.39-.79,4.33,4.33,0,0,1-1.31-2,7.64,7.64,0,0,1-.4-2.51m4.14-6.13a7.7,7.7,0,0,0-3.24.67,5.39,5.39,0,0,0-2.36,2.07,6.77,6.77,0,0,0-.91,3.6,5.92,5.92,0,0,0,.87,3.22,5.48,5.48,0,0,0,2.31,2,7.62,7.62,0,0,0,3.28.69A6.55,6.55,0,0,0,133.71,69a6.26,6.26,0,0,0,1.79-4.62,6,6,0,0,0-.94-3.38,5.41,5.41,0,0,0-2.37-1.93,7.78,7.78,0,0,0-3.1-.61" transform="translate(-14.29 -8.27)"/><path class="cls-1" d="M138.57,67.87c0,0.39-.08.71-0.12,1a8.16,8.16,0,0,1-.28,1,9.35,9.35,0,0,0,1.29.56,6.12,6.12,0,0,0,1.95.32,5.15,5.15,0,0,0,2.55-.59,3.56,3.56,0,0,0,1.41-1.43,3.72,3.72,0,0,0,.28-2.8,3.11,3.11,0,0,0-.7-1.25A2.78,2.78,0,0,0,144.1,64q-0.51-.25-1.49-0.62a7.33,7.33,0,0,1-1.78-.85,1.56,1.56,0,0,1-.63-1.35,1.83,1.83,0,0,1,.51-1.32,2.1,2.1,0,0,1,1.54-.55,2.68,2.68,0,0,1,1.45.38,1.87,1.87,0,0,1,.82,1.12h0.24q0.1-.46.2-0.75t0.34-.9a9.48,9.48,0,0,0-1.28-.5,5.69,5.69,0,0,0-1.59-.21A4.83,4.83,0,0,0,140,59a3.05,3.05,0,0,0-1.25,1.33,3.62,3.62,0,0,0-.35,1.58,3.06,3.06,0,0,0,.46,1.79A3.87,3.87,0,0,0,140.56,65l0.89,0.37,0.89,0.36a2.89,2.89,0,0,1,.51.27,2.11,2.11,0,0,1,.61.63,2,2,0,0,1,.3,1.09,2.12,2.12,0,0,1-.62,1.55,2.32,2.32,0,0,1-1.65.62,2.53,2.53,0,0,1-1.43-.35,3.65,3.65,0,0,1-1.26-1.65h-0.24Z" transform="translate(-14.29 -8.27)"/><path class="cls-1" d="M16.6,75.6l-0.3,0-0.31,0-0.33,0-0.33,0q0,0.38,0,.85c0,0.31,0,.6,0,0.85v2.56s0,0.13,0,.23a2.58,2.58,0,0,0,0,.27,1.89,1.89,0,0,0,.54,1.12,2.29,2.29,0,0,0,1,.55,4.28,4.28,0,0,0,1.15.15,3.62,3.62,0,0,0,.82-0.1,2.56,2.56,0,0,0,.77-0.31A1.87,1.87,0,0,0,20.38,81a2.9,2.9,0,0,0,.25-1.28q0-.49,0-1.2t0-1.39q0-.68,0-1.11l0-.45-0.22,0-0.22,0-0.22,0-0.2,0q0.06,0.92.07,1.84t0,1.84a7.74,7.74,0,0,1,0,.85,1.71,1.71,0,0,1-.09.42,1.39,1.39,0,0,1-.58.7,1.87,1.87,0,0,1-1,.27,2.32,2.32,0,0,1-.87-0.15,1.3,1.3,0,0,1-.58-0.42,1.13,1.13,0,0,1-.2-0.4,3,3,0,0,1-.08-0.65q0-.42,0-1.16c0-.41,0-0.83,0-1.25s0-.82,0-1.18Z" transform="translate(-14.29 -8.27)"/><path class="cls-1" d="M23.61,79.53c0,0.09,0,.22,0,0.38s0,0.32,0,.47,0,0.28,0,.37l-0.08,1.31,0.18,0,0.2,0,0.22,0,0.2,0,0-.66c0-.15,0-0.29,0-0.41s0-.27,0-0.44c0-.33,0-0.64,0-0.93s0-.6,0-0.92,0-.69,0-1.12q0.52,0.48,1.35,1.29l1.68,1.68q0.86,0.87,1.48,1.55l0.2,0,0.19,0c0-.13,0-0.29,0-0.48s0-.34,0-0.45,0-.41,0-0.72,0-.61,0-0.92,0-.56,0-0.75q0-.68,0-1.18c0-.34,0-0.66,0-1s0-.65.07-1l-0.18,0-0.22,0-0.22,0-0.18,0q0.05,0.58.08,1.18c0,0.4,0,.8,0,1.2v2.09l-0.25-.2L28,79.67l-1.11-1.09q-0.84-.82-1.53-1.53T24,75.6H23.82l-0.22,0q0,1.32,0,2.64v1.28Z" transform="translate(-14.29 -8.27)"/><path class="cls-1" d="M32.18,77.78c0,0.81,0,1.59,0,2.32s0,1.39-.09,2l0.34,0,0.34,0,0.33,0,0.33,0q-0.06-.57-0.08-1.35t0-1.83q0-.49,0-1.12t0-1.21q0-.58.07-0.95l-0.34,0-0.33,0-0.32,0-0.35,0c0,0.45.07,0.86,0.08,1.21s0,0.67,0,1" transform="translate(-14.29 -8.27)"/><path class="cls-1" d="M38.86,80.52l-0.33-.74c-0.11-.25-0.22-0.5-0.32-0.75q-0.38-1-.6-1.57c-0.14-.39-0.26-0.73-0.35-1S37.08,75.9,37,75.6l-0.36,0-0.34,0H35.91l-0.38,0L35.71,76,36,76.59,36.15,77l0.25,0.6,0.36,0.88L37,79.13q0.32,0.75.48,1.18c0.11,0.29.21,0.55,0.3,0.8l0.33,0.95,0.18,0,0.25,0,0.19,0,0.15,0q0.62-1.75,1.35-3.46l0.42-1,0.47-1.07c0.16-.35.31-0.67,0.45-0.95l-0.26,0H41l-0.26,0q-0.14.46-.38,1.11T39.86,78l-0.43,1.1-0.22.55Z" transform="translate(-14.29 -8.27)"/><path class="cls-1" d="M44.88,76.18h1.31l0.89,0a0.77,0.77,0,0,1,0-.15,1.41,1.41,0,0,1,0-.2,0.81,0.81,0,0,1,0-.15l0-.15-1,0-0.77,0-0.87,0-0.83,0q0,0.49.05,1.15t0,1.22c0,0.38,0,.64,0,0.78s0,0.36,0,.62,0,0.53,0,.81,0,0.51,0,.7,0,0.39,0,.59,0,0.39,0,.59l0.89,0h1.75l0.85,0a0.74,0.74,0,0,1,0-.16,1.72,1.72,0,0,1,0-.18,1.55,1.55,0,0,1,0-.17,0.53,0.53,0,0,1,0-.14l-0.88,0-0.85,0H44.88V78.92h1.31l0.36,0,0.37,0a0.6,0.6,0,0,1,0-.14,1.48,1.48,0,0,1,0-.18,1.39,1.39,0,0,1,0-.18,1.43,1.43,0,0,1,0-.15l-0.64,0-0.76,0H44.88V76.18Z" transform="translate(-14.29 -8.27)"/><path class="cls-1" d="M51,76.11l0.32,0,0.35,0a2.06,2.06,0,0,1,.46,0,1.14,1.14,0,0,1,.42.19,0.88,0.88,0,0,1,.32.43,1.63,1.63,0,0,1,.07.55,1.47,1.47,0,0,1-.13.61,1.11,1.11,0,0,1-.41.49,1.35,1.35,0,0,1-.75.2H51.27l-0.3,0V76.11Zm1.54,2.75a2.26,2.26,0,0,0,1.14-.54,1.59,1.59,0,0,0,.5-1.2A1.51,1.51,0,0,0,54,76.54a1.4,1.4,0,0,0-.32-0.48,1.52,1.52,0,0,0-.66-0.37,3,3,0,0,0-.82-0.09H51.8l-0.65,0H50.69l-0.57,0-0.37,0c0,0.39,0,.7,0,0.93s0,0.46,0,.7,0,0.55,0,.95,0,0.82,0,1.11,0,0.57,0,.81,0,0.52,0,.82,0,0.68,0,1.13l0.32,0,0.33,0,0.33,0,0.3,0c0-.09,0-0.26,0-0.5l0-.72c0-.24,0-0.41,0-0.52V79H51.2L52,80.12q0.41,0.59.78,1.15L53,81.67l0.24,0.39,0.35,0H54l0.45,0,0.39,0-0.51-.65-0.47-.62-0.61-.85L53,79.59l-0.24-.35Z" transform="translate(-14.29 -8.27)"/><path class="cls-1" d="M56.86,80.65c0,0.21,0,.38-0.07.52a4.72,4.72,0,0,1-.15.55,5.11,5.11,0,0,0,.7.3,3.35,3.35,0,0,0,1.06.18,2.81,2.81,0,0,0,1.39-.32,1.93,1.93,0,0,0,.77-0.78,2,2,0,0,0,.15-1.52,1.7,1.7,0,0,0-.38-0.68,1.53,1.53,0,0,0-.47-0.35Q59.58,78.4,59,78.2a4,4,0,0,1-1-.46A0.85,0.85,0,0,1,57.74,77,1,1,0,0,1,58,76.29a1.14,1.14,0,0,1,.83-0.3,1.47,1.47,0,0,1,.79.21,1,1,0,0,1,.45.61h0.13c0-.16.07-0.3,0.11-0.41s0.1-.27.18-0.49a5,5,0,0,0-.7-0.27,3.06,3.06,0,0,0-.87-0.12,2.62,2.62,0,0,0-1.33.3,1.66,1.66,0,0,0-.68.72,2,2,0,0,0-.19.86,1.67,1.67,0,0,0,.25,1,2.1,2.1,0,0,0,.94.69l0.49,0.2,0.48,0.2a1.51,1.51,0,0,1,.28.15,1.15,1.15,0,0,1,.33.34,1.11,1.11,0,0,1,.16.6,1.15,1.15,0,0,1-.34.84,1.26,1.26,0,0,1-.9.33,1.37,1.37,0,0,1-.78-0.19,2,2,0,0,1-.68-0.9H56.86Z" transform="translate(-14.29 -8.27)"/><path class="cls-1" d="M63.53,77.78c0,0.81,0,1.59,0,2.32s0,1.39-.09,2l0.34,0,0.34,0,0.33,0,0.33,0q-0.06-.57-0.08-1.35t0-1.83q0-.49,0-1.12t0-1.21q0-.58.07-0.95l-0.34,0-0.33,0-0.32,0-0.35,0q0.07,0.68.08,1.21c0,0.35,0,.67,0,1" transform="translate(-14.29 -8.27)"/><path class="cls-1" d="M73.77,78.64a3.3,3.3,0,0,0-.27-1.35,2.7,2.7,0,0,0-.81-1,2.94,2.94,0,0,0-1.28-.55,6.81,6.81,0,0,0-1.3-.1l-0.84,0-0.79,0-0.39,0-0.39,0c0,0.21,0,.41,0,0.61s0,0.41,0,.61,0,0.59,0,.89,0,0.59,0,.89v0.86c0,0.21,0,.37,0,0.5s0,0.25,0,.39l-0.06,1.72,0.44,0,0.44,0,0.87,0,0.87,0a4.37,4.37,0,0,0,1.06-.11,3.2,3.2,0,0,0,1-.42,2.86,2.86,0,0,0,1-1.16,3.86,3.86,0,0,0,.37-1.73m-4.84-1.36c0-.19,0-0.38,0-0.57l0-.57,0.49,0h0.48a2.72,2.72,0,0,1,1.53.4,2.1,2.1,0,0,1,.78,1,3.22,3.22,0,0,1,.22,1.21,3.81,3.81,0,0,1-.26,1.47,2.37,2.37,0,0,1-.62.88,2.22,2.22,0,0,1-.74.42,1.94,1.94,0,0,1-.61.11H69.87l-0.52,0-0.37,0,0-.66c0-.22,0-0.44,0-0.65V77.29Z" transform="translate(-14.29 -8.27)"/><path class="cls-1" d="M80,82.06l0.31,0,0.38,0,0.41,0,0.32,0L81,81l-0.5-1.13-0.43-1q-0.26-.61-0.64-1.51t-0.72-1.89l-0.15,0H78.21l-0.15,0a15.26,15.26,0,0,1-.59,1.55Q77,78,76.33,79.63l-1.09,2.43,0.2,0,0.22,0,0.24,0,0.22,0q0.12-.41.32-1T76.87,80l0.57,0H78.6l0.6,0,0.4,1Zm-1.06-2.62-0.43,0H78.07l-0.49,0-0.49,0,1-2.32Z" transform="translate(-14.29 -8.27)"/><path class="cls-1" d="M89.59,78.64a3.32,3.32,0,0,0-.27-1.35,2.7,2.7,0,0,0-.81-1,2.94,2.94,0,0,0-1.28-.55,6.81,6.81,0,0,0-1.3-.1l-0.84,0-0.79,0-0.39,0-0.39,0c0,0.21,0,.41,0,0.61s0,0.41,0,.61,0,0.59,0,.89,0,0.59,0,.89v0.86c0,0.21,0,.37,0,0.5s0,0.25,0,.39l-0.06,1.72L84,82l0.44,0,0.87,0,0.87,0a4.38,4.38,0,0,0,1.06-.11,3.2,3.2,0,0,0,1-.42,2.86,2.86,0,0,0,1-1.16,3.86,3.86,0,0,0,.37-1.73m-4.84-1.36c0-.19,0-0.38,0-0.57l0-.57,0.48,0h0.49a2.72,2.72,0,0,1,1.53.4,2.09,2.09,0,0,1,.78,1,3.17,3.17,0,0,1,.22,1.21A3.76,3.76,0,0,1,88,80.15a2.33,2.33,0,0,1-.62.88,2.2,2.2,0,0,1-.73.42,2,2,0,0,1-.61.11H85.69l-0.52,0-0.37,0,0-.66c0-.22,0-0.44,0-0.65V77.29Z" transform="translate(-14.29 -8.27)"/><path class="cls-1" d="M102.07,78.64a3.3,3.3,0,0,0-.27-1.35,2.7,2.7,0,0,0-.81-1,2.94,2.94,0,0,0-1.28-.55,6.81,6.81,0,0,0-1.3-.1l-0.84,0-0.79,0-0.39,0L96,75.6c0,0.21,0,.41,0,0.61s0,0.41,0,.61,0,0.59,0,.89,0,0.59,0,.89v0.86c0,0.21,0,.37,0,0.5s0,0.25,0,.39L96,82.06l0.44,0,0.44,0,0.87,0,0.87,0a4.37,4.37,0,0,0,1.06-.11,3.2,3.2,0,0,0,1-.42,2.86,2.86,0,0,0,1-1.16,3.88,3.88,0,0,0,.37-1.73m-4.84-1.36c0-.19,0-0.38,0-0.57l0-.57,0.49,0h0.48a2.72,2.72,0,0,1,1.53.4,2.1,2.1,0,0,1,.78,1,3.22,3.22,0,0,1,.22,1.21,3.81,3.81,0,0,1-.26,1.47,2.35,2.35,0,0,1-.62.88,2.2,2.2,0,0,1-.73.42,1.94,1.94,0,0,1-.61.11H98.17l-0.52,0-0.37,0,0-.66c0-.22,0-0.44,0-0.65V77.29Z" transform="translate(-14.29 -8.27)"/><path class="cls-1" d="M105.92,76.18h1.31l0.89,0a0.78,0.78,0,0,1,0-.15,1.42,1.42,0,0,1,0-.2,0.82,0.82,0,0,1,0-.15l0-.15-1,0-0.77,0-0.87,0-0.83,0q0,0.49.05,1.15t0,1.22c0,0.38,0,.64,0,0.78s0,0.36,0,.62,0,0.53,0,.81,0,0.51,0,.7,0,0.39,0,.59,0,0.39,0,.59l0.89,0h1.75l0.85,0a0.74,0.74,0,0,1,0-.16,1.73,1.73,0,0,1,0-.18,1.56,1.56,0,0,1,0-.17,0.53,0.53,0,0,1,0-.14l-0.88,0-0.85,0h-0.51V78.92h1.31l0.36,0L108,79a0.6,0.6,0,0,1,0-.14,1.48,1.48,0,0,1,0-.18,1.39,1.39,0,0,1,0-.18,1.42,1.42,0,0,1,0-.15l-0.64,0-0.76,0h-0.63V76.18Z" transform="translate(-14.29 -8.27)"/><path class="cls-1" d="M120.12,76a5.22,5.22,0,0,0-1.09-.36,5.35,5.35,0,0,0-1.11-.11,4.31,4.31,0,0,0-2.07.46,2.9,2.9,0,0,0-1.21,1.22,3.7,3.7,0,0,0-.39,1.72,3.38,3.38,0,0,0,.46,1.79,2.92,2.92,0,0,0,1.21,1.1,3.81,3.81,0,0,0,1.69.37,5.2,5.2,0,0,0,1.24-.15A4.68,4.68,0,0,0,120,81.6l0.1-.93L120,80.6a3.25,3.25,0,0,1-.81.72,2.58,2.58,0,0,1-1.36.35,2,2,0,0,1-1-.26,2.21,2.21,0,0,1-.66-0.59,2.81,2.81,0,0,1-.5-1.15,4,4,0,0,1-.07-0.82,3.15,3.15,0,0,1,.62-2.08A2.23,2.23,0,0,1,118,76a2.68,2.68,0,0,1,1,.18,1.45,1.45,0,0,1,.54.38,1.48,1.48,0,0,1,.21.33h0.09Z" transform="translate(-14.29 -8.27)"/><path class="cls-1" d="M126.88,80.4c0,0.13,0,.31,0,0.55l0,0.68,0,0.43,0.32,0,0.32,0,0.34,0,0.34,0A10.74,10.74,0,0,1,128,81c0-.38,0-0.76,0-1.14s0-.56,0-0.94,0-.77,0-1.18,0-.81,0-1.18,0-.69.07-0.94l-0.33,0-0.33,0-0.35,0-0.33,0,0,0.52c0,0.12,0,.22,0,0.29s0,0.16,0,.25,0,0.25,0,.47,0,0.45,0,.67,0,0.38,0,.48l-0.86,0h-1.57l-0.71,0c0-.58,0-1,0-1.36s0-.59,0-0.78,0-.37,0-0.54l-0.3,0-0.35,0-0.33,0-0.35,0q0,0.54.07,1.08t0,1.09q0,1.07,0,2.14t-0.07,2.14l0.33,0,0.34,0,0.37,0,0.28,0c0-.19,0-0.38,0-0.57s0-.41,0-0.67,0-.59,0-1V78.89l0.8,0h1.57l0.76,0V80.4Z" transform="translate(-14.29 -8.27)"/><path class="cls-1" d="M131.16,77.78c0,0.81,0,1.59,0,2.32s0,1.39-.09,2l0.34,0,0.34,0,0.33,0,0.33,0q-0.06-.57-0.08-1.35t0-1.83q0-.49,0-1.12t0-1.21q0-.58.07-0.95l-0.34,0-0.33,0-0.32,0-0.35,0q0.07,0.68.08,1.21t0,1" transform="translate(-14.29 -8.27)"/><path class="cls-1" d="M135.43,79.49c0,0.07,0,.23,0,0.48s0,0.53,0,.84,0,0.58,0,.82,0,0.38,0,.43l0.93,0h0.87l0.91,0,0.89,0a0.91,0.91,0,0,1,0-.15,1.09,1.09,0,0,1,0-.17,1.5,1.5,0,0,1,0-.23,1.3,1.3,0,0,1,0-.15,7.39,7.39,0,0,1-.75.06l-0.87,0h-0.73c0-.26,0-0.54,0-0.84s0-.62,0-0.95c0-.71,0-1.39,0-2s0-1.32.07-2l-0.33,0h-0.65l-0.32,0c0,0.07,0,.19,0,0.35s0,0.34,0,.5,0,0.29,0,.37c0,0.27,0,.48,0,0.63s0,0.27,0,.37,0,0.22,0,.35v1.32Z" transform="translate(-14.29 -8.27)"/><path class="cls-1" d="M142.64,76.18H144l0.89,0a0.78,0.78,0,0,1,0-.15,1.42,1.42,0,0,1,0-.2,0.82,0.82,0,0,1,0-.15l0-.15-1,0-0.77,0-0.87,0-0.83,0q0,0.49.05,1.15t0,1.22c0,0.38,0,.64,0,0.78s0,0.36,0,.62,0,0.53,0,.81,0,0.51,0,.7,0,0.39,0,.59,0,0.39,0,.59l0.89,0H144l0.85,0a0.74,0.74,0,0,1,0-.16,1.73,1.73,0,0,1,0-.18,1.56,1.56,0,0,1,0-.17,0.53,0.53,0,0,1,0-.14l-0.88,0-0.85,0h-0.51V78.92H144l0.36,0,0.37,0a0.6,0.6,0,0,1,0-.14,1.48,1.48,0,0,1,0-.18,1.39,1.39,0,0,1,0-.18,1.42,1.42,0,0,1,0-.15l-0.64,0-0.76,0h-0.63V76.18Z" transform="translate(-14.29 -8.27)"/><path class="cls-1" d="M50.4,32.28h0.7l0.71,0a0.66,0.66,0,0,1,0-.11,0.48,0.48,0,0,1,0-.08,0.66,0.66,0,0,1,0-.11s0-.07,0-0.11l-0.52,0H49.63q0,0.41,0,.89t0,1c0,0.22,0,.41,0,0.57s0,0.3,0,.43,0,0.28,0,.44,0,0.36,0,.6l0.17,0h0.42l0.2,0c0-.06,0-0.11,0-0.15s0-.09,0-0.15V35.41c0-.06,0-0.13,0-0.24V34h1.32l0-.1a0.52,0.52,0,0,1,0-.09,0.66,0.66,0,0,1,0-.19l-0.39,0H50.4V32.28Z" transform="translate(-14.29 -8.27)"/><path class="cls-1" d="M64.18,35.88l0.19,0h0.49l0.2,0-0.29-.64-0.31-.69-0.26-.6L63.81,33c-0.15-.37-0.3-0.75-0.44-1.15l-0.09,0H63.09l-0.09,0a9.4,9.4,0,0,1-.36.95q-0.26.61-.69,1.57l-0.67,1.49,0.12,0h0.28l0.13,0c0-.17.11-0.36,0.2-0.58s0.17-.44.26-0.67l0.35,0h0.71l0.37,0,0.24,0.61Zm-0.65-1.61-0.27,0H62.4L63,32.85Z" transform="translate(-14.29 -8.27)"/><path class="cls-1" d="M78.3,32.17A3.11,3.11,0,0,0,77,31.88a2.63,2.63,0,0,0-1.27.28,1.78,1.78,0,0,0-.74.75A2.25,2.25,0,0,0,74.71,34,2.07,2.07,0,0,0,75,35.06a1.79,1.79,0,0,0,.74.67,2.33,2.33,0,0,0,1,.23,3.2,3.2,0,0,0,.76-0.09,2.89,2.89,0,0,0,.7-0.27L78.28,35l-0.06,0a2,2,0,0,1-.5.44,1.58,1.58,0,0,1-.83.21,1.27,1.27,0,0,1-.64-0.16,1.37,1.37,0,0,1-.4-0.36,1.72,1.72,0,0,1-.31-0.7,2.55,2.55,0,0,1,0-.5,1.94,1.94,0,0,1,.38-1.27,1.37,1.37,0,0,1,1.1-.45,1.67,1.67,0,0,1,.64.11,0.85,0.85,0,0,1,.46.43h0.06Z" transform="translate(-14.29 -8.27)"/><path class="cls-1" d="M89.24,31.93l-0.18,0H88.67l-0.2,0c0,0.15,0,.33,0,0.52s0,0.37,0,.52v1.57s0,0.08,0,.14a1.56,1.56,0,0,0,0,.16,1.15,1.15,0,0,0,.33.68,1.4,1.4,0,0,0,.61.34,2.61,2.61,0,0,0,.71.09,2.31,2.31,0,0,0,.5-0.06,1.56,1.56,0,0,0,.47-0.19,1.15,1.15,0,0,0,.43-0.45,1.77,1.77,0,0,0,.15-0.78c0-.2,0-0.45,0-0.74s0-.57,0-0.85,0-.51,0-0.68l0-.28-0.13,0H91.38l-0.13,0q0,0.56,0,1.13t0,1.13a5.08,5.08,0,0,1,0,.52,1,1,0,0,1-.06.26,0.85,0.85,0,0,1-.35.43,1.15,1.15,0,0,1-.61.16,1.43,1.43,0,0,1-.53-0.09,0.81,0.81,0,0,1-.35-0.26A0.7,0.7,0,0,1,89.27,35a1.79,1.79,0,0,1,0-.4c0-.17,0-0.4,0-0.71s0-.51,0-0.76,0-.5,0-0.72Z" transform="translate(-14.29 -8.27)"/><path class="cls-1" d="M102.29,34.31s0,0.14,0,.29,0,0.33,0,.51,0,0.36,0,.5,0,0.24,0,.26l0.57,0h1.09l0.54,0a0.66,0.66,0,0,1,0-.09,0.69,0.69,0,0,1,0-.1,1.08,1.08,0,0,1,0-.14l0-.09-0.46,0h-1c0-.16,0-0.33,0-0.51s0-.38,0-0.58c0-.44,0-0.85,0-1.25s0-.81,0-1.23l-0.2,0h-0.4l-0.2,0s0,0.11,0,.22v0.31c0,0.1,0,.18,0,0.22s0,0.3,0,.39,0,0.16,0,.23v1Z" transform="translate(-14.29 -8.27)"/><path class="cls-1" d="M115.72,33c0-.11,0-0.22,0-0.33s0-.21,0-0.32h0.6l0.55,0,0-.11a0.69,0.69,0,0,1,0-.09,1.52,1.52,0,0,1,0-.22l-0.8,0h-1.5l-0.77,0,0,0.11a0.9,0.9,0,0,1,0,.11,0.94,0.94,0,0,1,0,.11l0,0.11,0.35,0H115c0,0.11,0,.22,0,0.32s0,0.21,0,.32v1.61c0,0.22,0,.44,0,0.66l0,0.66,0.24,0h0.33l0.25,0c0-.08,0-0.17,0-0.29s0-.28,0-0.5V33Z" transform="translate(-14.29 -8.27)"/><path class="cls-1" d="M129.06,35.88l0.19,0h0.49l0.2,0-0.29-.64-0.31-.69-0.26-.6L128.69,33q-0.23-.55-0.44-1.15l-0.09,0H128l-0.09,0a9.4,9.4,0,0,1-.36.95q-0.26.61-.69,1.57l-0.67,1.49,0.12,0h0.28l0.13,0c0-.17.11-0.36,0.2-0.58s0.17-.44.26-0.67l0.35,0h0.71l0.37,0,0.24,0.61Zm-0.65-1.61-0.26,0h-0.86l0.59-1.42Z" transform="translate(-14.29 -8.27)"/><path class="cls-1" d="M143.67,33.79A2,2,0,0,0,143.5,33a1.64,1.64,0,0,0-.5-0.64,1.79,1.79,0,0,0-.78-0.34,4.22,4.22,0,0,0-.79-0.06H140.2l-0.24,0c0,0.13,0,.25,0,0.38s0,0.25,0,.37,0,0.36,0,.54v1.07c0,0.13,0,.23,0,0.3v0.24l0,1.05,0.27,0h1.33a2.72,2.72,0,0,0,.65-0.07,1.94,1.94,0,0,0,.6-0.26,1.76,1.76,0,0,0,.63-0.71,2.35,2.35,0,0,0,.23-1.06m-3-.83c0-.12,0-0.23,0-0.35s0-.23,0-0.35l0.3,0h0.3a1.66,1.66,0,0,1,.94.24,1.28,1.28,0,0,1,.48.6,2,2,0,0,1,.14.74,2.33,2.33,0,0,1-.16.9,1.43,1.43,0,0,1-.38.54,1.33,1.33,0,0,1-.45.26,1.19,1.19,0,0,1-.37.07h-0.78c0-.13,0-0.27,0-0.4s0-.27,0-0.4V33Z" transform="translate(-14.29 -8.27)"/><path class="cls-1" d="M26.93,64.28v3.54H26V65.47H18V64.27h8.91Zm-6.77-2.4L21.47,64H18.84ZM20,61.35h0l0.18,0,0.18,0h0l0.56,1.3-0.76-1.21-0.76,1.21Zm-0.39-.73a0.58,0.58,0,1,1,.58.58,0.59,0.59,0,0,1-.58-0.58m2.15,3.3-1.17-2.68a0.74,0.74,0,1,0-.8,0l-1.17,2.67,0.05,0H17.7v1.83h8v2.34h1.6V64H21.67Z" transform="translate(-14.29 -8.27)"/><path class="cls-1" d="M17.75,54L18.39,54l0.16-.63,0.26,0.59,0.64,0L19,54.32l0.24,0.6-0.56-.32L18.17,55l0.13-.63Zm6.39,3.44-0.32.06-2.7-1.75Zm-0.76.2-0.27.12-2.49-2Zm-1.29.86-0.2.23L20.05,56ZM22.77,58l-0.25.17-2.32-2.3Zm-1.1,1.11-0.14.26L20,56.41Zm-0.32.68c0,0.1-.07.2-0.09,0.31L19.89,56.9Zm-3.56-4.15,0.89-.74L18.93,55l2.37,5.52,0-.22a3.39,3.39,0,0,1,.14-0.53v0l-2.25-4.41,2.28,4.3,0.06-.12a3.29,3.29,0,0,1,.22-0.4l0,0-2.4-3.78h0L21.9,59,22,58.93a3.78,3.78,0,0,1,.29-0.34l0,0-1.71-2.13,1.94,1.92,0,0a3.84,3.84,0,0,1,.37-0.25L23,58l-3.44-2.85h0l3.5,2.77,0,0,0,0a3.63,3.63,0,0,1,.42-0.17l0.13,0-4-2.72,4.12,2.67,0,0h0a3.28,3.28,0,0,1,.54-0.09l0.22,0-5.23-2.93-0.1-.26,0.86-.78L19,53.68l-0.47-1.06L18.2,53.75,17,53.87l1,0.62Z" transform="translate(-14.29 -8.27)"/><path class="cls-1" d="M30.08,46.39a0.14,0.14,0,1,0,0,.29,0.14,0.14,0,0,0,0-.29" transform="translate(-14.29 -8.27)"/><path class="cls-1" d="M29.71,51a0.08,0.08,0,1,1,.08.08A0.08,0.08,0,0,1,29.71,51m0.55,0a0.48,0.48,0,1,0-.48.48A0.48,0.48,0,0,0,30.27,51" transform="translate(-14.29 -8.27)"/><path class="cls-1" d="M44.62,50.84H34.68a4.89,4.89,0,0,0-3-4.27,4.18,4.18,0,0,1-.45-0.23,2,2,0,0,0-1.1-.34H29.88V31.64H44.62V50.84Zm0,17.82a1.41,1.41,0,0,1-1.56,1.56c-1.36,0-10,0-10.77,0a4.19,4.19,0,0,0-2.41.57l0-14.82a4.9,4.9,0,0,0,4.77-4.81h9.93v17.5ZM25.18,51.07a4.13,4.13,0,0,1,1.57-3.29,4.93,4.93,0,0,0-1.23,3.29,4.27,4.27,0,1,0,8.55,0,3.53,3.53,0,0,0-3.77-3.84,4.17,4.17,0,0,1-1-.28l0.35-.18-0.47-.34a2.81,2.81,0,0,1,.94-0.15,1.77,1.77,0,0,1,1,.3,4.81,4.81,0,0,0,.48.24,4.61,4.61,0,1,1-6.42,4.24m4.37,19.76a4.46,4.46,0,0,0-2.47-.62H16.41a1.41,1.41,0,0,1-1.56-1.56V51.15h10A4.91,4.91,0,0,0,29.59,56ZM26.25,52.9a4,4,0,0,1-.45-1.83,4.19,4.19,0,0,1,3.11-4.23h0l-0.18.09,0.18,0.14a2.87,2.87,0,0,0,.73.31Zm5-2.66a2.62,2.62,0,0,0-1.46-.52,2.69,2.69,0,0,0-1.56.59l1.53-2.48Zm-1.35-2.8a1.71,1.71,0,0,0,.4.07,3.23,3.23,0,0,1,3.48,3.55A4,4,0,0,1,33.3,53Zm3.3,5.69a4,4,0,0,1-6.81,0H33.2Zm-2.35-2.77a3.85,3.85,0,0,1,.77.62,3.78,3.78,0,0,1-.77.62,1.22,1.22,0,0,0,0-1.23m-2,.61a0.9,0.9,0,1,1,.9.9,0.9,0.9,0,0,1-.9-0.9m0.9,1.26a3.12,3.12,0,0,0,2.06-1l1,1.6H26.68l1-1.64a3.15,3.15,0,0,0,2.09,1.07m-1.05-.64A3.82,3.82,0,0,1,28,51a3.82,3.82,0,0,1,.77-0.62,1.21,1.21,0,0,0,0,1.23m-13.89-20H29.56V46a2,2,0,0,0-.7.25l-0.18.12,0.2,0.14h0a4.55,4.55,0,0,0-4,4.28H14.84V31.64Zm11.83-7.07,1.9-1.25L27,27.78l0.3,0.11L29,23l0.55-.36v8.42H21.64Zm2.88-3.73v1.44l-0.78.51h0v0l-1.46,1ZM28.08,21l1.32-.43L27.25,23.3Zm-0.77-.71h0l-1.52-1.11,3.49,1.09-1.38.46Zm1.11-1.46,0.8,1.08-3.23-1ZM29.57,16v3.78l-0.88-1.19Zm0.32,6.91V22.52L30.54,23l1.67,4.83,0.3-.11L31,23.33l1.69,1.23,4.83,6.53H29.89V22.93Zm0-2.15L32,23.7l-1.24-.9h0l-0.91-.66V20.78Zm0-5,0.69,1.7h0l0.39,1L29.89,19.9V15.83Zm1.34,2.87,2.09,0.21-3,1Zm0.63,2-1.53-.48,3.56-1.17Zm0.52,2.91-2.32-3.13L31.71,21Zm5.54,7.48-5-6.79-0.5-1.93L36.13,25l0.19-.26-4.05-2.9-0.2-.78L41.37,24l0.1-.31-9.24-2.89,0.3-.24h5.18V20.25H32.92l1.82-1.48,6.78-2.23-0.1-.31-7.35,2.42-1.65-.16,3.73-2.67L36,15.56l-4,2.88-0.48,0,6-7.69-0.25-.2-6,7.7-0.28-.68,1.53-4.42L32.15,13l-1.41,4.08L29.89,15V8.27H29.57V15l-0.73,2.15-1.51-4.39-0.3.11,1.65,4.78h0l-0.22.65-5.93-8-0.26.19,5.92,8-0.65,0h0l-4-2.88-0.19.26L27,18.52l-2,.06-7-2.19-0.1.31,6.89,2.15,1.92,1.41H21.87v0.32H27.2l0.33,0.24L17.94,24l0.1,0.3,9.65-3.18-0.19.53h0L23,24.78,23.23,25l4.1-2.93-0.71,2-5.4,7H14.29V68.65a2,2,0,0,0,2.12,2.12H27.08c0.53,0,2.37.15,2.37,0.94H30c0-.92,1.71-0.92,2.29-0.94,0.73,0,9.4,0,10.76,0a2,2,0,0,0,2.12-2.12V31.09H37.92Z" transform="translate(-14.29 -8.27)"/><path class="cls-1" d="M24.22,44.9h-3V44.44h3V44.9Zm-1,1.36V46.8H22.26V46.64Zm-0.94-.65V45.24h0.9Zm0.94,0v0.34l-0.94.39V45.95Zm0.6,1.56a1.09,1.09,0,0,1-2.15,0H23.8Zm-1.07-10,0.41,6.93H22.32ZM19.52,36l-0.19-.41H22.5l0,0.41h-3Zm1.35,3.59h-3.1l1.55-3.25ZM19.32,41.4a1.64,1.64,0,0,1-1.63-1.47H21a1.64,1.64,0,0,1-1.63,1.47m7.11-5.78L26.24,36H23l0-.41h3.47Zm1.55,4h-3.1l1.55-3.25Zm-1.54-4h0Zm0,5.79a1.64,1.64,0,0,1-1.63-1.47h3.26a1.64,1.64,0,0,1-1.63,1.47M23,36.26h3.13l-1.66,3.51a2,2,0,1,0,3.92,0L26.66,36.1V35.39H22.95l-0.06-.95H22.57l-0.06.95H19.1V36.1l-1.73,3.66a2,2,0,1,0,3.92,0l-1.65-3.47h2.83L22,44.12H20.87v1.1h1.07V46.8H21.32V47a1.41,1.41,0,0,0,2.81,0V46.8H23.52V45.22h1V44.12H23.46Z" transform="translate(-14.29 -8.27)"/><path class="cls-1" d="M36.16,36.88a0.22,0.22,0,1,0-.23-0.21,0.22,0.22,0,0,0,.23.21" transform="translate(-14.29 -8.27)"/><path class="cls-1" d="M32.57,34.36a1.18,1.18,0,0,1,1.19-.08l0,1.24,0.83,1.16a5.26,5.26,0,0,0-.25.68L33.3,35.89l-1.2-.49a1,1,0,0,1,.46-1m2.89,1.57a0.75,0.75,0,0,1,.94,0,0.79,0.79,0,0,1,.24,1.24,4.5,4.5,0,0,1-.79.12,0.48,0.48,0,0,0-.36.2,2.48,2.48,0,0,0-.08,1.57c0.14,0.51.4,1,1.79,0.93,1-.08,1.08,1.16,1.08,1.22a2.44,2.44,0,0,1,0,.65l-0.79-1.16-0.35,0A2,2,0,0,1,35,40.12a2.42,2.42,0,0,1-.48-2,4.52,4.52,0,0,1,.9-2.2m1,3.74A0.79,0.79,0,0,1,35.72,39a3.84,3.84,0,0,1-.08-0.64Zm0.66,1.41h0l0.15,0,0.81,1.18-0.2.1Zm1.5,1.36a1,1,0,0,1,1,.52,1.55,1.55,0,0,1,0,1.18l-0.64-1-0.14.17a1.1,1.1,0,0,1-1.08.41,1.33,1.33,0,0,1-.9-0.73A1.55,1.55,0,0,1,37,41.84l0.09-.17,0.73,1.13L38,42.68a1.18,1.18,0,0,1,.64-0.23M39,43.71l0,0,0.55,0.86h0Zm2.11,1.7a1.31,1.31,0,0,1,0,1l-0.52-.81h0l-0.18-.26a3.84,3.84,0,0,1-.87.34,1,1,0,0,1-.9-0.44,0.7,0.7,0,0,1-.14-0.57,0.94,0.94,0,0,1,.38-0.5l0.52,0.77,0.1-.07v0a1.12,1.12,0,0,1,.34-0.1,1.07,1.07,0,0,1,1.22.61M40.89,48a1.46,1.46,0,0,0-.53-0.65l0,0a0.8,0.8,0,0,1-.44-0.57,1.47,1.47,0,0,1,.38-0.7L41,47a5.45,5.45,0,0,1-.06,1M31.82,35.63l1.28,0.52,1.19,1.61c0,0.11,0,.21-0.05.32a2.73,2.73,0,0,0,.56,2.24,2.16,2.16,0,0,0,2,.79l0.16,0.24-0.18.32a1.86,1.86,0,0,0-.12,1.44,1.63,1.63,0,0,0,1.15.93,1.5,1.5,0,0,0,.94-0.16v0a1.26,1.26,0,0,0-.51.69,1,1,0,0,0,.19.82,1.31,1.31,0,0,0,1.2.58,1.55,1.55,0,0,0,.29-0.07,1.5,1.5,0,0,0-.36.77,1.06,1.06,0,0,0,.58.84l0,0a1.23,1.23,0,0,1,.54,1.1V49L41,49a11.88,11.88,0,0,0,.23-1.54l1.52,2.17,0.27-.18-1.72-2.7a1.58,1.58,0,0,0,0-1.48,1.39,1.39,0,0,0-1.5-.8h0A1.84,1.84,0,0,0,40,42.82a1.35,1.35,0,0,0-1.36-.7h0a3,3,0,0,0,0-.95,1.47,1.47,0,0,0-1.43-1.5h-0.3l-1.2-1.87a0.43,0.43,0,0,1,.06-0.13,0.16,0.16,0,0,1,.13-0.07,4.66,4.66,0,0,0,.93-0.15l0.06,0,0-.06a1.13,1.13,0,0,0-.31-1.72,1,1,0,0,0-1.36,0,3.89,3.89,0,0,0-.41.63l-0.68-.94,0-1.31-0.07,0a1.49,1.49,0,0,0-1.62,0,1.39,1.39,0,0,0-.59,1.45Z" transform="translate(-14.29 -8.27)"/><path class="cls-1" d="M35.69,61.4a1.51,1.51,0,0,1,1.07-.3l0-.23a1.73,1.73,0,0,0-1.23.35,1.47,1.47,0,0,1-.65.28l0,0.23a1.65,1.65,0,0,0,.77-0.33" transform="translate(-14.29 -8.27)"/><path class="cls-1" d="M35.69,60.94a1.51,1.51,0,0,1,1.07-.3l0-.23a1.73,1.73,0,0,0-1.23.35,1.46,1.46,0,0,1-.65.28l0,0.23a1.64,1.64,0,0,0,.77-0.33" transform="translate(-14.29 -8.27)"/><path class="cls-1" d="M35.69,60.48a1.52,1.52,0,0,1,1.07-.3l0-.22a1.72,1.72,0,0,0-1.23.35,1.44,1.44,0,0,1-.65.28l0,0.23a1.65,1.65,0,0,0,.77-0.33" transform="translate(-14.29 -8.27)"/><path class="cls-1" d="M35.69,60a1.52,1.52,0,0,1,1.07-.3l0-.23a1.73,1.73,0,0,0-1.23.34,1.44,1.44,0,0,1-.65.29l0,0.23A1.65,1.65,0,0,0,35.69,60" transform="translate(-14.29 -8.27)"/><path class="cls-1" d="M35.69,59.57a1.51,1.51,0,0,1,1.07-.3l0-.23a1.73,1.73,0,0,0-1.23.35,1.49,1.49,0,0,1-.65.28l0,0.23a1.65,1.65,0,0,0,.77-0.33" transform="translate(-14.29 -8.27)"/><path class="cls-1" d="M35.69,59.11a1.51,1.51,0,0,1,1.07-.3l0-.23a1.73,1.73,0,0,0-1.23.34,1.44,1.44,0,0,1-.65.29l0,0.23a1.65,1.65,0,0,0,.77-0.33" transform="translate(-14.29 -8.27)"/><path class="cls-1" d="M35.69,58.65a1.5,1.5,0,0,1,1.07-.3l0-.23a1.74,1.74,0,0,0-1.23.35,1.45,1.45,0,0,1-.65.29l0,0.23a1.66,1.66,0,0,0,.77-0.33" transform="translate(-14.29 -8.27)"/><path class="cls-1" d="M35.69,58.19a1.51,1.51,0,0,1,1.07-.3l0-.23a1.74,1.74,0,0,0-1.23.35,1.45,1.45,0,0,1-.65.29l0,0.23a1.67,1.67,0,0,0,.77-0.33" transform="translate(-14.29 -8.27)"/><path class="cls-1" d="M38.09,60.87l0,0.23a1.51,1.51,0,0,1,1.08.31,1.62,1.62,0,0,0,.76.32l0-.23a1.49,1.49,0,0,1-.65-0.28,1.75,1.75,0,0,0-1.24-.35" transform="translate(-14.29 -8.27)"/><path class="cls-1" d="M38.09,60.41l0,0.23a1.51,1.51,0,0,1,1.08.31,1.62,1.62,0,0,0,.76.32L40,61a1.45,1.45,0,0,1-.65-0.28,1.74,1.74,0,0,0-1.24-.35" transform="translate(-14.29 -8.27)"/><path class="cls-1" d="M38.09,60l0,0.23a1.51,1.51,0,0,1,1.08.31,1.64,1.64,0,0,0,.76.32l0-.23a1.45,1.45,0,0,1-.65-0.28A1.75,1.75,0,0,0,38.09,60" transform="translate(-14.29 -8.27)"/><path class="cls-1" d="M38.09,59.49l0,0.23A1.5,1.5,0,0,1,39.2,60a1.65,1.65,0,0,0,.76.32l0-.23a1.44,1.44,0,0,1-.65-0.28,1.76,1.76,0,0,0-1.24-.35" transform="translate(-14.29 -8.27)"/><path class="cls-1" d="M38.09,59l0,0.23a1.51,1.51,0,0,1,1.08.31,1.64,1.64,0,0,0,.76.32l0-.23a1.44,1.44,0,0,1-.65-0.28A1.75,1.75,0,0,0,38.09,59" transform="translate(-14.29 -8.27)"/><path class="cls-1" d="M38.09,58.58l0,0.23a1.52,1.52,0,0,1,1.08.31,1.63,1.63,0,0,0,.76.32l0-.23a1.43,1.43,0,0,1-.65-0.28,1.75,1.75,0,0,0-1.24-.35" transform="translate(-14.29 -8.27)"/><path class="cls-1" d="M38.09,58.12l0,0.23a1.51,1.51,0,0,1,1.08.31A1.64,1.64,0,0,0,40,59l0-.23a1.41,1.41,0,0,1-.65-0.28,1.75,1.75,0,0,0-1.24-.35" transform="translate(-14.29 -8.27)"/><path class="cls-1" d="M38.09,57.66l0,0.23a1.52,1.52,0,0,1,1.08.31,1.64,1.64,0,0,0,.76.32l0-.23A1.45,1.45,0,0,1,39.33,58a1.75,1.75,0,0,0-1.24-.35" transform="translate(-14.29 -8.27)"/><path class="cls-1" d="M34.41,57.9a0.72,0.72,0,0,0,.45.16,1.52,1.52,0,0,0,.82-0.33,1.52,1.52,0,0,1,.92-0.31,1,1,0,0,1,.72.26v3.83a1.62,1.62,0,0,0-1.77.16c-0.68.45-.9,0.29-1.14,0V57.9Zm1.77-1.35a0.46,0.46,0,0,0,.43.07l0.08,0V56.51a2.44,2.44,0,0,0-.06-0.76,0.71,0.71,0,0,1,.28.25l0.2-.11a2.34,2.34,0,0,1-.18-0.6,0.69,0.69,0,0,0,.26.11l0.15,0V55.28a1.39,1.39,0,0,1,.11-0.72,1.39,1.39,0,0,1,.1.72v0.15l0.15,0a0.66,0.66,0,0,0,.26-0.11,2.37,2.37,0,0,1-.18.6L38,56a0.71,0.71,0,0,1,.28-0.25,2.39,2.39,0,0,0-.06.76v0.08l0.08,0a0.46,0.46,0,0,0,.43-0.07,0.89,0.89,0,0,1-.32.65H38.27a1.23,1.23,0,0,0-.83.28,1.21,1.21,0,0,0-.83-0.28H36.5a0.89,0.89,0,0,1-.32-0.65m3,1.19a1.51,1.51,0,0,0,.82.32,0.73,0.73,0,0,0,.45-0.16v3.82c-0.25.24-.46,0.41-1.14,0a1.63,1.63,0,0,0-1.77-.16V57.68a1,1,0,0,1,.72-0.26,1.54,1.54,0,0,1,.92.32m1.38,4.19L41,62.41H38l-0.47-.61a1.31,1.31,0,0,1,1.64.06c0.74,0.49,1.07.35,1.38,0.07m0.12-4,0.43,0.45v3.8l-0.43-.45V57.92Zm0.66,4.18,0.71,0.1L41.2,63l-0.07.06-0.9.82A1.34,1.34,0,0,0,40,65.18l-1.89-.4a0.63,0.63,0,0,1,0-.53l-0.25-.13a0.87,0.87,0,0,0-.09.6l-0.64-.13a0.64,0.64,0,0,1,0-.58l-0.25-.13a0.88,0.88,0,0,0-.07.65l-1.5-.32a0.63,0.63,0,0,1,0-.55l-0.25-.13a0.86,0.86,0,0,0-.08.61L34.33,64a0.64,0.64,0,0,1,0-.58l-0.25-.13a0.87,0.87,0,0,0-.07.65l-1.22-.26L32.7,63.6l-0.05-.07,0-.15a1.07,1.07,0,0,1,.12-0.72l0.78-.58v0.57H37L37.44,62l0.48,0.61h3.44V62.1Zm0.72,1.35-0.65.64-1.1,1.1a1,1,0,0,1,.1-1.11L41,63.58l0.15-.14,0.05,0,0.31-.28L42,62.62a1.07,1.07,0,0,0,0,.58l0.12,0.14Zm0.28,0.1,0.47,0.07-2.1,1.93A1.53,1.53,0,0,0,40.46,67l-2.17-.45a0.73,0.73,0,0,1,0-.61L38,65.82a1,1,0,0,0-.1.68l-0.73-.15a0.74,0.74,0,0,1,0-.67l-0.28-.15a1,1,0,0,0-.09.74l-1.72-.36a0.73,0.73,0,0,1,0-.63l-0.28-.15a1,1,0,0,0-.09.71l-0.83-.17A0.74,0.74,0,0,1,34,65l-0.28-.15a1,1,0,0,0-.09.74l-1.48-.31a1.23,1.23,0,0,1,0-1.13l0.41-.31,0,0.05,7.8,1.65Zm-1.52,3.5A1.15,1.15,0,0,1,41,65.79l1.83-1.69a1,1,0,0,0,.16.85Zm-7.09-5.15V58.38l0.43-.45v3.79l-0.44.45V61.91Zm0.55,0c0.31,0.29.65,0.43,1.39-.07a1.31,1.31,0,0,1,1.63,0l-0.47.61h-3Zm0-4.45-0.78.8v3.45l-0.95.71a1.12,1.12,0,0,0-.17,1.11l-0.47.35a1.41,1.41,0,0,0,0,1.67l9,1.89,2.39-2.39V64.78c-0.38-.19-0.16-0.85,0-1.08l0,0v-0.3l-0.82-.12v0c-0.33-.16-0.14-0.74,0-0.94l0,0V62l-1.1-.15V58.28l-0.78-.8-0.08.08a0.7,0.7,0,0,1-.49.27,1.34,1.34,0,0,1-.68-0.28,1.74,1.74,0,0,0-.67-0.32,1,1,0,0,0,.23-1L38.82,56l-0.14.2a0.29,0.29,0,0,1-.27.18,1.1,1.1,0,0,1,.14-0.77l0.25-.25-0.35.06a1,1,0,0,0-.33.11,1,1,0,0,0,0-.62L38,54.66l-0.1.28a0.32,0.32,0,0,1-.14.18,1.36,1.36,0,0,0-.25-0.85l-0.09.07-0.09-.07a1.37,1.37,0,0,0-.25.85A0.32,0.32,0,0,1,37,54.95l-0.1-.28-0.11.28a1,1,0,0,0,0,.61,1.05,1.05,0,0,0-.33-0.11l-0.35-.05,0.25,0.25a1.09,1.09,0,0,1,.14.77,0.29,0.29,0,0,1-.27-0.18L36.06,56,36,56.26a1,1,0,0,0,.23,1,1.66,1.66,0,0,0-.67.31,1.34,1.34,0,0,1-.69.29,0.7,0.7,0,0,1-.49-0.27Z" transform="translate(-14.29 -8.27)"/><path class="cls-1" d="M25.76,58.41a0.9,0.9,0,0,1-.51.59,1.06,1.06,0,0,1-.47-0.78,2.67,2.67,0,0,1,1,.19m0.76,0.45c-0.81.66-.79,0.84-0.78,0.9a0.83,0.83,0,0,0,.52.45l0.17,0.09a0.53,0.53,0,0,0,0,.52,0.92,0.92,0,0,1,.05.26,1.15,1.15,0,0,0,.6,1h0.06a0.11,0.11,0,0,0,.08,0,2.72,2.72,0,0,1-3.48,1.37h0.06l0-.05c0-.1.29-1,0.39-1.2a1.13,1.13,0,0,1,.25-0.32,1,1,0,0,0,.17-0.2l0,0v0a0.67,0.67,0,0,0-.06-1,2.18,2.18,0,0,1-.15-0.19,0.73,0.73,0,0,0-.31-0.24,0.82,0.82,0,0,1-.27-0.18,0.49,0.49,0,0,0-.4-0.14H23.36a0.18,0.18,0,0,1-.18-0.06A1.12,1.12,0,0,1,23,59.05a0.67,0.67,0,0,1,.23.16l0,0a0.52,0.52,0,0,0,.3.18,0.19,0.19,0,0,0,.11,0,2,2,0,0,0,.24-0.27l0.24-.28,0,0V58.74l0.09-.08,0,0a0.5,0.5,0,0,0-.42-0.19h0a2.71,2.71,0,0,1,.89-0.19,1.13,1.13,0,0,0,.61.91,1,1,0,0,0,.64-0.67,2.82,2.82,0,0,1,.64.4m0.27,0.26a2.7,2.7,0,0,1,.7,1.91,8.07,8.07,0,0,1-.32,1h0a1,1,0,0,1-.51-0.92,0.94,0.94,0,0,0-.07-0.3,0.39,0.39,0,0,1,0-.41l0,0,0,0,0,0-0.23-.14a0.8,0.8,0,0,1-.45-0.35A2,2,0,0,1,26.63,59l0.17,0.17m-3.13,4.21-0.15-.69a0.59,0.59,0,0,0-.09-0.22,0.17,0.17,0,0,1,0-.16,1.48,1.48,0,0,0,0-.68,0.26,0.26,0,0,0-.16-0.08A0.3,0.3,0,0,1,23,61.4a0.53,0.53,0,0,1-.07-0.25,0.58,0.58,0,0,0,0-.1,2.22,2.22,0,0,0-.13-0.32h0a0.54,0.54,0,0,0,.11-0.57,0.61,0.61,0,0,0-.28-0.3l-0.11-.07-0.14-.1a2.66,2.66,0,0,1,.46-0.64,1.55,1.55,0,0,0,.26.88,0.31,0.31,0,0,0,.3.13h0.13a0.36,0.36,0,0,1,.29.1,1,1,0,0,0,.31.22,0.58,0.58,0,0,1,.25.19,2,2,0,0,0,.16.21,0.67,0.67,0,0,1,.19.35,0.66,0.66,0,0,1-.15.45h0l0,0.05a1.05,1.05,0,0,1-.15.17,1.21,1.21,0,0,0-.27.36c-0.09.2-.32,1-0.38,1.17H23.66Zm-0.92-.57a2.72,2.72,0,0,1-.46-3L22.4,59.9,22.53,60a0.47,0.47,0,0,1,.23.24,0.4,0.4,0,0,1-.09.41l-0.07.07,0,0.09a1.94,1.94,0,0,1,.12.29,0.49,0.49,0,0,1,0,.09,0.65,0.65,0,0,0,.08.3,0.42,0.42,0,0,0,.3.17l0.08,0a1.66,1.66,0,0,1,0,.57,0.32,0.32,0,0,0,.06.26,0.49,0.49,0,0,1,.07.17l0.15,0.7a2.73,2.73,0,0,1-.79-0.6m0.63-4.17h0l0.15,0,0.24,0a0.4,0.4,0,0,1,.27.09l0,0v0.07L23.75,59a1.92,1.92,0,0,1-.21.24,0.28,0.28,0,0,1-.24-0.13h0a0.62,0.62,0,0,0-.32-0.2h0a2.59,2.59,0,0,1,.43-0.32m-0.61.11a3,3,0,1,0,2-.77,3,3,0,0,0-2,.77" transform="translate(-14.29 -8.27)"/></svg>